<?xml version="1.0" encoding="utf-8" standalone="no"?>
<!DOCTYPE svg PUBLIC "-//W3C//DTD SVG 1.1//EN"
  "http://www.w3.org/Graphics/SVG/1.1/DTD/svg11.dtd">
<!-- Created with matplotlib (https://matplotlib.org/) -->
<svg height="360pt" version="1.1" viewBox="0 0 720 360" width="720pt" xmlns="http://www.w3.org/2000/svg" xmlns:xlink="http://www.w3.org/1999/xlink">
 <defs>
  <style type="text/css">
*{stroke-linecap:butt;stroke-linejoin:round;}
  </style>
 </defs>
 <g id="figure_1">
  <g id="patch_1">
   <path d="M 0 360 
L 720 360 
L 720 0 
L 0 0 
z
" style="fill:#ffffff;"/>
  </g>
  <g id="axes_1">
   <g id="matplotlib.axis_1">
    <g id="xtick_1">
     <g id="line2d_1">
      <path clip-path="url(#p5bf72447c4)" d="M 90 315 
L 90 43.2 
" style="fill:none;stroke:#e6e6e6;stroke-linecap:square;stroke-width:0.8;"/>
     </g>
     <g id="line2d_2">
      <defs>
       <path d="M 0 0 
L 0 3.5 
" id="me15c760402" style="stroke:#000000;stroke-width:0.8;"/>
      </defs>
      <g>
       <use style="stroke:#000000;stroke-width:0.8;" x="90" xlink:href="#me15c760402" y="315"/>
      </g>
     </g>
     <g id="text_1">
      <!-- 0 -->
      <defs>
       <path d="M 31.78125 66.40625 
Q 24.171875 66.40625 20.328125 58.90625 
Q 16.5 51.421875 16.5 36.375 
Q 16.5 21.390625 20.328125 13.890625 
Q 24.171875 6.390625 31.78125 6.390625 
Q 39.453125 6.390625 43.28125 13.890625 
Q 47.125 21.390625 47.125 36.375 
Q 47.125 51.421875 43.28125 58.90625 
Q 39.453125 66.40625 31.78125 66.40625 
z
M 31.78125 74.21875 
Q 44.046875 74.21875 50.515625 64.515625 
Q 56.984375 54.828125 56.984375 36.375 
Q 56.984375 17.96875 50.515625 8.265625 
Q 44.046875 -1.421875 31.78125 -1.421875 
Q 19.53125 -1.421875 13.0625 8.265625 
Q 6.59375 17.96875 6.59375 36.375 
Q 6.59375 54.828125 13.0625 64.515625 
Q 19.53125 74.21875 31.78125 74.21875 
z
" id="DejaVuSans-48"/>
      </defs>
      <g transform="translate(86.81875 329.598437)scale(0.1 -0.1)">
       <use xlink:href="#DejaVuSans-48"/>
      </g>
     </g>
    </g>
    <g id="xtick_2">
     <g id="line2d_3">
      <path clip-path="url(#p5bf72447c4)" d="M 145.8 315 
L 145.8 43.2 
" style="fill:none;stroke:#e6e6e6;stroke-linecap:square;stroke-width:0.8;"/>
     </g>
     <g id="line2d_4">
      <g>
       <use style="stroke:#000000;stroke-width:0.8;" x="145.8" xlink:href="#me15c760402" y="315"/>
      </g>
     </g>
     <g id="text_2">
      <!-- 12 -->
      <defs>
       <path d="M 12.40625 8.296875 
L 28.515625 8.296875 
L 28.515625 63.921875 
L 10.984375 60.40625 
L 10.984375 69.390625 
L 28.421875 72.90625 
L 38.28125 72.90625 
L 38.28125 8.296875 
L 54.390625 8.296875 
L 54.390625 0 
L 12.40625 0 
z
" id="DejaVuSans-49"/>
       <path d="M 19.1875 8.296875 
L 53.609375 8.296875 
L 53.609375 0 
L 7.328125 0 
L 7.328125 8.296875 
Q 12.9375 14.109375 22.625 23.890625 
Q 32.328125 33.6875 34.8125 36.53125 
Q 39.546875 41.84375 41.421875 45.53125 
Q 43.3125 49.21875 43.3125 52.78125 
Q 43.3125 58.59375 39.234375 62.25 
Q 35.15625 65.921875 28.609375 65.921875 
Q 23.96875 65.921875 18.8125 64.3125 
Q 13.671875 62.703125 7.8125 59.421875 
L 7.8125 69.390625 
Q 13.765625 71.78125 18.9375 73 
Q 24.125 74.21875 28.421875 74.21875 
Q 39.75 74.21875 46.484375 68.546875 
Q 53.21875 62.890625 53.21875 53.421875 
Q 53.21875 48.921875 51.53125 44.890625 
Q 49.859375 40.875 45.40625 35.40625 
Q 44.1875 33.984375 37.640625 27.21875 
Q 31.109375 20.453125 19.1875 8.296875 
z
" id="DejaVuSans-50"/>
      </defs>
      <g transform="translate(139.4375 329.598437)scale(0.1 -0.1)">
       <use xlink:href="#DejaVuSans-49"/>
       <use x="63.623047" xlink:href="#DejaVuSans-50"/>
      </g>
     </g>
    </g>
    <g id="xtick_3">
     <g id="line2d_5">
      <path clip-path="url(#p5bf72447c4)" d="M 201.6 315 
L 201.6 43.2 
" style="fill:none;stroke:#e6e6e6;stroke-linecap:square;stroke-width:0.8;"/>
     </g>
     <g id="line2d_6">
      <g>
       <use style="stroke:#000000;stroke-width:0.8;" x="201.6" xlink:href="#me15c760402" y="315"/>
      </g>
     </g>
     <g id="text_3">
      <!-- 24 -->
      <defs>
       <path d="M 37.796875 64.3125 
L 12.890625 25.390625 
L 37.796875 25.390625 
z
M 35.203125 72.90625 
L 47.609375 72.90625 
L 47.609375 25.390625 
L 58.015625 25.390625 
L 58.015625 17.1875 
L 47.609375 17.1875 
L 47.609375 0 
L 37.796875 0 
L 37.796875 17.1875 
L 4.890625 17.1875 
L 4.890625 26.703125 
z
" id="DejaVuSans-52"/>
      </defs>
      <g transform="translate(195.2375 329.598437)scale(0.1 -0.1)">
       <use xlink:href="#DejaVuSans-50"/>
       <use x="63.623047" xlink:href="#DejaVuSans-52"/>
      </g>
     </g>
    </g>
    <g id="xtick_4">
     <g id="line2d_7">
      <path clip-path="url(#p5bf72447c4)" d="M 257.4 315 
L 257.4 43.2 
" style="fill:none;stroke:#e6e6e6;stroke-linecap:square;stroke-width:0.8;"/>
     </g>
     <g id="line2d_8">
      <g>
       <use style="stroke:#000000;stroke-width:0.8;" x="257.4" xlink:href="#me15c760402" y="315"/>
      </g>
     </g>
     <g id="text_4">
      <!-- 36 -->
      <defs>
       <path d="M 40.578125 39.3125 
Q 47.65625 37.796875 51.625 33 
Q 55.609375 28.21875 55.609375 21.1875 
Q 55.609375 10.40625 48.1875 4.484375 
Q 40.765625 -1.421875 27.09375 -1.421875 
Q 22.515625 -1.421875 17.65625 -0.515625 
Q 12.796875 0.390625 7.625 2.203125 
L 7.625 11.71875 
Q 11.71875 9.328125 16.59375 8.109375 
Q 21.484375 6.890625 26.8125 6.890625 
Q 36.078125 6.890625 40.9375 10.546875 
Q 45.796875 14.203125 45.796875 21.1875 
Q 45.796875 27.640625 41.28125 31.265625 
Q 36.765625 34.90625 28.71875 34.90625 
L 20.21875 34.90625 
L 20.21875 43.015625 
L 29.109375 43.015625 
Q 36.375 43.015625 40.234375 45.921875 
Q 44.09375 48.828125 44.09375 54.296875 
Q 44.09375 59.90625 40.109375 62.90625 
Q 36.140625 65.921875 28.71875 65.921875 
Q 24.65625 65.921875 20.015625 65.03125 
Q 15.375 64.15625 9.8125 62.3125 
L 9.8125 71.09375 
Q 15.4375 72.65625 20.34375 73.4375 
Q 25.25 74.21875 29.59375 74.21875 
Q 40.828125 74.21875 47.359375 69.109375 
Q 53.90625 64.015625 53.90625 55.328125 
Q 53.90625 49.265625 50.4375 45.09375 
Q 46.96875 40.921875 40.578125 39.3125 
z
" id="DejaVuSans-51"/>
       <path d="M 33.015625 40.375 
Q 26.375 40.375 22.484375 35.828125 
Q 18.609375 31.296875 18.609375 23.390625 
Q 18.609375 15.53125 22.484375 10.953125 
Q 26.375 6.390625 33.015625 6.390625 
Q 39.65625 6.390625 43.53125 10.953125 
Q 47.40625 15.53125 47.40625 23.390625 
Q 47.40625 31.296875 43.53125 35.828125 
Q 39.65625 40.375 33.015625 40.375 
z
M 52.59375 71.296875 
L 52.59375 62.3125 
Q 48.875 64.0625 45.09375 64.984375 
Q 41.3125 65.921875 37.59375 65.921875 
Q 27.828125 65.921875 22.671875 59.328125 
Q 17.53125 52.734375 16.796875 39.40625 
Q 19.671875 43.65625 24.015625 45.921875 
Q 28.375 48.1875 33.59375 48.1875 
Q 44.578125 48.1875 50.953125 41.515625 
Q 57.328125 34.859375 57.328125 23.390625 
Q 57.328125 12.15625 50.6875 5.359375 
Q 44.046875 -1.421875 33.015625 -1.421875 
Q 20.359375 -1.421875 13.671875 8.265625 
Q 6.984375 17.96875 6.984375 36.375 
Q 6.984375 53.65625 15.1875 63.9375 
Q 23.390625 74.21875 37.203125 74.21875 
Q 40.921875 74.21875 44.703125 73.484375 
Q 48.484375 72.75 52.59375 71.296875 
z
" id="DejaVuSans-54"/>
      </defs>
      <g transform="translate(251.0375 329.598437)scale(0.1 -0.1)">
       <use xlink:href="#DejaVuSans-51"/>
       <use x="63.623047" xlink:href="#DejaVuSans-54"/>
      </g>
     </g>
    </g>
    <g id="xtick_5">
     <g id="line2d_9">
      <path clip-path="url(#p5bf72447c4)" d="M 313.2 315 
L 313.2 43.2 
" style="fill:none;stroke:#e6e6e6;stroke-linecap:square;stroke-width:0.8;"/>
     </g>
     <g id="line2d_10">
      <g>
       <use style="stroke:#000000;stroke-width:0.8;" x="313.2" xlink:href="#me15c760402" y="315"/>
      </g>
     </g>
     <g id="text_5">
      <!-- 48 -->
      <defs>
       <path d="M 31.78125 34.625 
Q 24.75 34.625 20.71875 30.859375 
Q 16.703125 27.09375 16.703125 20.515625 
Q 16.703125 13.921875 20.71875 10.15625 
Q 24.75 6.390625 31.78125 6.390625 
Q 38.8125 6.390625 42.859375 10.171875 
Q 46.921875 13.96875 46.921875 20.515625 
Q 46.921875 27.09375 42.890625 30.859375 
Q 38.875 34.625 31.78125 34.625 
z
M 21.921875 38.8125 
Q 15.578125 40.375 12.03125 44.71875 
Q 8.5 49.078125 8.5 55.328125 
Q 8.5 64.0625 14.71875 69.140625 
Q 20.953125 74.21875 31.78125 74.21875 
Q 42.671875 74.21875 48.875 69.140625 
Q 55.078125 64.0625 55.078125 55.328125 
Q 55.078125 49.078125 51.53125 44.71875 
Q 48 40.375 41.703125 38.8125 
Q 48.828125 37.15625 52.796875 32.3125 
Q 56.78125 27.484375 56.78125 20.515625 
Q 56.78125 9.90625 50.3125 4.234375 
Q 43.84375 -1.421875 31.78125 -1.421875 
Q 19.734375 -1.421875 13.25 4.234375 
Q 6.78125 9.90625 6.78125 20.515625 
Q 6.78125 27.484375 10.78125 32.3125 
Q 14.796875 37.15625 21.921875 38.8125 
z
M 18.3125 54.390625 
Q 18.3125 48.734375 21.84375 45.5625 
Q 25.390625 42.390625 31.78125 42.390625 
Q 38.140625 42.390625 41.71875 45.5625 
Q 45.3125 48.734375 45.3125 54.390625 
Q 45.3125 60.0625 41.71875 63.234375 
Q 38.140625 66.40625 31.78125 66.40625 
Q 25.390625 66.40625 21.84375 63.234375 
Q 18.3125 60.0625 18.3125 54.390625 
z
" id="DejaVuSans-56"/>
      </defs>
      <g transform="translate(306.8375 329.598437)scale(0.1 -0.1)">
       <use xlink:href="#DejaVuSans-52"/>
       <use x="63.623047" xlink:href="#DejaVuSans-56"/>
      </g>
     </g>
    </g>
    <g id="xtick_6">
     <g id="line2d_11">
      <path clip-path="url(#p5bf72447c4)" d="M 369 315 
L 369 43.2 
" style="fill:none;stroke:#e6e6e6;stroke-linecap:square;stroke-width:0.8;"/>
     </g>
     <g id="line2d_12">
      <g>
       <use style="stroke:#000000;stroke-width:0.8;" x="369" xlink:href="#me15c760402" y="315"/>
      </g>
     </g>
     <g id="text_6">
      <!-- 60 -->
      <g transform="translate(362.6375 329.598437)scale(0.1 -0.1)">
       <use xlink:href="#DejaVuSans-54"/>
       <use x="63.623047" xlink:href="#DejaVuSans-48"/>
      </g>
     </g>
    </g>
    <g id="xtick_7">
     <g id="line2d_13">
      <path clip-path="url(#p5bf72447c4)" d="M 424.8 315 
L 424.8 43.2 
" style="fill:none;stroke:#e6e6e6;stroke-linecap:square;stroke-width:0.8;"/>
     </g>
     <g id="line2d_14">
      <g>
       <use style="stroke:#000000;stroke-width:0.8;" x="424.8" xlink:href="#me15c760402" y="315"/>
      </g>
     </g>
     <g id="text_7">
      <!-- 72 -->
      <defs>
       <path d="M 8.203125 72.90625 
L 55.078125 72.90625 
L 55.078125 68.703125 
L 28.609375 0 
L 18.3125 0 
L 43.21875 64.59375 
L 8.203125 64.59375 
z
" id="DejaVuSans-55"/>
      </defs>
      <g transform="translate(418.4375 329.598437)scale(0.1 -0.1)">
       <use xlink:href="#DejaVuSans-55"/>
       <use x="63.623047" xlink:href="#DejaVuSans-50"/>
      </g>
     </g>
    </g>
    <g id="xtick_8">
     <g id="line2d_15">
      <path clip-path="url(#p5bf72447c4)" d="M 480.6 315 
L 480.6 43.2 
" style="fill:none;stroke:#e6e6e6;stroke-linecap:square;stroke-width:0.8;"/>
     </g>
     <g id="line2d_16">
      <g>
       <use style="stroke:#000000;stroke-width:0.8;" x="480.6" xlink:href="#me15c760402" y="315"/>
      </g>
     </g>
     <g id="text_8">
      <!-- 84 -->
      <g transform="translate(474.2375 329.598437)scale(0.1 -0.1)">
       <use xlink:href="#DejaVuSans-56"/>
       <use x="63.623047" xlink:href="#DejaVuSans-52"/>
      </g>
     </g>
    </g>
    <g id="xtick_9">
     <g id="line2d_17">
      <path clip-path="url(#p5bf72447c4)" d="M 536.4 315 
L 536.4 43.2 
" style="fill:none;stroke:#e6e6e6;stroke-linecap:square;stroke-width:0.8;"/>
     </g>
     <g id="line2d_18">
      <g>
       <use style="stroke:#000000;stroke-width:0.8;" x="536.4" xlink:href="#me15c760402" y="315"/>
      </g>
     </g>
     <g id="text_9">
      <!-- 96 -->
      <defs>
       <path d="M 10.984375 1.515625 
L 10.984375 10.5 
Q 14.703125 8.734375 18.5 7.8125 
Q 22.3125 6.890625 25.984375 6.890625 
Q 35.75 6.890625 40.890625 13.453125 
Q 46.046875 20.015625 46.78125 33.40625 
Q 43.953125 29.203125 39.59375 26.953125 
Q 35.25 24.703125 29.984375 24.703125 
Q 19.046875 24.703125 12.671875 31.3125 
Q 6.296875 37.9375 6.296875 49.421875 
Q 6.296875 60.640625 12.9375 67.421875 
Q 19.578125 74.21875 30.609375 74.21875 
Q 43.265625 74.21875 49.921875 64.515625 
Q 56.59375 54.828125 56.59375 36.375 
Q 56.59375 19.140625 48.40625 8.859375 
Q 40.234375 -1.421875 26.421875 -1.421875 
Q 22.703125 -1.421875 18.890625 -0.6875 
Q 15.09375 0.046875 10.984375 1.515625 
z
M 30.609375 32.421875 
Q 37.25 32.421875 41.125 36.953125 
Q 45.015625 41.5 45.015625 49.421875 
Q 45.015625 57.28125 41.125 61.84375 
Q 37.25 66.40625 30.609375 66.40625 
Q 23.96875 66.40625 20.09375 61.84375 
Q 16.21875 57.28125 16.21875 49.421875 
Q 16.21875 41.5 20.09375 36.953125 
Q 23.96875 32.421875 30.609375 32.421875 
z
" id="DejaVuSans-57"/>
      </defs>
      <g transform="translate(530.0375 329.598437)scale(0.1 -0.1)">
       <use xlink:href="#DejaVuSans-57"/>
       <use x="63.623047" xlink:href="#DejaVuSans-54"/>
      </g>
     </g>
    </g>
    <g id="xtick_10">
     <g id="line2d_19">
      <path clip-path="url(#p5bf72447c4)" d="M 592.2 315 
L 592.2 43.2 
" style="fill:none;stroke:#e6e6e6;stroke-linecap:square;stroke-width:0.8;"/>
     </g>
     <g id="line2d_20">
      <g>
       <use style="stroke:#000000;stroke-width:0.8;" x="592.2" xlink:href="#me15c760402" y="315"/>
      </g>
     </g>
     <g id="text_10">
      <!-- 108 -->
      <g transform="translate(582.65625 329.598437)scale(0.1 -0.1)">
       <use xlink:href="#DejaVuSans-49"/>
       <use x="63.623047" xlink:href="#DejaVuSans-48"/>
       <use x="127.246094" xlink:href="#DejaVuSans-56"/>
      </g>
     </g>
    </g>
    <g id="text_11">
     <!-- entrainement (epoch) -->
     <defs>
      <path d="M 56.203125 29.59375 
L 56.203125 25.203125 
L 14.890625 25.203125 
Q 15.484375 15.921875 20.484375 11.0625 
Q 25.484375 6.203125 34.421875 6.203125 
Q 39.59375 6.203125 44.453125 7.46875 
Q 49.3125 8.734375 54.109375 11.28125 
L 54.109375 2.78125 
Q 49.265625 0.734375 44.1875 -0.34375 
Q 39.109375 -1.421875 33.890625 -1.421875 
Q 20.796875 -1.421875 13.15625 6.1875 
Q 5.515625 13.8125 5.515625 26.8125 
Q 5.515625 40.234375 12.765625 48.109375 
Q 20.015625 56 32.328125 56 
Q 43.359375 56 49.78125 48.890625 
Q 56.203125 41.796875 56.203125 29.59375 
z
M 47.21875 32.234375 
Q 47.125 39.59375 43.09375 43.984375 
Q 39.0625 48.390625 32.421875 48.390625 
Q 24.90625 48.390625 20.390625 44.140625 
Q 15.875 39.890625 15.1875 32.171875 
z
" id="DejaVuSans-101"/>
      <path d="M 54.890625 33.015625 
L 54.890625 0 
L 45.90625 0 
L 45.90625 32.71875 
Q 45.90625 40.484375 42.875 44.328125 
Q 39.84375 48.1875 33.796875 48.1875 
Q 26.515625 48.1875 22.3125 43.546875 
Q 18.109375 38.921875 18.109375 30.90625 
L 18.109375 0 
L 9.078125 0 
L 9.078125 54.6875 
L 18.109375 54.6875 
L 18.109375 46.1875 
Q 21.34375 51.125 25.703125 53.5625 
Q 30.078125 56 35.796875 56 
Q 45.21875 56 50.046875 50.171875 
Q 54.890625 44.34375 54.890625 33.015625 
z
" id="DejaVuSans-110"/>
      <path d="M 18.3125 70.21875 
L 18.3125 54.6875 
L 36.8125 54.6875 
L 36.8125 47.703125 
L 18.3125 47.703125 
L 18.3125 18.015625 
Q 18.3125 11.328125 20.140625 9.421875 
Q 21.96875 7.515625 27.59375 7.515625 
L 36.8125 7.515625 
L 36.8125 0 
L 27.59375 0 
Q 17.1875 0 13.234375 3.875 
Q 9.28125 7.765625 9.28125 18.015625 
L 9.28125 47.703125 
L 2.6875 47.703125 
L 2.6875 54.6875 
L 9.28125 54.6875 
L 9.28125 70.21875 
z
" id="DejaVuSans-116"/>
      <path d="M 41.109375 46.296875 
Q 39.59375 47.171875 37.8125 47.578125 
Q 36.03125 48 33.890625 48 
Q 26.265625 48 22.1875 43.046875 
Q 18.109375 38.09375 18.109375 28.8125 
L 18.109375 0 
L 9.078125 0 
L 9.078125 54.6875 
L 18.109375 54.6875 
L 18.109375 46.1875 
Q 20.953125 51.171875 25.484375 53.578125 
Q 30.03125 56 36.53125 56 
Q 37.453125 56 38.578125 55.875 
Q 39.703125 55.765625 41.0625 55.515625 
z
" id="DejaVuSans-114"/>
      <path d="M 34.28125 27.484375 
Q 23.390625 27.484375 19.1875 25 
Q 14.984375 22.515625 14.984375 16.5 
Q 14.984375 11.71875 18.140625 8.90625 
Q 21.296875 6.109375 26.703125 6.109375 
Q 34.1875 6.109375 38.703125 11.40625 
Q 43.21875 16.703125 43.21875 25.484375 
L 43.21875 27.484375 
z
M 52.203125 31.203125 
L 52.203125 0 
L 43.21875 0 
L 43.21875 8.296875 
Q 40.140625 3.328125 35.546875 0.953125 
Q 30.953125 -1.421875 24.3125 -1.421875 
Q 15.921875 -1.421875 10.953125 3.296875 
Q 6 8.015625 6 15.921875 
Q 6 25.140625 12.171875 29.828125 
Q 18.359375 34.515625 30.609375 34.515625 
L 43.21875 34.515625 
L 43.21875 35.40625 
Q 43.21875 41.609375 39.140625 45 
Q 35.0625 48.390625 27.6875 48.390625 
Q 23 48.390625 18.546875 47.265625 
Q 14.109375 46.140625 10.015625 43.890625 
L 10.015625 52.203125 
Q 14.9375 54.109375 19.578125 55.046875 
Q 24.21875 56 28.609375 56 
Q 40.484375 56 46.34375 49.84375 
Q 52.203125 43.703125 52.203125 31.203125 
z
" id="DejaVuSans-97"/>
      <path d="M 9.421875 54.6875 
L 18.40625 54.6875 
L 18.40625 0 
L 9.421875 0 
z
M 9.421875 75.984375 
L 18.40625 75.984375 
L 18.40625 64.59375 
L 9.421875 64.59375 
z
" id="DejaVuSans-105"/>
      <path d="M 52 44.1875 
Q 55.375 50.25 60.0625 53.125 
Q 64.75 56 71.09375 56 
Q 79.640625 56 84.28125 50.015625 
Q 88.921875 44.046875 88.921875 33.015625 
L 88.921875 0 
L 79.890625 0 
L 79.890625 32.71875 
Q 79.890625 40.578125 77.09375 44.375 
Q 74.3125 48.1875 68.609375 48.1875 
Q 61.625 48.1875 57.5625 43.546875 
Q 53.515625 38.921875 53.515625 30.90625 
L 53.515625 0 
L 44.484375 0 
L 44.484375 32.71875 
Q 44.484375 40.625 41.703125 44.40625 
Q 38.921875 48.1875 33.109375 48.1875 
Q 26.21875 48.1875 22.15625 43.53125 
Q 18.109375 38.875 18.109375 30.90625 
L 18.109375 0 
L 9.078125 0 
L 9.078125 54.6875 
L 18.109375 54.6875 
L 18.109375 46.1875 
Q 21.1875 51.21875 25.484375 53.609375 
Q 29.78125 56 35.6875 56 
Q 41.65625 56 45.828125 52.96875 
Q 50 49.953125 52 44.1875 
z
" id="DejaVuSans-109"/>
      <path id="DejaVuSans-32"/>
      <path d="M 31 75.875 
Q 24.46875 64.65625 21.28125 53.65625 
Q 18.109375 42.671875 18.109375 31.390625 
Q 18.109375 20.125 21.3125 9.0625 
Q 24.515625 -2 31 -13.1875 
L 23.1875 -13.1875 
Q 15.875 -1.703125 12.234375 9.375 
Q 8.59375 20.453125 8.59375 31.390625 
Q 8.59375 42.28125 12.203125 53.3125 
Q 15.828125 64.359375 23.1875 75.875 
z
" id="DejaVuSans-40"/>
      <path d="M 18.109375 8.203125 
L 18.109375 -20.796875 
L 9.078125 -20.796875 
L 9.078125 54.6875 
L 18.109375 54.6875 
L 18.109375 46.390625 
Q 20.953125 51.265625 25.265625 53.625 
Q 29.59375 56 35.59375 56 
Q 45.5625 56 51.78125 48.09375 
Q 58.015625 40.1875 58.015625 27.296875 
Q 58.015625 14.40625 51.78125 6.484375 
Q 45.5625 -1.421875 35.59375 -1.421875 
Q 29.59375 -1.421875 25.265625 0.953125 
Q 20.953125 3.328125 18.109375 8.203125 
z
M 48.6875 27.296875 
Q 48.6875 37.203125 44.609375 42.84375 
Q 40.53125 48.484375 33.40625 48.484375 
Q 26.265625 48.484375 22.1875 42.84375 
Q 18.109375 37.203125 18.109375 27.296875 
Q 18.109375 17.390625 22.1875 11.75 
Q 26.265625 6.109375 33.40625 6.109375 
Q 40.53125 6.109375 44.609375 11.75 
Q 48.6875 17.390625 48.6875 27.296875 
z
" id="DejaVuSans-112"/>
      <path d="M 30.609375 48.390625 
Q 23.390625 48.390625 19.1875 42.75 
Q 14.984375 37.109375 14.984375 27.296875 
Q 14.984375 17.484375 19.15625 11.84375 
Q 23.34375 6.203125 30.609375 6.203125 
Q 37.796875 6.203125 41.984375 11.859375 
Q 46.1875 17.53125 46.1875 27.296875 
Q 46.1875 37.015625 41.984375 42.703125 
Q 37.796875 48.390625 30.609375 48.390625 
z
M 30.609375 56 
Q 42.328125 56 49.015625 48.375 
Q 55.71875 40.765625 55.71875 27.296875 
Q 55.71875 13.875 49.015625 6.21875 
Q 42.328125 -1.421875 30.609375 -1.421875 
Q 18.84375 -1.421875 12.171875 6.21875 
Q 5.515625 13.875 5.515625 27.296875 
Q 5.515625 40.765625 12.171875 48.375 
Q 18.84375 56 30.609375 56 
z
" id="DejaVuSans-111"/>
      <path d="M 48.78125 52.59375 
L 48.78125 44.1875 
Q 44.96875 46.296875 41.140625 47.34375 
Q 37.3125 48.390625 33.40625 48.390625 
Q 24.65625 48.390625 19.8125 42.84375 
Q 14.984375 37.3125 14.984375 27.296875 
Q 14.984375 17.28125 19.8125 11.734375 
Q 24.65625 6.203125 33.40625 6.203125 
Q 37.3125 6.203125 41.140625 7.25 
Q 44.96875 8.296875 48.78125 10.40625 
L 48.78125 2.09375 
Q 45.015625 0.34375 40.984375 -0.53125 
Q 36.96875 -1.421875 32.421875 -1.421875 
Q 20.0625 -1.421875 12.78125 6.34375 
Q 5.515625 14.109375 5.515625 27.296875 
Q 5.515625 40.671875 12.859375 48.328125 
Q 20.21875 56 33.015625 56 
Q 37.15625 56 41.109375 55.140625 
Q 45.0625 54.296875 48.78125 52.59375 
z
" id="DejaVuSans-99"/>
      <path d="M 54.890625 33.015625 
L 54.890625 0 
L 45.90625 0 
L 45.90625 32.71875 
Q 45.90625 40.484375 42.875 44.328125 
Q 39.84375 48.1875 33.796875 48.1875 
Q 26.515625 48.1875 22.3125 43.546875 
Q 18.109375 38.921875 18.109375 30.90625 
L 18.109375 0 
L 9.078125 0 
L 9.078125 75.984375 
L 18.109375 75.984375 
L 18.109375 46.1875 
Q 21.34375 51.125 25.703125 53.5625 
Q 30.078125 56 35.796875 56 
Q 45.21875 56 50.046875 50.171875 
Q 54.890625 44.34375 54.890625 33.015625 
z
" id="DejaVuSans-104"/>
      <path d="M 8.015625 75.875 
L 15.828125 75.875 
Q 23.140625 64.359375 26.78125 53.3125 
Q 30.421875 42.28125 30.421875 31.390625 
Q 30.421875 20.453125 26.78125 9.375 
Q 23.140625 -1.703125 15.828125 -13.1875 
L 8.015625 -13.1875 
Q 14.5 -2 17.703125 9.0625 
Q 20.90625 20.125 20.90625 31.390625 
Q 20.90625 42.671875 17.703125 53.65625 
Q 14.5 64.65625 8.015625 75.875 
z
" id="DejaVuSans-41"/>
     </defs>
     <g transform="translate(325.196875 341.756875)scale(0.08 -0.08)">
      <use xlink:href="#DejaVuSans-101"/>
      <use x="61.523438" xlink:href="#DejaVuSans-110"/>
      <use x="124.902344" xlink:href="#DejaVuSans-116"/>
      <use x="164.111328" xlink:href="#DejaVuSans-114"/>
      <use x="205.224609" xlink:href="#DejaVuSans-97"/>
      <use x="266.503906" xlink:href="#DejaVuSans-105"/>
      <use x="294.287109" xlink:href="#DejaVuSans-110"/>
      <use x="357.666016" xlink:href="#DejaVuSans-101"/>
      <use x="419.189453" xlink:href="#DejaVuSans-109"/>
      <use x="516.601562" xlink:href="#DejaVuSans-101"/>
      <use x="578.125" xlink:href="#DejaVuSans-110"/>
      <use x="641.503906" xlink:href="#DejaVuSans-116"/>
      <use x="680.712891" xlink:href="#DejaVuSans-32"/>
      <use x="712.5" xlink:href="#DejaVuSans-40"/>
      <use x="751.513672" xlink:href="#DejaVuSans-101"/>
      <use x="813.037109" xlink:href="#DejaVuSans-112"/>
      <use x="876.513672" xlink:href="#DejaVuSans-111"/>
      <use x="937.695312" xlink:href="#DejaVuSans-99"/>
      <use x="992.675781" xlink:href="#DejaVuSans-104"/>
      <use x="1056.054688" xlink:href="#DejaVuSans-41"/>
     </g>
    </g>
   </g>
   <g id="matplotlib.axis_2">
    <g id="ytick_1">
     <g id="line2d_21">
      <path clip-path="url(#p5bf72447c4)" d="M 90 302.645455 
L 648 302.645455 
" style="fill:none;stroke:#e6e6e6;stroke-linecap:square;stroke-width:0.8;"/>
     </g>
     <g id="line2d_22">
      <defs>
       <path d="M 0 0 
L -3.5 0 
" id="m7225c5806e" style="stroke:#000000;stroke-width:0.8;"/>
      </defs>
      <g>
       <use style="stroke:#000000;stroke-width:0.8;" x="90" xlink:href="#m7225c5806e" y="302.645455"/>
      </g>
     </g>
     <g id="text_12">
      <!-- 0.0 -->
      <defs>
       <path d="M 10.6875 12.40625 
L 21 12.40625 
L 21 0 
L 10.6875 0 
z
" id="DejaVuSans-46"/>
      </defs>
      <g transform="translate(67.096875 306.444673)scale(0.1 -0.1)">
       <use xlink:href="#DejaVuSans-48"/>
       <use x="63.623047" xlink:href="#DejaVuSans-46"/>
       <use x="95.410156" xlink:href="#DejaVuSans-48"/>
      </g>
     </g>
    </g>
    <g id="ytick_2">
     <g id="line2d_23">
      <path clip-path="url(#p5bf72447c4)" d="M 90 275.29138 
L 648 275.29138 
" style="fill:none;stroke:#e6e6e6;stroke-linecap:square;stroke-width:0.8;"/>
     </g>
     <g id="line2d_24">
      <g>
       <use style="stroke:#000000;stroke-width:0.8;" x="90" xlink:href="#m7225c5806e" y="275.29138"/>
      </g>
     </g>
     <g id="text_13">
      <!-- 0.1 -->
      <g transform="translate(67.096875 279.090599)scale(0.1 -0.1)">
       <use xlink:href="#DejaVuSans-48"/>
       <use x="63.623047" xlink:href="#DejaVuSans-46"/>
       <use x="95.410156" xlink:href="#DejaVuSans-49"/>
      </g>
     </g>
    </g>
    <g id="ytick_3">
     <g id="line2d_25">
      <path clip-path="url(#p5bf72447c4)" d="M 90 247.937306 
L 648 247.937306 
" style="fill:none;stroke:#e6e6e6;stroke-linecap:square;stroke-width:0.8;"/>
     </g>
     <g id="line2d_26">
      <g>
       <use style="stroke:#000000;stroke-width:0.8;" x="90" xlink:href="#m7225c5806e" y="247.937306"/>
      </g>
     </g>
     <g id="text_14">
      <!-- 0.2 -->
      <g transform="translate(67.096875 251.736525)scale(0.1 -0.1)">
       <use xlink:href="#DejaVuSans-48"/>
       <use x="63.623047" xlink:href="#DejaVuSans-46"/>
       <use x="95.410156" xlink:href="#DejaVuSans-50"/>
      </g>
     </g>
    </g>
    <g id="ytick_4">
     <g id="line2d_27">
      <path clip-path="url(#p5bf72447c4)" d="M 90 220.583232 
L 648 220.583232 
" style="fill:none;stroke:#e6e6e6;stroke-linecap:square;stroke-width:0.8;"/>
     </g>
     <g id="line2d_28">
      <g>
       <use style="stroke:#000000;stroke-width:0.8;" x="90" xlink:href="#m7225c5806e" y="220.583232"/>
      </g>
     </g>
     <g id="text_15">
      <!-- 0.3 -->
      <g transform="translate(67.096875 224.38245)scale(0.1 -0.1)">
       <use xlink:href="#DejaVuSans-48"/>
       <use x="63.623047" xlink:href="#DejaVuSans-46"/>
       <use x="95.410156" xlink:href="#DejaVuSans-51"/>
      </g>
     </g>
    </g>
    <g id="ytick_5">
     <g id="line2d_29">
      <path clip-path="url(#p5bf72447c4)" d="M 90 193.229157 
L 648 193.229157 
" style="fill:none;stroke:#e6e6e6;stroke-linecap:square;stroke-width:0.8;"/>
     </g>
     <g id="line2d_30">
      <g>
       <use style="stroke:#000000;stroke-width:0.8;" x="90" xlink:href="#m7225c5806e" y="193.229157"/>
      </g>
     </g>
     <g id="text_16">
      <!-- 0.4 -->
      <g transform="translate(67.096875 197.028376)scale(0.1 -0.1)">
       <use xlink:href="#DejaVuSans-48"/>
       <use x="63.623047" xlink:href="#DejaVuSans-46"/>
       <use x="95.410156" xlink:href="#DejaVuSans-52"/>
      </g>
     </g>
    </g>
    <g id="ytick_6">
     <g id="line2d_31">
      <path clip-path="url(#p5bf72447c4)" d="M 90 165.875083 
L 648 165.875083 
" style="fill:none;stroke:#e6e6e6;stroke-linecap:square;stroke-width:0.8;"/>
     </g>
     <g id="line2d_32">
      <g>
       <use style="stroke:#000000;stroke-width:0.8;" x="90" xlink:href="#m7225c5806e" y="165.875083"/>
      </g>
     </g>
     <g id="text_17">
      <!-- 0.5 -->
      <defs>
       <path d="M 10.796875 72.90625 
L 49.515625 72.90625 
L 49.515625 64.59375 
L 19.828125 64.59375 
L 19.828125 46.734375 
Q 21.96875 47.46875 24.109375 47.828125 
Q 26.265625 48.1875 28.421875 48.1875 
Q 40.625 48.1875 47.75 41.5 
Q 54.890625 34.8125 54.890625 23.390625 
Q 54.890625 11.625 47.5625 5.09375 
Q 40.234375 -1.421875 26.90625 -1.421875 
Q 22.3125 -1.421875 17.546875 -0.640625 
Q 12.796875 0.140625 7.71875 1.703125 
L 7.71875 11.625 
Q 12.109375 9.234375 16.796875 8.0625 
Q 21.484375 6.890625 26.703125 6.890625 
Q 35.15625 6.890625 40.078125 11.328125 
Q 45.015625 15.765625 45.015625 23.390625 
Q 45.015625 31 40.078125 35.4375 
Q 35.15625 39.890625 26.703125 39.890625 
Q 22.75 39.890625 18.8125 39.015625 
Q 14.890625 38.140625 10.796875 36.28125 
z
" id="DejaVuSans-53"/>
      </defs>
      <g transform="translate(67.096875 169.674302)scale(0.1 -0.1)">
       <use xlink:href="#DejaVuSans-48"/>
       <use x="63.623047" xlink:href="#DejaVuSans-46"/>
       <use x="95.410156" xlink:href="#DejaVuSans-53"/>
      </g>
     </g>
    </g>
    <g id="ytick_7">
     <g id="line2d_33">
      <path clip-path="url(#p5bf72447c4)" d="M 90 138.521009 
L 648 138.521009 
" style="fill:none;stroke:#e6e6e6;stroke-linecap:square;stroke-width:0.8;"/>
     </g>
     <g id="line2d_34">
      <g>
       <use style="stroke:#000000;stroke-width:0.8;" x="90" xlink:href="#m7225c5806e" y="138.521009"/>
      </g>
     </g>
     <g id="text_18">
      <!-- 0.6 -->
      <g transform="translate(67.096875 142.320227)scale(0.1 -0.1)">
       <use xlink:href="#DejaVuSans-48"/>
       <use x="63.623047" xlink:href="#DejaVuSans-46"/>
       <use x="95.410156" xlink:href="#DejaVuSans-54"/>
      </g>
     </g>
    </g>
    <g id="ytick_8">
     <g id="line2d_35">
      <path clip-path="url(#p5bf72447c4)" d="M 90 111.166934 
L 648 111.166934 
" style="fill:none;stroke:#e6e6e6;stroke-linecap:square;stroke-width:0.8;"/>
     </g>
     <g id="line2d_36">
      <g>
       <use style="stroke:#000000;stroke-width:0.8;" x="90" xlink:href="#m7225c5806e" y="111.166934"/>
      </g>
     </g>
     <g id="text_19">
      <!-- 0.7 -->
      <g transform="translate(67.096875 114.966153)scale(0.1 -0.1)">
       <use xlink:href="#DejaVuSans-48"/>
       <use x="63.623047" xlink:href="#DejaVuSans-46"/>
       <use x="95.410156" xlink:href="#DejaVuSans-55"/>
      </g>
     </g>
    </g>
    <g id="ytick_9">
     <g id="line2d_37">
      <path clip-path="url(#p5bf72447c4)" d="M 90 83.81286 
L 648 83.81286 
" style="fill:none;stroke:#e6e6e6;stroke-linecap:square;stroke-width:0.8;"/>
     </g>
     <g id="line2d_38">
      <g>
       <use style="stroke:#000000;stroke-width:0.8;" x="90" xlink:href="#m7225c5806e" y="83.81286"/>
      </g>
     </g>
     <g id="text_20">
      <!-- 0.8 -->
      <g transform="translate(67.096875 87.612079)scale(0.1 -0.1)">
       <use xlink:href="#DejaVuSans-48"/>
       <use x="63.623047" xlink:href="#DejaVuSans-46"/>
       <use x="95.410156" xlink:href="#DejaVuSans-56"/>
      </g>
     </g>
    </g>
    <g id="ytick_10">
     <g id="line2d_39">
      <path clip-path="url(#p5bf72447c4)" d="M 90 56.458786 
L 648 56.458786 
" style="fill:none;stroke:#e6e6e6;stroke-linecap:square;stroke-width:0.8;"/>
     </g>
     <g id="line2d_40">
      <g>
       <use style="stroke:#000000;stroke-width:0.8;" x="90" xlink:href="#m7225c5806e" y="56.458786"/>
      </g>
     </g>
     <g id="text_21">
      <!-- 0.9 -->
      <g transform="translate(67.096875 60.258004)scale(0.1 -0.1)">
       <use xlink:href="#DejaVuSans-48"/>
       <use x="63.623047" xlink:href="#DejaVuSans-46"/>
       <use x="95.410156" xlink:href="#DejaVuSans-57"/>
      </g>
     </g>
    </g>
    <g id="text_22">
     <!-- LAS score (ratio) -->
     <defs>
      <path d="M 9.8125 72.90625 
L 19.671875 72.90625 
L 19.671875 8.296875 
L 55.171875 8.296875 
L 55.171875 0 
L 9.8125 0 
z
" id="DejaVuSans-76"/>
      <path d="M 34.1875 63.1875 
L 20.796875 26.90625 
L 47.609375 26.90625 
z
M 28.609375 72.90625 
L 39.796875 72.90625 
L 67.578125 0 
L 57.328125 0 
L 50.6875 18.703125 
L 17.828125 18.703125 
L 11.1875 0 
L 0.78125 0 
z
" id="DejaVuSans-65"/>
      <path d="M 53.515625 70.515625 
L 53.515625 60.890625 
Q 47.90625 63.578125 42.921875 64.890625 
Q 37.9375 66.21875 33.296875 66.21875 
Q 25.25 66.21875 20.875 63.09375 
Q 16.5 59.96875 16.5 54.203125 
Q 16.5 49.359375 19.40625 46.890625 
Q 22.3125 44.4375 30.421875 42.921875 
L 36.375 41.703125 
Q 47.40625 39.59375 52.65625 34.296875 
Q 57.90625 29 57.90625 20.125 
Q 57.90625 9.515625 50.796875 4.046875 
Q 43.703125 -1.421875 29.984375 -1.421875 
Q 24.8125 -1.421875 18.96875 -0.25 
Q 13.140625 0.921875 6.890625 3.21875 
L 6.890625 13.375 
Q 12.890625 10.015625 18.65625 8.296875 
Q 24.421875 6.59375 29.984375 6.59375 
Q 38.421875 6.59375 43.015625 9.90625 
Q 47.609375 13.234375 47.609375 19.390625 
Q 47.609375 24.75 44.3125 27.78125 
Q 41.015625 30.8125 33.5 32.328125 
L 27.484375 33.5 
Q 16.453125 35.6875 11.515625 40.375 
Q 6.59375 45.0625 6.59375 53.421875 
Q 6.59375 63.09375 13.40625 68.65625 
Q 20.21875 74.21875 32.171875 74.21875 
Q 37.3125 74.21875 42.625 73.28125 
Q 47.953125 72.359375 53.515625 70.515625 
z
" id="DejaVuSans-83"/>
      <path d="M 44.28125 53.078125 
L 44.28125 44.578125 
Q 40.484375 46.53125 36.375 47.5 
Q 32.28125 48.484375 27.875 48.484375 
Q 21.1875 48.484375 17.84375 46.4375 
Q 14.5 44.390625 14.5 40.28125 
Q 14.5 37.15625 16.890625 35.375 
Q 19.28125 33.59375 26.515625 31.984375 
L 29.59375 31.296875 
Q 39.15625 29.25 43.1875 25.515625 
Q 47.21875 21.78125 47.21875 15.09375 
Q 47.21875 7.46875 41.1875 3.015625 
Q 35.15625 -1.421875 24.609375 -1.421875 
Q 20.21875 -1.421875 15.453125 -0.5625 
Q 10.6875 0.296875 5.421875 2 
L 5.421875 11.28125 
Q 10.40625 8.6875 15.234375 7.390625 
Q 20.0625 6.109375 24.8125 6.109375 
Q 31.15625 6.109375 34.5625 8.28125 
Q 37.984375 10.453125 37.984375 14.40625 
Q 37.984375 18.0625 35.515625 20.015625 
Q 33.0625 21.96875 24.703125 23.78125 
L 21.578125 24.515625 
Q 13.234375 26.265625 9.515625 29.90625 
Q 5.8125 33.546875 5.8125 39.890625 
Q 5.8125 47.609375 11.28125 51.796875 
Q 16.75 56 26.8125 56 
Q 31.78125 56 36.171875 55.265625 
Q 40.578125 54.546875 44.28125 53.078125 
z
" id="DejaVuSans-115"/>
     </defs>
     <g transform="translate(61.433125 212.326875)rotate(-90)scale(0.08 -0.08)">
      <use xlink:href="#DejaVuSans-76"/>
      <use x="57.962891" xlink:href="#DejaVuSans-65"/>
      <use x="126.371094" xlink:href="#DejaVuSans-83"/>
      <use x="189.847656" xlink:href="#DejaVuSans-32"/>
      <use x="221.634766" xlink:href="#DejaVuSans-115"/>
      <use x="273.734375" xlink:href="#DejaVuSans-99"/>
      <use x="328.714844" xlink:href="#DejaVuSans-111"/>
      <use x="389.896484" xlink:href="#DejaVuSans-114"/>
      <use x="428.759766" xlink:href="#DejaVuSans-101"/>
      <use x="490.283203" xlink:href="#DejaVuSans-32"/>
      <use x="522.070312" xlink:href="#DejaVuSans-40"/>
      <use x="561.083984" xlink:href="#DejaVuSans-114"/>
      <use x="602.197266" xlink:href="#DejaVuSans-97"/>
      <use x="663.476562" xlink:href="#DejaVuSans-116"/>
      <use x="702.685547" xlink:href="#DejaVuSans-105"/>
      <use x="730.46875" xlink:href="#DejaVuSans-111"/>
      <use x="791.650391" xlink:href="#DejaVuSans-41"/>
     </g>
    </g>
   </g>
   <g id="line2d_41">
    <path clip-path="url(#p5bf72447c4)" d="M 90 236.995676 
L 94.65 232.09106 
L 99.3 231.069623 
L 103.95 228.714943 
L 108.6 225.919432 
L 113.25 223.478736 
L 117.9 221.059544 
L 122.55 219.457501 
L 127.2 218.059745 
L 131.85 216.941541 
L 136.5 216.081384 
L 141.15 215.145963 
L 145.8 214.554605 
L 150.45 214.189038 
L 155.1 213.791215 
L 159.75 213.49016 
L 164.4 213.371889 
L 169.05 213.070834 
L 173.7 213.017074 
L 178.35 212.855794 
L 183 212.823538 
L 187.65 212.716019 
L 192.3 212.44722 
L 196.95 212.436468 
L 201.6 212.3397 
L 206.25 212.328948 
L 210.9 212.275188 
L 215.55 212.199924 
L 220.2 212.146165 
L 224.85 212.113909 
L 229.5 212.092405 
L 234.15 212.049397 
L 238.8 211.974133 
L 243.45 211.995637 
L 248.1 211.984885 
L 252.75 211.995637 
L 257.4 212.113909 
L 262.05 212.178421 
L 266.7 212.113909 
L 271.35 212.038645 
L 276 212.049397 
L 280.65 212.092405 
L 285.3 212.113909 
L 289.95 212.146165 
L 294.6 212.221428 
L 299.25 212.221428 
L 303.9 212.210676 
L 308.55 212.264436 
" style="fill:none;stroke:#e41a1c;stroke-linecap:square;stroke-width:2;"/>
   </g>
   <g id="line2d_42">
    <path clip-path="url(#p5bf72447c4)" d="M 90 236.995676 
L 94.65 214.834156 
L 99.3 204.652045 
L 103.95 195.545131 
L 108.6 189.696062 
L 113.25 185.416779 
L 117.9 183.320146 
L 122.55 179.987037 
L 127.2 176.256105 
L 131.85 174.600303 
L 136.5 173.363827 
L 141.15 173.116531 
L 145.8 172.804724 
L 150.45 171.342457 
L 155.1 170.041469 
L 159.75 168.901761 
L 164.4 168.256643 
L 169.05 168.138372 
L 173.7 167.235207 
L 178.35 165.955723 
L 183 165.020302 
L 187.65 164.170897 
L 192.3 163.869841 
L 196.95 163.891345 
L 201.6 162.783893 
L 206.25 162.891413 
L 210.9 163.310739 
L 215.55 162.708629 
L 220.2 162.106519 
L 224.85 161.816216 
L 229.5 161.633433 
L 234.15 161.418393 
L 238.8 161.12809 
L 243.45 161.052827 
L 248.1 160.751772 
L 252.75 161.493657 
L 257.4 161.386138 
L 262.05 162.450582 
L 266.7 162.923669 
L 271.35 162.912917 
L 276 162.074263 
L 280.65 161.192602 
L 285.3 160.676508 
L 289.95 160.310941 
L 294.6 159.913118 
L 299.25 159.515296 
L 303.9 158.945441 
L 308.55 158.397091 
L 313.2 158.11754 
L 317.85 158.031524 
L 322.5 158.27882 
L 327.15 157.999269 
L 331.8 157.848741 
L 336.45 157.665958 
L 341.1 157.794981 
L 345.75 158.343331 
L 350.4 158.332579 
L 355.05 158.343331 
L 359.7 158.343331 
L 364.35 157.751973 
L 369 157.354151 
L 373.65 157.192871 
L 378.3 157.246631 
L 382.95 157.300391 
L 387.6 157.536934 
L 392.25 157.633702 
L 396.9 157.278887 
L 401.55 157.171367 
L 406.2 157.278887 
L 410.85 157.386407 
L 415.5 157.225127 
L 420.15 157.235879 
L 424.8 157.192871 
L 429.45 157.203623 
L 434.1 156.91332 
L 438.75 156.730537 
L 443.4 156.590761 
L 448.05 156.160683 
L 452.7 155.913387 
L 457.35 156.117675 
L 462 155.988651 
L 466.65 155.633836 
L 471.3 155.408045 
L 475.95 155.074734 
L 480.6 155.096238 
L 485.25 155.203758 
L 489.9 155.031726 
L 494.55 155.031726 
L 499.2 154.859695 
L 503.85 154.784431 
L 508.5 154.666159 
L 513.15 154.795183 
L 517.8 154.6124 
L 522.45 154.515632 
L 527.1 154.547888 
L 531.75 154.332848 
L 536.4 154.429616 
L 541.05 154.182321 
L 545.7 153.967282 
L 550.35 154.139313 
L 555 154.365104 
" style="fill:none;stroke:#377eb8;stroke-linecap:square;stroke-width:2;"/>
   </g>
   <g id="line2d_43">
    <path clip-path="url(#p5bf72447c4)" d="M 90 236.995676 
L 94.65 166.934152 
L 99.3 150.978235 
L 103.95 140.183262 
L 108.6 134.054642 
L 113.25 126.506763 
L 117.9 124.95848 
L 122.55 120.593182 
L 127.2 118.765348 
L 131.85 119.259938 
L 136.5 117.754663 
L 141.15 116.647211 
L 145.8 115.980589 
L 150.45 114.808625 
L 155.1 115.023664 
L 159.75 114.636593 
L 164.4 113.894708 
L 169.05 116.292396 
L 173.7 114.625842 
L 178.35 114.765617 
L 183 113.400117 
L 187.65 115.410735 
L 192.3 114.916145 
L 196.95 114.152755 
L 201.6 112.798007 
L 206.25 111.873338 
L 210.9 112.453945 
L 215.55 114.40005 
L 220.2 112.443193 
L 224.85 111.755067 
L 229.5 119.862048 
L 234.15 112.088378 
L 238.8 109.755201 
L 243.45 112.991543 
L 248.1 109.937985 
L 252.75 109.024068 
L 257.4 107.422025 
L 262.05 106.529612 
L 266.7 101.59446 
L 271.35 102.078298 
L 276 101.056862 
L 280.65 100.691295 
L 285.3 115.507503 
L 289.95 99.143012 
L 294.6 99.336547 
L 299.25 98.809701 
L 303.9 96.680812 
L 308.55 95.46584 
L 313.2 95.390576 
L 317.85 94.799218 
L 322.5 94.627186 
L 327.15 95.766895 
L 331.8 96.691564 
L 336.45 93.422966 
L 341.1 94.949745 
L 345.75 94.659442 
L 350.4 94.842226 
L 355.05 93.906805 
L 359.7 96.153966 
L 364.35 100.981598 
L 369 96.422765 
L 373.65 95.498096 
L 378.3 94.487411 
L 382.95 94.347635 
L 387.6 93.379959 
L 392.25 93.00364 
L 396.9 93.55199 
L 401.55 93.250935 
L 406.2 92.390778 
L 410.85 93.283191 
L 415.5 91.939195 
L 420.15 93.315447 
L 424.8 93.885301 
L 429.45 94.422899 
L 434.1 93.304695 
L 438.75 96.369005 
L 443.4 96.229229 
L 448.05 94.86373 
L 452.7 96.455021 
L 457.35 95.455088 
L 462 95.852911 
L 466.65 94.86373 
L 471.3 93.60575 
L 475.95 93.218679 
L 480.6 94.713202 
L 485.25 93.326199 
" style="fill:none;stroke:#4daf4a;stroke-linecap:square;stroke-width:2;"/>
   </g>
   <g id="line2d_44">
    <path clip-path="url(#p5bf72447c4)" d="M 90 236.995676 
L 94.65 108.884292 
L 99.3 101.755739 
L 103.95 96.186221 
L 108.6 83.896725 
L 113.25 75.994031 
L 117.9 73.273784 
L 122.55 71.144895 
L 127.2 69.940675 
L 131.85 69.542852 
L 136.5 68.650439 
L 141.15 67.241931 
L 145.8 68.069833 
L 150.45 66.295759 
L 155.1 65.81192 
L 159.75 66.57531 
L 164.4 65.736656 
L 169.05 65.897936 
L 173.7 65.199058 
L 178.35 65.123794 
L 183 63.650775 
L 187.65 65.736656 
L 192.3 65.20981 
L 196.95 64.199125 
L 201.6 64.11311 
L 206.25 66.532302 
L 210.9 64.973267 
L 215.55 65.080786 
" style="fill:none;stroke:#984ea3;stroke-linecap:square;stroke-width:2;"/>
   </g>
   <g id="line2d_45">
    <path clip-path="url(#p5bf72447c4)" d="M 90 236.995676 
L 94.65 77.617578 
L 99.3 62.779866 
L 103.95 60.532705 
L 108.6 58.156521 
L 113.25 57.887722 
L 117.9 57.070573 
L 122.55 57.457643 
L 127.2 57.393131 
L 131.85 56.952301 
L 136.5 56.027632 
L 141.15 58.898407 
L 145.8 56.941549 
L 150.45 57.371628 
L 155.1 56.360943 
L 159.75 55.834097 
L 164.4 56.651246 
L 169.05 57.081324 
L 173.7 56.705006 
L 178.35 57.82321 
L 183 56.640494 
L 187.65 57.210348 
L 192.3 56.61899 
L 196.95 56.092144 
" style="fill:none;stroke:#ff7f00;stroke-linecap:square;stroke-width:2;"/>
   </g>
   <g id="line2d_46">
    <path clip-path="url(#p5bf72447c4)" d="M 90 302.645455 
L 94.65 302.494927 
L 99.3 302.505679 
L 103.95 302.505679 
L 108.6 302.473423 
L 113.25 302.333648 
L 117.9 302.140112 
L 122.55 301.892817 
L 127.2 301.419731 
L 131.85 301.000404 
L 136.5 300.140247 
L 141.15 299.527385 
L 145.8 298.807003 
L 150.45 298.097373 
L 155.1 297.31248 
L 159.75 296.753378 
L 164.4 296.248035 
L 169.05 295.871717 
L 173.7 295.817957 
L 178.35 295.785701 
L 183 295.731941 
L 187.65 295.925476 
L 192.3 296.172772 
L 196.95 296.387811 
L 201.6 296.570594 
L 206.25 296.721122 
L 210.9 296.731874 
L 215.55 296.430819 
L 220.2 296.409315 
L 224.85 296.151268 
L 229.5 296.00074 
" style="fill:none;stroke:#e41a1c;stroke-dasharray:12.8,3.2,2,3.2;stroke-dashoffset:0;stroke-width:2;"/>
   </g>
   <g id="line2d_47">
    <path clip-path="url(#p5bf72447c4)" d="M 90 302.645455 
L 94.65 302.107856 
L 99.3 296.936161 
L 103.95 287.087361 
L 108.6 284.216586 
L 113.25 284.958472 
L 117.9 283.980043 
L 122.55 283.076878 
L 127.2 282.969358 
L 131.85 283.657484 
L 136.5 279.195419 
L 141.15 276.3569 
L 145.8 274.926889 
L 150.45 276.023589 
L 155.1 275.851558 
L 159.75 275.75479 
L 164.4 275.270951 
L 169.05 271.099189 
L 173.7 269.02406 
L 178.35 265.981254 
L 183 265.776966 
L 187.65 265.131848 
L 192.3 262.73416 
L 196.95 261.132117 
L 201.6 261.906259 
L 206.25 262.497617 
L 210.9 260.766551 
L 215.55 261.927763 
L 220.2 259.927897 
L 224.85 260.024665 
L 229.5 259.61609 
L 234.15 259.583834 
L 238.8 259.035484 
L 243.45 258.809693 
L 248.1 256.6593 
L 252.75 252.648817 
L 257.4 252.691825 
L 262.05 250.960758 
L 266.7 250.326393 
L 271.35 250.132857 
L 276 247.842689 
L 280.65 246.541701 
L 285.3 247.30509 
L 289.95 248.240511 
L 294.6 245.305225 
L 299.25 244.595595 
L 303.9 243.832206 
L 308.55 242.907537 
L 313.2 243.563407 
L 317.85 241.810836 
L 322.5 242.466706 
L 327.15 240.778648 
L 331.8 240.649624 
L 336.45 240.423833 
L 341.1 239.767963 
L 345.75 238.069152 
L 350.4 239.380892 
L 355.05 235.75748 
L 359.7 234.60702 
L 364.35 238.993821 
L 369 237.660578 
L 373.65 233.940398 
L 378.3 231.607221 
L 382.95 231.32767 
L 387.6 232.940465 
L 392.25 232.435123 
L 396.9 232.381363 
L 401.55 233.381296 
L 406.2 232.166324 
L 410.85 231.843765 
L 415.5 231.854517 
L 420.15 230.919096 
L 424.8 233.445807 
L 429.45 235.316649 
L 434.1 233.564079 
L 438.75 246.133126 
L 443.4 240.982935 
L 448.05 236.004775 
L 452.7 232.58565 
L 457.35 228.639679 
L 462 229.403069 
L 466.65 231.112631 
L 471.3 227.564483 
L 475.95 226.758085 
L 480.6 227.650498 
L 485.25 227.252676 
L 489.9 227.564483 
L 494.55 226.467782 
L 499.2 226.543046 
L 503.85 227.252676 
L 508.5 229.241789 
L 513.15 226.61831 
L 517.8 226.338759 
L 522.45 226.56455 
L 527.1 226.704325 
L 531.75 226.091463 
L 536.4 225.725896 
L 541.05 225.070027 
L 545.7 223.898062 
L 550.35 224.661452 
L 555 224.209869 
" style="fill:none;stroke:#377eb8;stroke-dasharray:12.8,3.2,2,3.2;stroke-dashoffset:0;stroke-width:2;"/>
   </g>
   <g id="line2d_48">
    <path clip-path="url(#p5bf72447c4)" d="M 90 302.645455 
L 94.65 280.249111 
L 99.3 261.992275 
L 103.95 258.067807 
L 108.6 245.197705 
L 113.25 240.896919 
L 117.9 230.650296 
L 122.55 226.500038 
L 127.2 217.683427 
L 131.85 210.114043 
L 136.5 203.265041 
L 141.15 191.921718 
L 145.8 188.137027 
L 150.45 183.642705 
L 155.1 174.987373 
L 159.75 168.374915 
L 164.4 170.643579 
L 169.05 162.052759 
L 173.7 156.644521 
L 178.35 153.590963 
L 183 149.784767 
L 187.65 148.128965 
L 192.3 146.548426 
L 196.95 143.45186 
L 201.6 142.161624 
L 206.25 138.925283 
L 210.9 142.785238 
L 215.55 140.925148 
L 220.2 137.87159 
L 224.85 136.495338 
L 229.5 134.248178 
L 234.15 138.731747 
L 238.8 133.699828 
L 243.45 131.044092 
L 248.1 131.183868 
L 252.75 129.646337 
L 257.4 131.882745 
L 262.05 127.96903 
L 266.7 129.399042 
L 271.35 126.1627 
L 276 126.442251 
L 280.65 125.958413 
L 285.3 123.076886 
L 289.95 125.872397 
L 294.6 131.678458 
L 299.25 125.388559 
L 303.9 127.001353 
L 308.55 129.82912 
L 313.2 124.066067 
L 317.85 121.517851 
L 322.5 120.947997 
L 327.15 121.614619 
L 331.8 121.517851 
L 336.45 119.657761 
L 341.1 120.851229 
L 345.75 119.507234 
L 350.4 121.474843 
L 355.05 123.786516 
L 359.7 121.120028 
L 364.35 120.52867 
L 369 119.141667 
L 373.65 117.561128 
L 378.3 117.528872 
L 382.95 120.259871 
L 387.6 116.485931 
L 392.25 116.42142 
L 396.9 118.313766 
L 401.55 117.969703 
L 406.2 119.163171 
L 410.85 120.238367 
L 415.5 118.324517 
L 420.15 131.74297 
L 424.8 124.582161 
L 429.45 123.625236 
L 434.1 120.485662 
L 438.75 122.335 
" style="fill:none;stroke:#4daf4a;stroke-dasharray:12.8,3.2,2,3.2;stroke-dashoffset:0;stroke-width:2;"/>
   </g>
   <g id="line2d_49">
    <path clip-path="url(#p5bf72447c4)" d="M 90 302.645455 
L 94.65 203.25429 
L 99.3 154.150065 
L 103.95 117.528872 
L 108.6 100.917086 
L 113.25 92.251002 
L 117.9 88.014728 
L 122.55 82.55273 
L 127.2 79.047589 
L 131.85 77.875625 
L 136.5 77.800361 
L 141.15 76.596141 
L 145.8 73.703862 
L 150.45 73.177016 
L 155.1 71.9943 
L 159.75 69.306309 
L 164.4 71.747005 
L 169.05 70.596545 
L 173.7 70.435265 
L 178.35 69.779395 
L 183 68.499911 
L 187.65 69.489092 
L 192.3 69.575108 
L 196.95 68.026825 
L 201.6 66.768845 
L 206.25 70.585793 
L 210.9 66.682829 
L 215.55 69.155781 
L 220.2 68.908486 
L 224.85 68.177352 
L 229.5 70.123458 
L 234.15 69.661124 
L 238.8 68.98375 
L 243.45 66.887117 
L 248.1 67.284939 
L 252.75 66.510798 
L 257.4 67.392459 
L 262.05 66.930124 
L 266.7 67.091404 
L 271.35 66.811853 
L 276 68.424648 
L 280.65 67.930057 
L 285.3 68.32788 
L 289.95 72.037308 
L 294.6 66.725837 
L 299.25 68.596679 
" style="fill:none;stroke:#984ea3;stroke-dasharray:12.8,3.2,2,3.2;stroke-dashoffset:0;stroke-width:2;"/>
   </g>
   <g id="line2d_50">
    <path clip-path="url(#p5bf72447c4)" d="M 90 302.645455 
L 94.65 92.584313 
L 99.3 72.961977 
L 103.95 64.123862 
L 108.6 64.263637 
L 113.25 59.876835 
L 117.9 61.210079 
L 122.55 60.134883 
L 127.2 57.919978 
L 131.85 56.446959 
L 136.5 56.930797 
L 141.15 56.758766 
L 145.8 57.672683 
L 150.45 56.866285 
L 155.1 56.285679 
L 159.75 57.317868 
L 164.4 57.081324 
L 169.05 55.995376 
L 173.7 58.167273 
L 178.35 56.67275 
L 183 56.543726 
L 187.65 55.554545 
L 192.3 57.242604 
L 196.95 56.317935 
L 201.6 57.253356 
" style="fill:none;stroke:#ff7f00;stroke-dasharray:12.8,3.2,2,3.2;stroke-dashoffset:0;stroke-width:2;"/>
   </g>
   <g id="text_23">
    <!-- Effet du pré-entraînement en fonction de la taille du corpus d'adaptation -->
    <defs>
     <path d="M 9.8125 72.90625 
L 55.90625 72.90625 
L 55.90625 64.59375 
L 19.671875 64.59375 
L 19.671875 43.015625 
L 54.390625 43.015625 
L 54.390625 34.71875 
L 19.671875 34.71875 
L 19.671875 8.296875 
L 56.78125 8.296875 
L 56.78125 0 
L 9.8125 0 
z
" id="DejaVuSans-69"/>
     <path d="M 37.109375 75.984375 
L 37.109375 68.5 
L 28.515625 68.5 
Q 23.6875 68.5 21.796875 66.546875 
Q 19.921875 64.59375 19.921875 59.515625 
L 19.921875 54.6875 
L 34.71875 54.6875 
L 34.71875 47.703125 
L 19.921875 47.703125 
L 19.921875 0 
L 10.890625 0 
L 10.890625 47.703125 
L 2.296875 47.703125 
L 2.296875 54.6875 
L 10.890625 54.6875 
L 10.890625 58.5 
Q 10.890625 67.625 15.140625 71.796875 
Q 19.390625 75.984375 28.609375 75.984375 
z
" id="DejaVuSans-102"/>
     <path d="M 45.40625 46.390625 
L 45.40625 75.984375 
L 54.390625 75.984375 
L 54.390625 0 
L 45.40625 0 
L 45.40625 8.203125 
Q 42.578125 3.328125 38.25 0.953125 
Q 33.9375 -1.421875 27.875 -1.421875 
Q 17.96875 -1.421875 11.734375 6.484375 
Q 5.515625 14.40625 5.515625 27.296875 
Q 5.515625 40.1875 11.734375 48.09375 
Q 17.96875 56 27.875 56 
Q 33.9375 56 38.25 53.625 
Q 42.578125 51.265625 45.40625 46.390625 
z
M 14.796875 27.296875 
Q 14.796875 17.390625 18.875 11.75 
Q 22.953125 6.109375 30.078125 6.109375 
Q 37.203125 6.109375 41.296875 11.75 
Q 45.40625 17.390625 45.40625 27.296875 
Q 45.40625 37.203125 41.296875 42.84375 
Q 37.203125 48.484375 30.078125 48.484375 
Q 22.953125 48.484375 18.875 42.84375 
Q 14.796875 37.203125 14.796875 27.296875 
z
" id="DejaVuSans-100"/>
     <path d="M 8.5 21.578125 
L 8.5 54.6875 
L 17.484375 54.6875 
L 17.484375 21.921875 
Q 17.484375 14.15625 20.5 10.265625 
Q 23.53125 6.390625 29.59375 6.390625 
Q 36.859375 6.390625 41.078125 11.03125 
Q 45.3125 15.671875 45.3125 23.6875 
L 45.3125 54.6875 
L 54.296875 54.6875 
L 54.296875 0 
L 45.3125 0 
L 45.3125 8.40625 
Q 42.046875 3.421875 37.71875 1 
Q 33.40625 -1.421875 27.6875 -1.421875 
Q 18.265625 -1.421875 13.375 4.4375 
Q 8.5 10.296875 8.5 21.578125 
z
M 31.109375 56 
z
" id="DejaVuSans-117"/>
     <path d="M 56.203125 29.59375 
L 56.203125 25.203125 
L 14.890625 25.203125 
Q 15.484375 15.921875 20.484375 11.0625 
Q 25.484375 6.203125 34.421875 6.203125 
Q 39.59375 6.203125 44.453125 7.46875 
Q 49.3125 8.734375 54.109375 11.28125 
L 54.109375 2.78125 
Q 49.265625 0.734375 44.1875 -0.34375 
Q 39.109375 -1.421875 33.890625 -1.421875 
Q 20.796875 -1.421875 13.15625 6.1875 
Q 5.515625 13.8125 5.515625 26.8125 
Q 5.515625 40.234375 12.765625 48.109375 
Q 20.015625 56 32.328125 56 
Q 43.359375 56 49.78125 48.890625 
Q 56.203125 41.796875 56.203125 29.59375 
z
M 47.21875 32.234375 
Q 47.125 39.59375 43.09375 43.984375 
Q 39.0625 48.390625 32.421875 48.390625 
Q 24.90625 48.390625 20.390625 44.140625 
Q 15.875 39.890625 15.1875 32.171875 
z
M 38.53125 79.984375 
L 48.25 79.984375 
L 32.34375 61.625 
L 24.859375 61.625 
z
" id="DejaVuSans-233"/>
     <path d="M 4.890625 31.390625 
L 31.203125 31.390625 
L 31.203125 23.390625 
L 4.890625 23.390625 
z
" id="DejaVuSans-45"/>
     <path d="M 9.421875 54.6875 
L 18.40625 54.6875 
L 18.40625 0 
L 9.421875 0 
z
M 13.921875 56 
z
M 10.265625 79.984375 
L 17.484375 79.984375 
L 29.453125 61.625 
L 22.671875 61.625 
L 13.875 73.578125 
L 5.09375 61.625 
L -1.703125 61.625 
z
" id="DejaVuSans-238"/>
     <path d="M 9.421875 75.984375 
L 18.40625 75.984375 
L 18.40625 0 
L 9.421875 0 
z
" id="DejaVuSans-108"/>
     <path d="M 17.921875 72.90625 
L 17.921875 45.796875 
L 9.625 45.796875 
L 9.625 72.90625 
z
" id="DejaVuSans-39"/>
    </defs>
    <g transform="translate(150.244687 37.2)scale(0.12 -0.12)">
     <use xlink:href="#DejaVuSans-69"/>
     <use x="63.183594" xlink:href="#DejaVuSans-102"/>
     <use x="98.388672" xlink:href="#DejaVuSans-102"/>
     <use x="133.59375" xlink:href="#DejaVuSans-101"/>
     <use x="195.117188" xlink:href="#DejaVuSans-116"/>
     <use x="234.326172" xlink:href="#DejaVuSans-32"/>
     <use x="266.113281" xlink:href="#DejaVuSans-100"/>
     <use x="329.589844" xlink:href="#DejaVuSans-117"/>
     <use x="392.96875" xlink:href="#DejaVuSans-32"/>
     <use x="424.755859" xlink:href="#DejaVuSans-112"/>
     <use x="488.232422" xlink:href="#DejaVuSans-114"/>
     <use x="527.095703" xlink:href="#DejaVuSans-233"/>
     <use x="588.619141" xlink:href="#DejaVuSans-45"/>
     <use x="624.703125" xlink:href="#DejaVuSans-101"/>
     <use x="686.226562" xlink:href="#DejaVuSans-110"/>
     <use x="749.605469" xlink:href="#DejaVuSans-116"/>
     <use x="788.814453" xlink:href="#DejaVuSans-114"/>
     <use x="829.927734" xlink:href="#DejaVuSans-97"/>
     <use x="891.207031" xlink:href="#DejaVuSans-238"/>
     <use x="918.990234" xlink:href="#DejaVuSans-110"/>
     <use x="982.369141" xlink:href="#DejaVuSans-101"/>
     <use x="1043.892578" xlink:href="#DejaVuSans-109"/>
     <use x="1141.304688" xlink:href="#DejaVuSans-101"/>
     <use x="1202.828125" xlink:href="#DejaVuSans-110"/>
     <use x="1266.207031" xlink:href="#DejaVuSans-116"/>
     <use x="1305.416016" xlink:href="#DejaVuSans-32"/>
     <use x="1337.203125" xlink:href="#DejaVuSans-101"/>
     <use x="1398.726562" xlink:href="#DejaVuSans-110"/>
     <use x="1462.105469" xlink:href="#DejaVuSans-32"/>
     <use x="1493.892578" xlink:href="#DejaVuSans-102"/>
     <use x="1529.097656" xlink:href="#DejaVuSans-111"/>
     <use x="1590.279297" xlink:href="#DejaVuSans-110"/>
     <use x="1653.658203" xlink:href="#DejaVuSans-99"/>
     <use x="1708.638672" xlink:href="#DejaVuSans-116"/>
     <use x="1747.847656" xlink:href="#DejaVuSans-105"/>
     <use x="1775.630859" xlink:href="#DejaVuSans-111"/>
     <use x="1836.8125" xlink:href="#DejaVuSans-110"/>
     <use x="1900.191406" xlink:href="#DejaVuSans-32"/>
     <use x="1931.978516" xlink:href="#DejaVuSans-100"/>
     <use x="1995.455078" xlink:href="#DejaVuSans-101"/>
     <use x="2056.978516" xlink:href="#DejaVuSans-32"/>
     <use x="2088.765625" xlink:href="#DejaVuSans-108"/>
     <use x="2116.548828" xlink:href="#DejaVuSans-97"/>
     <use x="2177.828125" xlink:href="#DejaVuSans-32"/>
     <use x="2209.615234" xlink:href="#DejaVuSans-116"/>
     <use x="2248.824219" xlink:href="#DejaVuSans-97"/>
     <use x="2310.103516" xlink:href="#DejaVuSans-105"/>
     <use x="2337.886719" xlink:href="#DejaVuSans-108"/>
     <use x="2365.669922" xlink:href="#DejaVuSans-108"/>
     <use x="2393.453125" xlink:href="#DejaVuSans-101"/>
     <use x="2454.976562" xlink:href="#DejaVuSans-32"/>
     <use x="2486.763672" xlink:href="#DejaVuSans-100"/>
     <use x="2550.240234" xlink:href="#DejaVuSans-117"/>
     <use x="2613.619141" xlink:href="#DejaVuSans-32"/>
     <use x="2645.40625" xlink:href="#DejaVuSans-99"/>
     <use x="2700.386719" xlink:href="#DejaVuSans-111"/>
     <use x="2761.568359" xlink:href="#DejaVuSans-114"/>
     <use x="2802.681641" xlink:href="#DejaVuSans-112"/>
     <use x="2866.158203" xlink:href="#DejaVuSans-117"/>
     <use x="2929.537109" xlink:href="#DejaVuSans-115"/>
     <use x="2981.636719" xlink:href="#DejaVuSans-32"/>
     <use x="3013.423828" xlink:href="#DejaVuSans-100"/>
     <use x="3076.900391" xlink:href="#DejaVuSans-39"/>
     <use x="3104.390625" xlink:href="#DejaVuSans-97"/>
     <use x="3165.669922" xlink:href="#DejaVuSans-100"/>
     <use x="3229.146484" xlink:href="#DejaVuSans-97"/>
     <use x="3290.425781" xlink:href="#DejaVuSans-112"/>
     <use x="3353.902344" xlink:href="#DejaVuSans-116"/>
     <use x="3393.111328" xlink:href="#DejaVuSans-97"/>
     <use x="3454.390625" xlink:href="#DejaVuSans-116"/>
     <use x="3493.599609" xlink:href="#DejaVuSans-105"/>
     <use x="3521.382812" xlink:href="#DejaVuSans-111"/>
     <use x="3582.564453" xlink:href="#DejaVuSans-110"/>
    </g>
   </g>
  </g>
 </g>
 <defs>
  <clipPath id="p5bf72447c4">
   <rect height="271.8" width="558" x="90" y="43.2"/>
  </clipPath>
 </defs>
</svg>
