<?xml version="1.0" encoding="utf-8" standalone="no"?>
<!DOCTYPE svg PUBLIC "-//W3C//DTD SVG 1.1//EN"
  "http://www.w3.org/Graphics/SVG/1.1/DTD/svg11.dtd">
<!-- Created with matplotlib (https://matplotlib.org/) -->
<svg height="576pt" version="1.1" viewBox="0 0 864 576" width="864pt" xmlns="http://www.w3.org/2000/svg" xmlns:xlink="http://www.w3.org/1999/xlink">
 <defs>
  <style type="text/css">
*{stroke-linecap:butt;stroke-linejoin:round;}
  </style>
 </defs>
 <g id="figure_1">
  <g id="patch_1">
   <path d="M 0 576 
L 864 576 
L 864 0 
L 0 0 
z
" style="fill:#ffffff;"/>
  </g>
  <g id="axes_1">
   <g id="patch_2">
    <path d="M 108 504 
L 777.6 504 
L 777.6 69.12 
L 108 69.12 
z
" style="fill:#eaeaf2;"/>
   </g>
   <g id="matplotlib.axis_1">
    <g id="xtick_1">
     <g id="line2d_1">
      <path clip-path="url(#pbdb5806992)" d="M 160.863158 504 
L 160.863158 69.12 
" style="fill:none;stroke:#ffffff;stroke-linecap:round;"/>
     </g>
     <g id="text_1">
      <!-- 10 -->
      <defs>
       <path d="M 12.40625 8.296875 
L 28.515625 8.296875 
L 28.515625 63.921875 
L 10.984375 60.40625 
L 10.984375 69.390625 
L 28.421875 72.90625 
L 38.28125 72.90625 
L 38.28125 8.296875 
L 54.390625 8.296875 
L 54.390625 0 
L 12.40625 0 
z
" id="DejaVuSans-49"/>
       <path d="M 31.78125 66.40625 
Q 24.171875 66.40625 20.328125 58.90625 
Q 16.5 51.421875 16.5 36.375 
Q 16.5 21.390625 20.328125 13.890625 
Q 24.171875 6.390625 31.78125 6.390625 
Q 39.453125 6.390625 43.28125 13.890625 
Q 47.125 21.390625 47.125 36.375 
Q 47.125 51.421875 43.28125 58.90625 
Q 39.453125 66.40625 31.78125 66.40625 
z
M 31.78125 74.21875 
Q 44.046875 74.21875 50.515625 64.515625 
Q 56.984375 54.828125 56.984375 36.375 
Q 56.984375 17.96875 50.515625 8.265625 
Q 44.046875 -1.421875 31.78125 -1.421875 
Q 19.53125 -1.421875 13.0625 8.265625 
Q 6.59375 17.96875 6.59375 36.375 
Q 6.59375 54.828125 13.0625 64.515625 
Q 19.53125 74.21875 31.78125 74.21875 
z
" id="DejaVuSans-48"/>
      </defs>
      <g style="fill:#262626;" transform="translate(154.500658 521.098438)scale(0.1 -0.1)">
       <use xlink:href="#DejaVuSans-49"/>
       <use x="63.623047" xlink:href="#DejaVuSans-48"/>
      </g>
     </g>
    </g>
    <g id="xtick_2">
     <g id="line2d_2">
      <path clip-path="url(#pbdb5806992)" d="M 248.968421 504 
L 248.968421 69.12 
" style="fill:none;stroke:#ffffff;stroke-linecap:round;"/>
     </g>
     <g id="text_2">
      <!-- 20 -->
      <defs>
       <path d="M 19.1875 8.296875 
L 53.609375 8.296875 
L 53.609375 0 
L 7.328125 0 
L 7.328125 8.296875 
Q 12.9375 14.109375 22.625 23.890625 
Q 32.328125 33.6875 34.8125 36.53125 
Q 39.546875 41.84375 41.421875 45.53125 
Q 43.3125 49.21875 43.3125 52.78125 
Q 43.3125 58.59375 39.234375 62.25 
Q 35.15625 65.921875 28.609375 65.921875 
Q 23.96875 65.921875 18.8125 64.3125 
Q 13.671875 62.703125 7.8125 59.421875 
L 7.8125 69.390625 
Q 13.765625 71.78125 18.9375 73 
Q 24.125 74.21875 28.421875 74.21875 
Q 39.75 74.21875 46.484375 68.546875 
Q 53.21875 62.890625 53.21875 53.421875 
Q 53.21875 48.921875 51.53125 44.890625 
Q 49.859375 40.875 45.40625 35.40625 
Q 44.1875 33.984375 37.640625 27.21875 
Q 31.109375 20.453125 19.1875 8.296875 
z
" id="DejaVuSans-50"/>
      </defs>
      <g style="fill:#262626;" transform="translate(242.605921 521.098438)scale(0.1 -0.1)">
       <use xlink:href="#DejaVuSans-50"/>
       <use x="63.623047" xlink:href="#DejaVuSans-48"/>
      </g>
     </g>
    </g>
    <g id="xtick_3">
     <g id="line2d_3">
      <path clip-path="url(#pbdb5806992)" d="M 337.073684 504 
L 337.073684 69.12 
" style="fill:none;stroke:#ffffff;stroke-linecap:round;"/>
     </g>
     <g id="text_3">
      <!-- 30 -->
      <defs>
       <path d="M 40.578125 39.3125 
Q 47.65625 37.796875 51.625 33 
Q 55.609375 28.21875 55.609375 21.1875 
Q 55.609375 10.40625 48.1875 4.484375 
Q 40.765625 -1.421875 27.09375 -1.421875 
Q 22.515625 -1.421875 17.65625 -0.515625 
Q 12.796875 0.390625 7.625 2.203125 
L 7.625 11.71875 
Q 11.71875 9.328125 16.59375 8.109375 
Q 21.484375 6.890625 26.8125 6.890625 
Q 36.078125 6.890625 40.9375 10.546875 
Q 45.796875 14.203125 45.796875 21.1875 
Q 45.796875 27.640625 41.28125 31.265625 
Q 36.765625 34.90625 28.71875 34.90625 
L 20.21875 34.90625 
L 20.21875 43.015625 
L 29.109375 43.015625 
Q 36.375 43.015625 40.234375 45.921875 
Q 44.09375 48.828125 44.09375 54.296875 
Q 44.09375 59.90625 40.109375 62.90625 
Q 36.140625 65.921875 28.71875 65.921875 
Q 24.65625 65.921875 20.015625 65.03125 
Q 15.375 64.15625 9.8125 62.3125 
L 9.8125 71.09375 
Q 15.4375 72.65625 20.34375 73.4375 
Q 25.25 74.21875 29.59375 74.21875 
Q 40.828125 74.21875 47.359375 69.109375 
Q 53.90625 64.015625 53.90625 55.328125 
Q 53.90625 49.265625 50.4375 45.09375 
Q 46.96875 40.921875 40.578125 39.3125 
z
" id="DejaVuSans-51"/>
      </defs>
      <g style="fill:#262626;" transform="translate(330.711184 521.098438)scale(0.1 -0.1)">
       <use xlink:href="#DejaVuSans-51"/>
       <use x="63.623047" xlink:href="#DejaVuSans-48"/>
      </g>
     </g>
    </g>
    <g id="xtick_4">
     <g id="line2d_4">
      <path clip-path="url(#pbdb5806992)" d="M 425.178947 504 
L 425.178947 69.12 
" style="fill:none;stroke:#ffffff;stroke-linecap:round;"/>
     </g>
     <g id="text_4">
      <!-- 40 -->
      <defs>
       <path d="M 37.796875 64.3125 
L 12.890625 25.390625 
L 37.796875 25.390625 
z
M 35.203125 72.90625 
L 47.609375 72.90625 
L 47.609375 25.390625 
L 58.015625 25.390625 
L 58.015625 17.1875 
L 47.609375 17.1875 
L 47.609375 0 
L 37.796875 0 
L 37.796875 17.1875 
L 4.890625 17.1875 
L 4.890625 26.703125 
z
" id="DejaVuSans-52"/>
      </defs>
      <g style="fill:#262626;" transform="translate(418.816447 521.098438)scale(0.1 -0.1)">
       <use xlink:href="#DejaVuSans-52"/>
       <use x="63.623047" xlink:href="#DejaVuSans-48"/>
      </g>
     </g>
    </g>
    <g id="xtick_5">
     <g id="line2d_5">
      <path clip-path="url(#pbdb5806992)" d="M 513.284211 504 
L 513.284211 69.12 
" style="fill:none;stroke:#ffffff;stroke-linecap:round;"/>
     </g>
     <g id="text_5">
      <!-- 50 -->
      <defs>
       <path d="M 10.796875 72.90625 
L 49.515625 72.90625 
L 49.515625 64.59375 
L 19.828125 64.59375 
L 19.828125 46.734375 
Q 21.96875 47.46875 24.109375 47.828125 
Q 26.265625 48.1875 28.421875 48.1875 
Q 40.625 48.1875 47.75 41.5 
Q 54.890625 34.8125 54.890625 23.390625 
Q 54.890625 11.625 47.5625 5.09375 
Q 40.234375 -1.421875 26.90625 -1.421875 
Q 22.3125 -1.421875 17.546875 -0.640625 
Q 12.796875 0.140625 7.71875 1.703125 
L 7.71875 11.625 
Q 12.109375 9.234375 16.796875 8.0625 
Q 21.484375 6.890625 26.703125 6.890625 
Q 35.15625 6.890625 40.078125 11.328125 
Q 45.015625 15.765625 45.015625 23.390625 
Q 45.015625 31 40.078125 35.4375 
Q 35.15625 39.890625 26.703125 39.890625 
Q 22.75 39.890625 18.8125 39.015625 
Q 14.890625 38.140625 10.796875 36.28125 
z
" id="DejaVuSans-53"/>
      </defs>
      <g style="fill:#262626;" transform="translate(506.921711 521.098438)scale(0.1 -0.1)">
       <use xlink:href="#DejaVuSans-53"/>
       <use x="63.623047" xlink:href="#DejaVuSans-48"/>
      </g>
     </g>
    </g>
    <g id="xtick_6">
     <g id="line2d_6">
      <path clip-path="url(#pbdb5806992)" d="M 601.389474 504 
L 601.389474 69.12 
" style="fill:none;stroke:#ffffff;stroke-linecap:round;"/>
     </g>
     <g id="text_6">
      <!-- 60 -->
      <defs>
       <path d="M 33.015625 40.375 
Q 26.375 40.375 22.484375 35.828125 
Q 18.609375 31.296875 18.609375 23.390625 
Q 18.609375 15.53125 22.484375 10.953125 
Q 26.375 6.390625 33.015625 6.390625 
Q 39.65625 6.390625 43.53125 10.953125 
Q 47.40625 15.53125 47.40625 23.390625 
Q 47.40625 31.296875 43.53125 35.828125 
Q 39.65625 40.375 33.015625 40.375 
z
M 52.59375 71.296875 
L 52.59375 62.3125 
Q 48.875 64.0625 45.09375 64.984375 
Q 41.3125 65.921875 37.59375 65.921875 
Q 27.828125 65.921875 22.671875 59.328125 
Q 17.53125 52.734375 16.796875 39.40625 
Q 19.671875 43.65625 24.015625 45.921875 
Q 28.375 48.1875 33.59375 48.1875 
Q 44.578125 48.1875 50.953125 41.515625 
Q 57.328125 34.859375 57.328125 23.390625 
Q 57.328125 12.15625 50.6875 5.359375 
Q 44.046875 -1.421875 33.015625 -1.421875 
Q 20.359375 -1.421875 13.671875 8.265625 
Q 6.984375 17.96875 6.984375 36.375 
Q 6.984375 53.65625 15.1875 63.9375 
Q 23.390625 74.21875 37.203125 74.21875 
Q 40.921875 74.21875 44.703125 73.484375 
Q 48.484375 72.75 52.59375 71.296875 
z
" id="DejaVuSans-54"/>
      </defs>
      <g style="fill:#262626;" transform="translate(595.026974 521.098438)scale(0.1 -0.1)">
       <use xlink:href="#DejaVuSans-54"/>
       <use x="63.623047" xlink:href="#DejaVuSans-48"/>
      </g>
     </g>
    </g>
    <g id="xtick_7">
     <g id="line2d_7">
      <path clip-path="url(#pbdb5806992)" d="M 689.494737 504 
L 689.494737 69.12 
" style="fill:none;stroke:#ffffff;stroke-linecap:round;"/>
     </g>
     <g id="text_7">
      <!-- 70 -->
      <defs>
       <path d="M 8.203125 72.90625 
L 55.078125 72.90625 
L 55.078125 68.703125 
L 28.609375 0 
L 18.3125 0 
L 43.21875 64.59375 
L 8.203125 64.59375 
z
" id="DejaVuSans-55"/>
      </defs>
      <g style="fill:#262626;" transform="translate(683.132237 521.098438)scale(0.1 -0.1)">
       <use xlink:href="#DejaVuSans-55"/>
       <use x="63.623047" xlink:href="#DejaVuSans-48"/>
      </g>
     </g>
    </g>
    <g id="xtick_8">
     <g id="line2d_8">
      <path clip-path="url(#pbdb5806992)" d="M 777.6 504 
L 777.6 69.12 
" style="fill:none;stroke:#ffffff;stroke-linecap:round;"/>
     </g>
     <g id="text_8">
      <!-- 80 -->
      <defs>
       <path d="M 31.78125 34.625 
Q 24.75 34.625 20.71875 30.859375 
Q 16.703125 27.09375 16.703125 20.515625 
Q 16.703125 13.921875 20.71875 10.15625 
Q 24.75 6.390625 31.78125 6.390625 
Q 38.8125 6.390625 42.859375 10.171875 
Q 46.921875 13.96875 46.921875 20.515625 
Q 46.921875 27.09375 42.890625 30.859375 
Q 38.875 34.625 31.78125 34.625 
z
M 21.921875 38.8125 
Q 15.578125 40.375 12.03125 44.71875 
Q 8.5 49.078125 8.5 55.328125 
Q 8.5 64.0625 14.71875 69.140625 
Q 20.953125 74.21875 31.78125 74.21875 
Q 42.671875 74.21875 48.875 69.140625 
Q 55.078125 64.0625 55.078125 55.328125 
Q 55.078125 49.078125 51.53125 44.71875 
Q 48 40.375 41.703125 38.8125 
Q 48.828125 37.15625 52.796875 32.3125 
Q 56.78125 27.484375 56.78125 20.515625 
Q 56.78125 9.90625 50.3125 4.234375 
Q 43.84375 -1.421875 31.78125 -1.421875 
Q 19.734375 -1.421875 13.25 4.234375 
Q 6.78125 9.90625 6.78125 20.515625 
Q 6.78125 27.484375 10.78125 32.3125 
Q 14.796875 37.15625 21.921875 38.8125 
z
M 18.3125 54.390625 
Q 18.3125 48.734375 21.84375 45.5625 
Q 25.390625 42.390625 31.78125 42.390625 
Q 38.140625 42.390625 41.71875 45.5625 
Q 45.3125 48.734375 45.3125 54.390625 
Q 45.3125 60.0625 41.71875 63.234375 
Q 38.140625 66.40625 31.78125 66.40625 
Q 25.390625 66.40625 21.84375 63.234375 
Q 18.3125 60.0625 18.3125 54.390625 
z
" id="DejaVuSans-56"/>
      </defs>
      <g style="fill:#262626;" transform="translate(771.2375 521.098438)scale(0.1 -0.1)">
       <use xlink:href="#DejaVuSans-56"/>
       <use x="63.623047" xlink:href="#DejaVuSans-48"/>
      </g>
     </g>
    </g>
    <g id="text_9">
     <!-- taille de la phrase -->
     <defs>
      <path d="M 18.3125 70.21875 
L 18.3125 54.6875 
L 36.8125 54.6875 
L 36.8125 47.703125 
L 18.3125 47.703125 
L 18.3125 18.015625 
Q 18.3125 11.328125 20.140625 9.421875 
Q 21.96875 7.515625 27.59375 7.515625 
L 36.8125 7.515625 
L 36.8125 0 
L 27.59375 0 
Q 17.1875 0 13.234375 3.875 
Q 9.28125 7.765625 9.28125 18.015625 
L 9.28125 47.703125 
L 2.6875 47.703125 
L 2.6875 54.6875 
L 9.28125 54.6875 
L 9.28125 70.21875 
z
" id="DejaVuSans-116"/>
      <path d="M 34.28125 27.484375 
Q 23.390625 27.484375 19.1875 25 
Q 14.984375 22.515625 14.984375 16.5 
Q 14.984375 11.71875 18.140625 8.90625 
Q 21.296875 6.109375 26.703125 6.109375 
Q 34.1875 6.109375 38.703125 11.40625 
Q 43.21875 16.703125 43.21875 25.484375 
L 43.21875 27.484375 
z
M 52.203125 31.203125 
L 52.203125 0 
L 43.21875 0 
L 43.21875 8.296875 
Q 40.140625 3.328125 35.546875 0.953125 
Q 30.953125 -1.421875 24.3125 -1.421875 
Q 15.921875 -1.421875 10.953125 3.296875 
Q 6 8.015625 6 15.921875 
Q 6 25.140625 12.171875 29.828125 
Q 18.359375 34.515625 30.609375 34.515625 
L 43.21875 34.515625 
L 43.21875 35.40625 
Q 43.21875 41.609375 39.140625 45 
Q 35.0625 48.390625 27.6875 48.390625 
Q 23 48.390625 18.546875 47.265625 
Q 14.109375 46.140625 10.015625 43.890625 
L 10.015625 52.203125 
Q 14.9375 54.109375 19.578125 55.046875 
Q 24.21875 56 28.609375 56 
Q 40.484375 56 46.34375 49.84375 
Q 52.203125 43.703125 52.203125 31.203125 
z
" id="DejaVuSans-97"/>
      <path d="M 9.421875 54.6875 
L 18.40625 54.6875 
L 18.40625 0 
L 9.421875 0 
z
M 9.421875 75.984375 
L 18.40625 75.984375 
L 18.40625 64.59375 
L 9.421875 64.59375 
z
" id="DejaVuSans-105"/>
      <path d="M 9.421875 75.984375 
L 18.40625 75.984375 
L 18.40625 0 
L 9.421875 0 
z
" id="DejaVuSans-108"/>
      <path d="M 56.203125 29.59375 
L 56.203125 25.203125 
L 14.890625 25.203125 
Q 15.484375 15.921875 20.484375 11.0625 
Q 25.484375 6.203125 34.421875 6.203125 
Q 39.59375 6.203125 44.453125 7.46875 
Q 49.3125 8.734375 54.109375 11.28125 
L 54.109375 2.78125 
Q 49.265625 0.734375 44.1875 -0.34375 
Q 39.109375 -1.421875 33.890625 -1.421875 
Q 20.796875 -1.421875 13.15625 6.1875 
Q 5.515625 13.8125 5.515625 26.8125 
Q 5.515625 40.234375 12.765625 48.109375 
Q 20.015625 56 32.328125 56 
Q 43.359375 56 49.78125 48.890625 
Q 56.203125 41.796875 56.203125 29.59375 
z
M 47.21875 32.234375 
Q 47.125 39.59375 43.09375 43.984375 
Q 39.0625 48.390625 32.421875 48.390625 
Q 24.90625 48.390625 20.390625 44.140625 
Q 15.875 39.890625 15.1875 32.171875 
z
" id="DejaVuSans-101"/>
      <path id="DejaVuSans-32"/>
      <path d="M 45.40625 46.390625 
L 45.40625 75.984375 
L 54.390625 75.984375 
L 54.390625 0 
L 45.40625 0 
L 45.40625 8.203125 
Q 42.578125 3.328125 38.25 0.953125 
Q 33.9375 -1.421875 27.875 -1.421875 
Q 17.96875 -1.421875 11.734375 6.484375 
Q 5.515625 14.40625 5.515625 27.296875 
Q 5.515625 40.1875 11.734375 48.09375 
Q 17.96875 56 27.875 56 
Q 33.9375 56 38.25 53.625 
Q 42.578125 51.265625 45.40625 46.390625 
z
M 14.796875 27.296875 
Q 14.796875 17.390625 18.875 11.75 
Q 22.953125 6.109375 30.078125 6.109375 
Q 37.203125 6.109375 41.296875 11.75 
Q 45.40625 17.390625 45.40625 27.296875 
Q 45.40625 37.203125 41.296875 42.84375 
Q 37.203125 48.484375 30.078125 48.484375 
Q 22.953125 48.484375 18.875 42.84375 
Q 14.796875 37.203125 14.796875 27.296875 
z
" id="DejaVuSans-100"/>
      <path d="M 18.109375 8.203125 
L 18.109375 -20.796875 
L 9.078125 -20.796875 
L 9.078125 54.6875 
L 18.109375 54.6875 
L 18.109375 46.390625 
Q 20.953125 51.265625 25.265625 53.625 
Q 29.59375 56 35.59375 56 
Q 45.5625 56 51.78125 48.09375 
Q 58.015625 40.1875 58.015625 27.296875 
Q 58.015625 14.40625 51.78125 6.484375 
Q 45.5625 -1.421875 35.59375 -1.421875 
Q 29.59375 -1.421875 25.265625 0.953125 
Q 20.953125 3.328125 18.109375 8.203125 
z
M 48.6875 27.296875 
Q 48.6875 37.203125 44.609375 42.84375 
Q 40.53125 48.484375 33.40625 48.484375 
Q 26.265625 48.484375 22.1875 42.84375 
Q 18.109375 37.203125 18.109375 27.296875 
Q 18.109375 17.390625 22.1875 11.75 
Q 26.265625 6.109375 33.40625 6.109375 
Q 40.53125 6.109375 44.609375 11.75 
Q 48.6875 17.390625 48.6875 27.296875 
z
" id="DejaVuSans-112"/>
      <path d="M 54.890625 33.015625 
L 54.890625 0 
L 45.90625 0 
L 45.90625 32.71875 
Q 45.90625 40.484375 42.875 44.328125 
Q 39.84375 48.1875 33.796875 48.1875 
Q 26.515625 48.1875 22.3125 43.546875 
Q 18.109375 38.921875 18.109375 30.90625 
L 18.109375 0 
L 9.078125 0 
L 9.078125 75.984375 
L 18.109375 75.984375 
L 18.109375 46.1875 
Q 21.34375 51.125 25.703125 53.5625 
Q 30.078125 56 35.796875 56 
Q 45.21875 56 50.046875 50.171875 
Q 54.890625 44.34375 54.890625 33.015625 
z
" id="DejaVuSans-104"/>
      <path d="M 41.109375 46.296875 
Q 39.59375 47.171875 37.8125 47.578125 
Q 36.03125 48 33.890625 48 
Q 26.265625 48 22.1875 43.046875 
Q 18.109375 38.09375 18.109375 28.8125 
L 18.109375 0 
L 9.078125 0 
L 9.078125 54.6875 
L 18.109375 54.6875 
L 18.109375 46.1875 
Q 20.953125 51.171875 25.484375 53.578125 
Q 30.03125 56 36.53125 56 
Q 37.453125 56 38.578125 55.875 
Q 39.703125 55.765625 41.0625 55.515625 
z
" id="DejaVuSans-114"/>
      <path d="M 44.28125 53.078125 
L 44.28125 44.578125 
Q 40.484375 46.53125 36.375 47.5 
Q 32.28125 48.484375 27.875 48.484375 
Q 21.1875 48.484375 17.84375 46.4375 
Q 14.5 44.390625 14.5 40.28125 
Q 14.5 37.15625 16.890625 35.375 
Q 19.28125 33.59375 26.515625 31.984375 
L 29.59375 31.296875 
Q 39.15625 29.25 43.1875 25.515625 
Q 47.21875 21.78125 47.21875 15.09375 
Q 47.21875 7.46875 41.1875 3.015625 
Q 35.15625 -1.421875 24.609375 -1.421875 
Q 20.21875 -1.421875 15.453125 -0.5625 
Q 10.6875 0.296875 5.421875 2 
L 5.421875 11.28125 
Q 10.40625 8.6875 15.234375 7.390625 
Q 20.0625 6.109375 24.8125 6.109375 
Q 31.15625 6.109375 34.5625 8.28125 
Q 37.984375 10.453125 37.984375 14.40625 
Q 37.984375 18.0625 35.515625 20.015625 
Q 33.0625 21.96875 24.703125 23.78125 
L 21.578125 24.515625 
Q 13.234375 26.265625 9.515625 29.90625 
Q 5.8125 33.546875 5.8125 39.890625 
Q 5.8125 47.609375 11.28125 51.796875 
Q 16.75 56 26.8125 56 
Q 31.78125 56 36.171875 55.265625 
Q 40.578125 54.546875 44.28125 53.078125 
z
" id="DejaVuSans-115"/>
     </defs>
     <g style="fill:#262626;" transform="translate(406.89375 533.256875)scale(0.08 -0.08)">
      <use xlink:href="#DejaVuSans-116"/>
      <use x="39.208984" xlink:href="#DejaVuSans-97"/>
      <use x="100.488281" xlink:href="#DejaVuSans-105"/>
      <use x="128.271484" xlink:href="#DejaVuSans-108"/>
      <use x="156.054688" xlink:href="#DejaVuSans-108"/>
      <use x="183.837891" xlink:href="#DejaVuSans-101"/>
      <use x="245.361328" xlink:href="#DejaVuSans-32"/>
      <use x="277.148438" xlink:href="#DejaVuSans-100"/>
      <use x="340.625" xlink:href="#DejaVuSans-101"/>
      <use x="402.148438" xlink:href="#DejaVuSans-32"/>
      <use x="433.935547" xlink:href="#DejaVuSans-108"/>
      <use x="461.71875" xlink:href="#DejaVuSans-97"/>
      <use x="522.998047" xlink:href="#DejaVuSans-32"/>
      <use x="554.785156" xlink:href="#DejaVuSans-112"/>
      <use x="618.261719" xlink:href="#DejaVuSans-104"/>
      <use x="681.640625" xlink:href="#DejaVuSans-114"/>
      <use x="722.753906" xlink:href="#DejaVuSans-97"/>
      <use x="784.033203" xlink:href="#DejaVuSans-115"/>
      <use x="836.132812" xlink:href="#DejaVuSans-101"/>
     </g>
    </g>
   </g>
   <g id="matplotlib.axis_2">
    <g id="ytick_1">
     <g id="line2d_9">
      <path clip-path="url(#pbdb5806992)" d="M 108 504 
L 777.6 504 
" style="fill:none;stroke:#ffffff;stroke-linecap:round;"/>
     </g>
     <g id="text_10">
      <!-- 0.000 -->
      <defs>
       <path d="M 10.6875 12.40625 
L 21 12.40625 
L 21 0 
L 10.6875 0 
z
" id="DejaVuSans-46"/>
      </defs>
      <g style="fill:#262626;" transform="translate(69.871875 507.799219)scale(0.1 -0.1)">
       <use xlink:href="#DejaVuSans-48"/>
       <use x="63.623047" xlink:href="#DejaVuSans-46"/>
       <use x="95.410156" xlink:href="#DejaVuSans-48"/>
       <use x="159.033203" xlink:href="#DejaVuSans-48"/>
       <use x="222.65625" xlink:href="#DejaVuSans-48"/>
      </g>
     </g>
    </g>
    <g id="ytick_2">
     <g id="line2d_10">
      <path clip-path="url(#pbdb5806992)" d="M 108 447.051429 
L 777.6 447.051429 
" style="fill:none;stroke:#ffffff;stroke-linecap:round;"/>
     </g>
     <g id="text_11">
      <!-- 0.025 -->
      <g style="fill:#262626;" transform="translate(69.871875 450.850647)scale(0.1 -0.1)">
       <use xlink:href="#DejaVuSans-48"/>
       <use x="63.623047" xlink:href="#DejaVuSans-46"/>
       <use x="95.410156" xlink:href="#DejaVuSans-48"/>
       <use x="159.033203" xlink:href="#DejaVuSans-50"/>
       <use x="222.65625" xlink:href="#DejaVuSans-53"/>
      </g>
     </g>
    </g>
    <g id="ytick_3">
     <g id="line2d_11">
      <path clip-path="url(#pbdb5806992)" d="M 108 390.102857 
L 777.6 390.102857 
" style="fill:none;stroke:#ffffff;stroke-linecap:round;"/>
     </g>
     <g id="text_12">
      <!-- 0.050 -->
      <g style="fill:#262626;" transform="translate(69.871875 393.902076)scale(0.1 -0.1)">
       <use xlink:href="#DejaVuSans-48"/>
       <use x="63.623047" xlink:href="#DejaVuSans-46"/>
       <use x="95.410156" xlink:href="#DejaVuSans-48"/>
       <use x="159.033203" xlink:href="#DejaVuSans-53"/>
       <use x="222.65625" xlink:href="#DejaVuSans-48"/>
      </g>
     </g>
    </g>
    <g id="ytick_4">
     <g id="line2d_12">
      <path clip-path="url(#pbdb5806992)" d="M 108 333.154286 
L 777.6 333.154286 
" style="fill:none;stroke:#ffffff;stroke-linecap:round;"/>
     </g>
     <g id="text_13">
      <!-- 0.075 -->
      <g style="fill:#262626;" transform="translate(69.871875 336.953504)scale(0.1 -0.1)">
       <use xlink:href="#DejaVuSans-48"/>
       <use x="63.623047" xlink:href="#DejaVuSans-46"/>
       <use x="95.410156" xlink:href="#DejaVuSans-48"/>
       <use x="159.033203" xlink:href="#DejaVuSans-55"/>
       <use x="222.65625" xlink:href="#DejaVuSans-53"/>
      </g>
     </g>
    </g>
    <g id="ytick_5">
     <g id="line2d_13">
      <path clip-path="url(#pbdb5806992)" d="M 108 276.205714 
L 777.6 276.205714 
" style="fill:none;stroke:#ffffff;stroke-linecap:round;"/>
     </g>
     <g id="text_14">
      <!-- 0.100 -->
      <g style="fill:#262626;" transform="translate(69.871875 280.004933)scale(0.1 -0.1)">
       <use xlink:href="#DejaVuSans-48"/>
       <use x="63.623047" xlink:href="#DejaVuSans-46"/>
       <use x="95.410156" xlink:href="#DejaVuSans-49"/>
       <use x="159.033203" xlink:href="#DejaVuSans-48"/>
       <use x="222.65625" xlink:href="#DejaVuSans-48"/>
      </g>
     </g>
    </g>
    <g id="ytick_6">
     <g id="line2d_14">
      <path clip-path="url(#pbdb5806992)" d="M 108 219.257143 
L 777.6 219.257143 
" style="fill:none;stroke:#ffffff;stroke-linecap:round;"/>
     </g>
     <g id="text_15">
      <!-- 0.125 -->
      <g style="fill:#262626;" transform="translate(69.871875 223.056362)scale(0.1 -0.1)">
       <use xlink:href="#DejaVuSans-48"/>
       <use x="63.623047" xlink:href="#DejaVuSans-46"/>
       <use x="95.410156" xlink:href="#DejaVuSans-49"/>
       <use x="159.033203" xlink:href="#DejaVuSans-50"/>
       <use x="222.65625" xlink:href="#DejaVuSans-53"/>
      </g>
     </g>
    </g>
    <g id="ytick_7">
     <g id="line2d_15">
      <path clip-path="url(#pbdb5806992)" d="M 108 162.308571 
L 777.6 162.308571 
" style="fill:none;stroke:#ffffff;stroke-linecap:round;"/>
     </g>
     <g id="text_16">
      <!-- 0.150 -->
      <g style="fill:#262626;" transform="translate(69.871875 166.10779)scale(0.1 -0.1)">
       <use xlink:href="#DejaVuSans-48"/>
       <use x="63.623047" xlink:href="#DejaVuSans-46"/>
       <use x="95.410156" xlink:href="#DejaVuSans-49"/>
       <use x="159.033203" xlink:href="#DejaVuSans-53"/>
       <use x="222.65625" xlink:href="#DejaVuSans-48"/>
      </g>
     </g>
    </g>
    <g id="ytick_8">
     <g id="line2d_16">
      <path clip-path="url(#pbdb5806992)" d="M 108 105.36 
L 777.6 105.36 
" style="fill:none;stroke:#ffffff;stroke-linecap:round;"/>
     </g>
     <g id="text_17">
      <!-- 0.175 -->
      <g style="fill:#262626;" transform="translate(69.871875 109.159219)scale(0.1 -0.1)">
       <use xlink:href="#DejaVuSans-48"/>
       <use x="63.623047" xlink:href="#DejaVuSans-46"/>
       <use x="95.410156" xlink:href="#DejaVuSans-49"/>
       <use x="159.033203" xlink:href="#DejaVuSans-55"/>
       <use x="222.65625" xlink:href="#DejaVuSans-53"/>
      </g>
     </g>
    </g>
    <g id="text_18">
     <!-- probabilité d'erreur pour un token -->
     <defs>
      <path d="M 30.609375 48.390625 
Q 23.390625 48.390625 19.1875 42.75 
Q 14.984375 37.109375 14.984375 27.296875 
Q 14.984375 17.484375 19.15625 11.84375 
Q 23.34375 6.203125 30.609375 6.203125 
Q 37.796875 6.203125 41.984375 11.859375 
Q 46.1875 17.53125 46.1875 27.296875 
Q 46.1875 37.015625 41.984375 42.703125 
Q 37.796875 48.390625 30.609375 48.390625 
z
M 30.609375 56 
Q 42.328125 56 49.015625 48.375 
Q 55.71875 40.765625 55.71875 27.296875 
Q 55.71875 13.875 49.015625 6.21875 
Q 42.328125 -1.421875 30.609375 -1.421875 
Q 18.84375 -1.421875 12.171875 6.21875 
Q 5.515625 13.875 5.515625 27.296875 
Q 5.515625 40.765625 12.171875 48.375 
Q 18.84375 56 30.609375 56 
z
" id="DejaVuSans-111"/>
      <path d="M 48.6875 27.296875 
Q 48.6875 37.203125 44.609375 42.84375 
Q 40.53125 48.484375 33.40625 48.484375 
Q 26.265625 48.484375 22.1875 42.84375 
Q 18.109375 37.203125 18.109375 27.296875 
Q 18.109375 17.390625 22.1875 11.75 
Q 26.265625 6.109375 33.40625 6.109375 
Q 40.53125 6.109375 44.609375 11.75 
Q 48.6875 17.390625 48.6875 27.296875 
z
M 18.109375 46.390625 
Q 20.953125 51.265625 25.265625 53.625 
Q 29.59375 56 35.59375 56 
Q 45.5625 56 51.78125 48.09375 
Q 58.015625 40.1875 58.015625 27.296875 
Q 58.015625 14.40625 51.78125 6.484375 
Q 45.5625 -1.421875 35.59375 -1.421875 
Q 29.59375 -1.421875 25.265625 0.953125 
Q 20.953125 3.328125 18.109375 8.203125 
L 18.109375 0 
L 9.078125 0 
L 9.078125 75.984375 
L 18.109375 75.984375 
z
" id="DejaVuSans-98"/>
      <path d="M 56.203125 29.59375 
L 56.203125 25.203125 
L 14.890625 25.203125 
Q 15.484375 15.921875 20.484375 11.0625 
Q 25.484375 6.203125 34.421875 6.203125 
Q 39.59375 6.203125 44.453125 7.46875 
Q 49.3125 8.734375 54.109375 11.28125 
L 54.109375 2.78125 
Q 49.265625 0.734375 44.1875 -0.34375 
Q 39.109375 -1.421875 33.890625 -1.421875 
Q 20.796875 -1.421875 13.15625 6.1875 
Q 5.515625 13.8125 5.515625 26.8125 
Q 5.515625 40.234375 12.765625 48.109375 
Q 20.015625 56 32.328125 56 
Q 43.359375 56 49.78125 48.890625 
Q 56.203125 41.796875 56.203125 29.59375 
z
M 47.21875 32.234375 
Q 47.125 39.59375 43.09375 43.984375 
Q 39.0625 48.390625 32.421875 48.390625 
Q 24.90625 48.390625 20.390625 44.140625 
Q 15.875 39.890625 15.1875 32.171875 
z
M 38.53125 79.984375 
L 48.25 79.984375 
L 32.34375 61.625 
L 24.859375 61.625 
z
" id="DejaVuSans-233"/>
      <path d="M 17.921875 72.90625 
L 17.921875 45.796875 
L 9.625 45.796875 
L 9.625 72.90625 
z
" id="DejaVuSans-39"/>
      <path d="M 8.5 21.578125 
L 8.5 54.6875 
L 17.484375 54.6875 
L 17.484375 21.921875 
Q 17.484375 14.15625 20.5 10.265625 
Q 23.53125 6.390625 29.59375 6.390625 
Q 36.859375 6.390625 41.078125 11.03125 
Q 45.3125 15.671875 45.3125 23.6875 
L 45.3125 54.6875 
L 54.296875 54.6875 
L 54.296875 0 
L 45.3125 0 
L 45.3125 8.40625 
Q 42.046875 3.421875 37.71875 1 
Q 33.40625 -1.421875 27.6875 -1.421875 
Q 18.265625 -1.421875 13.375 4.4375 
Q 8.5 10.296875 8.5 21.578125 
z
M 31.109375 56 
z
" id="DejaVuSans-117"/>
      <path d="M 54.890625 33.015625 
L 54.890625 0 
L 45.90625 0 
L 45.90625 32.71875 
Q 45.90625 40.484375 42.875 44.328125 
Q 39.84375 48.1875 33.796875 48.1875 
Q 26.515625 48.1875 22.3125 43.546875 
Q 18.109375 38.921875 18.109375 30.90625 
L 18.109375 0 
L 9.078125 0 
L 9.078125 54.6875 
L 18.109375 54.6875 
L 18.109375 46.1875 
Q 21.34375 51.125 25.703125 53.5625 
Q 30.078125 56 35.796875 56 
Q 45.21875 56 50.046875 50.171875 
Q 54.890625 44.34375 54.890625 33.015625 
z
" id="DejaVuSans-110"/>
      <path d="M 9.078125 75.984375 
L 18.109375 75.984375 
L 18.109375 31.109375 
L 44.921875 54.6875 
L 56.390625 54.6875 
L 27.390625 29.109375 
L 57.625 0 
L 45.90625 0 
L 18.109375 26.703125 
L 18.109375 0 
L 9.078125 0 
z
" id="DejaVuSans-107"/>
     </defs>
     <g style="fill:#262626;" transform="translate(64.208125 354.368125)rotate(-90)scale(0.08 -0.08)">
      <use xlink:href="#DejaVuSans-112"/>
      <use x="63.476562" xlink:href="#DejaVuSans-114"/>
      <use x="102.339844" xlink:href="#DejaVuSans-111"/>
      <use x="163.521484" xlink:href="#DejaVuSans-98"/>
      <use x="226.998047" xlink:href="#DejaVuSans-97"/>
      <use x="288.277344" xlink:href="#DejaVuSans-98"/>
      <use x="351.753906" xlink:href="#DejaVuSans-105"/>
      <use x="379.537109" xlink:href="#DejaVuSans-108"/>
      <use x="407.320312" xlink:href="#DejaVuSans-105"/>
      <use x="435.103516" xlink:href="#DejaVuSans-116"/>
      <use x="474.3125" xlink:href="#DejaVuSans-233"/>
      <use x="535.835938" xlink:href="#DejaVuSans-32"/>
      <use x="567.623047" xlink:href="#DejaVuSans-100"/>
      <use x="631.099609" xlink:href="#DejaVuSans-39"/>
      <use x="658.589844" xlink:href="#DejaVuSans-101"/>
      <use x="720.113281" xlink:href="#DejaVuSans-114"/>
      <use x="759.476562" xlink:href="#DejaVuSans-114"/>
      <use x="798.339844" xlink:href="#DejaVuSans-101"/>
      <use x="859.863281" xlink:href="#DejaVuSans-117"/>
      <use x="923.242188" xlink:href="#DejaVuSans-114"/>
      <use x="964.355469" xlink:href="#DejaVuSans-32"/>
      <use x="996.142578" xlink:href="#DejaVuSans-112"/>
      <use x="1059.619141" xlink:href="#DejaVuSans-111"/>
      <use x="1120.800781" xlink:href="#DejaVuSans-117"/>
      <use x="1184.179688" xlink:href="#DejaVuSans-114"/>
      <use x="1225.292969" xlink:href="#DejaVuSans-32"/>
      <use x="1257.080078" xlink:href="#DejaVuSans-117"/>
      <use x="1320.458984" xlink:href="#DejaVuSans-110"/>
      <use x="1383.837891" xlink:href="#DejaVuSans-32"/>
      <use x="1415.625" xlink:href="#DejaVuSans-116"/>
      <use x="1454.833984" xlink:href="#DejaVuSans-111"/>
      <use x="1516.015625" xlink:href="#DejaVuSans-107"/>
      <use x="1570.300781" xlink:href="#DejaVuSans-101"/>
      <use x="1631.824219" xlink:href="#DejaVuSans-110"/>
     </g>
    </g>
   </g>
   <g id="patch_3">
    <path clip-path="url(#pbdb5806992)" d="M 72.757895 504 
L 81.568421 504 
L 81.568421 504 
L 72.757895 504 
z
" style="fill:#808080;opacity:0.3;stroke:#ffffff;stroke-linejoin:miter;"/>
   </g>
   <g id="patch_4">
    <path clip-path="url(#pbdb5806992)" d="M 81.568421 504 
L 90.378947 504 
L 90.378947 504 
L 81.568421 504 
z
" style="fill:#808080;opacity:0.3;stroke:#ffffff;stroke-linejoin:miter;"/>
   </g>
   <g id="patch_5">
    <path clip-path="url(#pbdb5806992)" d="M 90.378947 504 
L 99.189474 504 
L 99.189474 459.7681 
L 90.378947 459.7681 
z
" style="fill:#808080;opacity:0.3;stroke:#ffffff;stroke-linejoin:miter;"/>
   </g>
   <g id="patch_6">
    <path clip-path="url(#pbdb5806992)" d="M 99.189474 504 
L 108 504 
L 108 434.058308 
L 99.189474 434.058308 
z
" style="fill:#808080;opacity:0.3;stroke:#ffffff;stroke-linejoin:miter;"/>
   </g>
   <g id="patch_7">
    <path clip-path="url(#pbdb5806992)" d="M 108 504 
L 116.810526 504 
L 116.810526 417.747795 
L 108 417.747795 
z
" style="fill:#808080;opacity:0.3;stroke:#ffffff;stroke-linejoin:miter;"/>
   </g>
   <g id="patch_8">
    <path clip-path="url(#pbdb5806992)" d="M 116.810526 504 
L 125.621053 504 
L 125.621053 401.99018 
L 116.810526 401.99018 
z
" style="fill:#808080;opacity:0.3;stroke:#ffffff;stroke-linejoin:miter;"/>
   </g>
   <g id="patch_9">
    <path clip-path="url(#pbdb5806992)" d="M 125.621053 504 
L 134.431579 504 
L 134.431579 376.556838 
L 125.621053 376.556838 
z
" style="fill:#808080;opacity:0.3;stroke:#ffffff;stroke-linejoin:miter;"/>
   </g>
   <g id="patch_10">
    <path clip-path="url(#pbdb5806992)" d="M 134.431579 504 
L 143.242105 504 
L 143.242105 356.928932 
L 134.431579 356.928932 
z
" style="fill:#808080;opacity:0.3;stroke:#ffffff;stroke-linejoin:miter;"/>
   </g>
   <g id="patch_11">
    <path clip-path="url(#pbdb5806992)" d="M 143.242105 504 
L 152.052632 504 
L 152.052632 383.191623 
L 143.242105 383.191623 
z
" style="fill:#808080;opacity:0.3;stroke:#ffffff;stroke-linejoin:miter;"/>
   </g>
   <g id="patch_12">
    <path clip-path="url(#pbdb5806992)" d="M 152.052632 504 
L 160.863158 504 
L 160.863158 379.044882 
L 152.052632 379.044882 
z
" style="fill:#808080;opacity:0.3;stroke:#ffffff;stroke-linejoin:miter;"/>
   </g>
   <g id="patch_13">
    <path clip-path="url(#pbdb5806992)" d="M 160.863158 504 
L 169.673684 504 
L 169.673684 391.485104 
L 160.863158 391.485104 
z
" style="fill:#808080;opacity:0.3;stroke:#ffffff;stroke-linejoin:miter;"/>
   </g>
   <g id="patch_14">
    <path clip-path="url(#pbdb5806992)" d="M 169.673684 504 
L 178.484211 504 
L 178.484211 395.908294 
L 169.673684 395.908294 
z
" style="fill:#808080;opacity:0.3;stroke:#ffffff;stroke-linejoin:miter;"/>
   </g>
   <g id="patch_15">
    <path clip-path="url(#pbdb5806992)" d="M 178.484211 504 
L 187.294737 504 
L 187.294737 411.942358 
L 178.484211 411.942358 
z
" style="fill:#808080;opacity:0.3;stroke:#ffffff;stroke-linejoin:miter;"/>
   </g>
   <g id="patch_16">
    <path clip-path="url(#pbdb5806992)" d="M 187.294737 504 
L 196.105263 504 
L 196.105263 410.560111 
L 187.294737 410.560111 
z
" style="fill:#808080;opacity:0.3;stroke:#ffffff;stroke-linejoin:miter;"/>
   </g>
   <g id="patch_17">
    <path clip-path="url(#pbdb5806992)" d="M 196.105263 504 
L 204.915789 504 
L 204.915789 414.430402 
L 196.105263 414.430402 
z
" style="fill:#808080;opacity:0.3;stroke:#ffffff;stroke-linejoin:miter;"/>
   </g>
   <g id="patch_18">
    <path clip-path="url(#pbdb5806992)" d="M 204.915789 504 
L 213.726316 504 
L 213.726316 424.935479 
L 204.915789 424.935479 
z
" style="fill:#808080;opacity:0.3;stroke:#ffffff;stroke-linejoin:miter;"/>
   </g>
   <g id="patch_19">
    <path clip-path="url(#pbdb5806992)" d="M 213.726316 504 
L 222.536842 504 
L 222.536842 432.123162 
L 213.726316 432.123162 
z
" style="fill:#808080;opacity:0.3;stroke:#ffffff;stroke-linejoin:miter;"/>
   </g>
   <g id="patch_20">
    <path clip-path="url(#pbdb5806992)" d="M 222.536842 504 
L 231.347368 504 
L 231.347368 428.252871 
L 222.536842 428.252871 
z
" style="fill:#808080;opacity:0.3;stroke:#ffffff;stroke-linejoin:miter;"/>
   </g>
   <g id="patch_21">
    <path clip-path="url(#pbdb5806992)" d="M 231.347368 504 
L 240.157895 504 
L 240.157895 438.757947 
L 231.347368 438.757947 
z
" style="fill:#808080;opacity:0.3;stroke:#ffffff;stroke-linejoin:miter;"/>
   </g>
   <g id="patch_22">
    <path clip-path="url(#pbdb5806992)" d="M 240.157895 504 
L 248.968421 504 
L 248.968421 445.669182 
L 240.157895 445.669182 
z
" style="fill:#808080;opacity:0.3;stroke:#ffffff;stroke-linejoin:miter;"/>
   </g>
   <g id="patch_23">
    <path clip-path="url(#pbdb5806992)" d="M 248.968421 504 
L 257.778947 504 
L 257.778947 452.027517 
L 248.968421 452.027517 
z
" style="fill:#808080;opacity:0.3;stroke:#ffffff;stroke-linejoin:miter;"/>
   </g>
   <g id="patch_24">
    <path clip-path="url(#pbdb5806992)" d="M 257.778947 504 
L 266.589474 504 
L 266.589474 458.662302 
L 257.778947 458.662302 
z
" style="fill:#808080;opacity:0.3;stroke:#ffffff;stroke-linejoin:miter;"/>
   </g>
   <g id="patch_25">
    <path clip-path="url(#pbdb5806992)" d="M 266.589474 504 
L 275.4 504 
L 275.4 461.703245 
L 266.589474 461.703245 
z
" style="fill:#808080;opacity:0.3;stroke:#ffffff;stroke-linejoin:miter;"/>
   </g>
   <g id="patch_26">
    <path clip-path="url(#pbdb5806992)" d="M 275.4 504 
L 284.210526 504 
L 284.210526 465.297087 
L 275.4 465.297087 
z
" style="fill:#808080;opacity:0.3;stroke:#ffffff;stroke-linejoin:miter;"/>
   </g>
   <g id="patch_27">
    <path clip-path="url(#pbdb5806992)" d="M 284.210526 504 
L 293.021053 504 
L 293.021053 468.061581 
L 284.210526 468.061581 
z
" style="fill:#808080;opacity:0.3;stroke:#ffffff;stroke-linejoin:miter;"/>
   </g>
   <g id="patch_28">
    <path clip-path="url(#pbdb5806992)" d="M 293.021053 504 
L 301.831579 504 
L 301.831579 473.03767 
L 293.021053 473.03767 
z
" style="fill:#808080;opacity:0.3;stroke:#ffffff;stroke-linejoin:miter;"/>
   </g>
   <g id="patch_29">
    <path clip-path="url(#pbdb5806992)" d="M 301.831579 504 
L 310.642105 504 
L 310.642105 475.525714 
L 301.831579 475.525714 
z
" style="fill:#808080;opacity:0.3;stroke:#ffffff;stroke-linejoin:miter;"/>
   </g>
   <g id="patch_30">
    <path clip-path="url(#pbdb5806992)" d="M 310.642105 504 
L 319.452632 504 
L 319.452632 475.802164 
L 310.642105 475.802164 
z
" style="fill:#808080;opacity:0.3;stroke:#ffffff;stroke-linejoin:miter;"/>
   </g>
   <g id="patch_31">
    <path clip-path="url(#pbdb5806992)" d="M 319.452632 504 
L 328.263158 504 
L 328.263158 474.143467 
L 319.452632 474.143467 
z
" style="fill:#808080;opacity:0.3;stroke:#ffffff;stroke-linejoin:miter;"/>
   </g>
   <g id="patch_32">
    <path clip-path="url(#pbdb5806992)" d="M 328.263158 504 
L 337.073684 504 
L 337.073684 481.88405 
L 328.263158 481.88405 
z
" style="fill:#808080;opacity:0.3;stroke:#ffffff;stroke-linejoin:miter;"/>
   </g>
   <g id="patch_33">
    <path clip-path="url(#pbdb5806992)" d="M 337.073684 504 
L 345.884211 504 
L 345.884211 480.778252 
L 337.073684 480.778252 
z
" style="fill:#808080;opacity:0.3;stroke:#ffffff;stroke-linejoin:miter;"/>
   </g>
   <g id="patch_34">
    <path clip-path="url(#pbdb5806992)" d="M 345.884211 504 
L 354.694737 504 
L 354.694737 487.689487 
L 345.884211 487.689487 
z
" style="fill:#808080;opacity:0.3;stroke:#ffffff;stroke-linejoin:miter;"/>
   </g>
   <g id="patch_35">
    <path clip-path="url(#pbdb5806992)" d="M 354.694737 504 
L 363.505263 504 
L 363.505263 489.348183 
L 354.694737 489.348183 
z
" style="fill:#808080;opacity:0.3;stroke:#ffffff;stroke-linejoin:miter;"/>
   </g>
   <g id="patch_36">
    <path clip-path="url(#pbdb5806992)" d="M 363.505263 504 
L 372.315789 504 
L 372.315789 489.071734 
L 363.505263 489.071734 
z
" style="fill:#808080;opacity:0.3;stroke:#ffffff;stroke-linejoin:miter;"/>
   </g>
   <g id="patch_37">
    <path clip-path="url(#pbdb5806992)" d="M 372.315789 504 
L 381.126316 504 
L 381.126316 488.795284 
L 372.315789 488.795284 
z
" style="fill:#808080;opacity:0.3;stroke:#ffffff;stroke-linejoin:miter;"/>
   </g>
   <g id="patch_38">
    <path clip-path="url(#pbdb5806992)" d="M 381.126316 504 
L 389.936842 504 
L 389.936842 489.071734 
L 381.126316 489.071734 
z
" style="fill:#808080;opacity:0.3;stroke:#ffffff;stroke-linejoin:miter;"/>
   </g>
   <g id="patch_39">
    <path clip-path="url(#pbdb5806992)" d="M 389.936842 504 
L 398.747368 504 
L 398.747368 492.665576 
L 389.936842 492.665576 
z
" style="fill:#808080;opacity:0.3;stroke:#ffffff;stroke-linejoin:miter;"/>
   </g>
   <g id="patch_40">
    <path clip-path="url(#pbdb5806992)" d="M 398.747368 504 
L 407.557895 504 
L 407.557895 491.559778 
L 398.747368 491.559778 
z
" style="fill:#808080;opacity:0.3;stroke:#ffffff;stroke-linejoin:miter;"/>
   </g>
   <g id="patch_41">
    <path clip-path="url(#pbdb5806992)" d="M 407.557895 504 
L 416.368421 504 
L 416.368421 493.771373 
L 407.557895 493.771373 
z
" style="fill:#808080;opacity:0.3;stroke:#ffffff;stroke-linejoin:miter;"/>
   </g>
   <g id="patch_42">
    <path clip-path="url(#pbdb5806992)" d="M 416.368421 504 
L 425.178947 504 
L 425.178947 490.177531 
L 416.368421 490.177531 
z
" style="fill:#808080;opacity:0.3;stroke:#ffffff;stroke-linejoin:miter;"/>
   </g>
   <g id="patch_43">
    <path clip-path="url(#pbdb5806992)" d="M 425.178947 504 
L 433.989474 504 
L 433.989474 494.877171 
L 425.178947 494.877171 
z
" style="fill:#808080;opacity:0.3;stroke:#ffffff;stroke-linejoin:miter;"/>
   </g>
   <g id="patch_44">
    <path clip-path="url(#pbdb5806992)" d="M 433.989474 504 
L 442.8 504 
L 442.8 496.259417 
L 433.989474 496.259417 
z
" style="fill:#808080;opacity:0.3;stroke:#ffffff;stroke-linejoin:miter;"/>
   </g>
   <g id="patch_45">
    <path clip-path="url(#pbdb5806992)" d="M 442.8 504 
L 451.610526 504 
L 451.610526 498.747462 
L 442.8 498.747462 
z
" style="fill:#808080;opacity:0.3;stroke:#ffffff;stroke-linejoin:miter;"/>
   </g>
   <g id="patch_46">
    <path clip-path="url(#pbdb5806992)" d="M 451.610526 504 
L 460.421053 504 
L 460.421053 495.706519 
L 451.610526 495.706519 
z
" style="fill:#808080;opacity:0.3;stroke:#ffffff;stroke-linejoin:miter;"/>
   </g>
   <g id="patch_47">
    <path clip-path="url(#pbdb5806992)" d="M 460.421053 504 
L 469.231579 504 
L 469.231579 498.471012 
L 460.421053 498.471012 
z
" style="fill:#808080;opacity:0.3;stroke:#ffffff;stroke-linejoin:miter;"/>
   </g>
   <g id="patch_48">
    <path clip-path="url(#pbdb5806992)" d="M 469.231579 504 
L 478.042105 504 
L 478.042105 500.959057 
L 469.231579 500.959057 
z
" style="fill:#808080;opacity:0.3;stroke:#ffffff;stroke-linejoin:miter;"/>
   </g>
   <g id="patch_49">
    <path clip-path="url(#pbdb5806992)" d="M 478.042105 504 
L 486.852632 504 
L 486.852632 499.57681 
L 478.042105 499.57681 
z
" style="fill:#808080;opacity:0.3;stroke:#ffffff;stroke-linejoin:miter;"/>
   </g>
   <g id="patch_50">
    <path clip-path="url(#pbdb5806992)" d="M 486.852632 504 
L 495.663158 504 
L 495.663158 496.812316 
L 486.852632 496.812316 
z
" style="fill:#808080;opacity:0.3;stroke:#ffffff;stroke-linejoin:miter;"/>
   </g>
   <g id="patch_51">
    <path clip-path="url(#pbdb5806992)" d="M 495.663158 504 
L 504.473684 504 
L 504.473684 499.300361 
L 495.663158 499.300361 
z
" style="fill:#808080;opacity:0.3;stroke:#ffffff;stroke-linejoin:miter;"/>
   </g>
   <g id="patch_52">
    <path clip-path="url(#pbdb5806992)" d="M 504.473684 504 
L 513.284211 504 
L 513.284211 498.194563 
L 504.473684 498.194563 
z
" style="fill:#808080;opacity:0.3;stroke:#ffffff;stroke-linejoin:miter;"/>
   </g>
   <g id="patch_53">
    <path clip-path="url(#pbdb5806992)" d="M 513.284211 504 
L 522.094737 504 
L 522.094737 499.300361 
L 513.284211 499.300361 
z
" style="fill:#808080;opacity:0.3;stroke:#ffffff;stroke-linejoin:miter;"/>
   </g>
   <g id="patch_54">
    <path clip-path="url(#pbdb5806992)" d="M 522.094737 504 
L 530.905263 504 
L 530.905263 502.341304 
L 522.094737 502.341304 
z
" style="fill:#808080;opacity:0.3;stroke:#ffffff;stroke-linejoin:miter;"/>
   </g>
   <g id="patch_55">
    <path clip-path="url(#pbdb5806992)" d="M 530.905263 504 
L 539.715789 504 
L 539.715789 501.511956 
L 530.905263 501.511956 
z
" style="fill:#808080;opacity:0.3;stroke:#ffffff;stroke-linejoin:miter;"/>
   </g>
   <g id="patch_56">
    <path clip-path="url(#pbdb5806992)" d="M 539.715789 504 
L 548.526316 504 
L 548.526316 499.57681 
L 539.715789 499.57681 
z
" style="fill:#808080;opacity:0.3;stroke:#ffffff;stroke-linejoin:miter;"/>
   </g>
   <g id="patch_57">
    <path clip-path="url(#pbdb5806992)" d="M 548.526316 504 
L 557.336842 504 
L 557.336842 499.300361 
L 548.526316 499.300361 
z
" style="fill:#808080;opacity:0.3;stroke:#ffffff;stroke-linejoin:miter;"/>
   </g>
   <g id="patch_58">
    <path clip-path="url(#pbdb5806992)" d="M 557.336842 504 
L 566.147368 504 
L 566.147368 499.853259 
L 557.336842 499.853259 
z
" style="fill:#808080;opacity:0.3;stroke:#ffffff;stroke-linejoin:miter;"/>
   </g>
   <g id="patch_59">
    <path clip-path="url(#pbdb5806992)" d="M 566.147368 504 
L 574.957895 504 
L 574.957895 502.341304 
L 566.147368 502.341304 
z
" style="fill:#808080;opacity:0.3;stroke:#ffffff;stroke-linejoin:miter;"/>
   </g>
   <g id="patch_60">
    <path clip-path="url(#pbdb5806992)" d="M 574.957895 504 
L 583.768421 504 
L 583.768421 501.511956 
L 574.957895 501.511956 
z
" style="fill:#808080;opacity:0.3;stroke:#ffffff;stroke-linejoin:miter;"/>
   </g>
   <g id="patch_61">
    <path clip-path="url(#pbdb5806992)" d="M 583.768421 504 
L 592.578947 504 
L 592.578947 502.617753 
L 583.768421 502.617753 
z
" style="fill:#808080;opacity:0.3;stroke:#ffffff;stroke-linejoin:miter;"/>
   </g>
   <g id="patch_62">
    <path clip-path="url(#pbdb5806992)" d="M 592.578947 504 
L 601.389474 504 
L 601.389474 502.894202 
L 592.578947 502.894202 
z
" style="fill:#808080;opacity:0.3;stroke:#ffffff;stroke-linejoin:miter;"/>
   </g>
   <g id="patch_63">
    <path clip-path="url(#pbdb5806992)" d="M 601.389474 504 
L 610.2 504 
L 610.2 500.406158 
L 601.389474 500.406158 
z
" style="fill:#808080;opacity:0.3;stroke:#ffffff;stroke-linejoin:miter;"/>
   </g>
   <g id="patch_64">
    <path clip-path="url(#pbdb5806992)" d="M 610.2 504 
L 619.010526 504 
L 619.010526 502.617753 
L 610.2 502.617753 
z
" style="fill:#808080;opacity:0.3;stroke:#ffffff;stroke-linejoin:miter;"/>
   </g>
   <g id="patch_65">
    <path clip-path="url(#pbdb5806992)" d="M 619.010526 504 
L 627.821053 504 
L 627.821053 502.894202 
L 619.010526 502.894202 
z
" style="fill:#808080;opacity:0.3;stroke:#ffffff;stroke-linejoin:miter;"/>
   </g>
   <g id="patch_66">
    <path clip-path="url(#pbdb5806992)" d="M 627.821053 504 
L 636.631579 504 
L 636.631579 502.064854 
L 627.821053 502.064854 
z
" style="fill:#808080;opacity:0.3;stroke:#ffffff;stroke-linejoin:miter;"/>
   </g>
   <g id="patch_67">
    <path clip-path="url(#pbdb5806992)" d="M 636.631579 504 
L 645.442105 504 
L 645.442105 502.617753 
L 636.631579 502.617753 
z
" style="fill:#808080;opacity:0.3;stroke:#ffffff;stroke-linejoin:miter;"/>
   </g>
   <g id="patch_68">
    <path clip-path="url(#pbdb5806992)" d="M 645.442105 504 
L 654.252632 504 
L 654.252632 502.894202 
L 645.442105 502.894202 
z
" style="fill:#808080;opacity:0.3;stroke:#ffffff;stroke-linejoin:miter;"/>
   </g>
   <g id="patch_69">
    <path clip-path="url(#pbdb5806992)" d="M 654.252632 504 
L 663.063158 504 
L 663.063158 503.170652 
L 654.252632 503.170652 
z
" style="fill:#808080;opacity:0.3;stroke:#ffffff;stroke-linejoin:miter;"/>
   </g>
   <g id="patch_70">
    <path clip-path="url(#pbdb5806992)" d="M 663.063158 504 
L 671.873684 504 
L 671.873684 504 
L 663.063158 504 
z
" style="fill:#808080;opacity:0.3;stroke:#ffffff;stroke-linejoin:miter;"/>
   </g>
   <g id="patch_71">
    <path clip-path="url(#pbdb5806992)" d="M 671.873684 504 
L 680.684211 504 
L 680.684211 502.617753 
L 671.873684 502.617753 
z
" style="fill:#808080;opacity:0.3;stroke:#ffffff;stroke-linejoin:miter;"/>
   </g>
   <g id="patch_72">
    <path clip-path="url(#pbdb5806992)" d="M 680.684211 504 
L 689.494737 504 
L 689.494737 502.617753 
L 680.684211 502.617753 
z
" style="fill:#808080;opacity:0.3;stroke:#ffffff;stroke-linejoin:miter;"/>
   </g>
   <g id="patch_73">
    <path clip-path="url(#pbdb5806992)" d="M 689.494737 504 
L 698.305263 504 
L 698.305263 504 
L 689.494737 504 
z
" style="fill:#808080;opacity:0.3;stroke:#ffffff;stroke-linejoin:miter;"/>
   </g>
   <g id="patch_74">
    <path clip-path="url(#pbdb5806992)" d="M 698.305263 504 
L 707.115789 504 
L 707.115789 503.447101 
L 698.305263 503.447101 
z
" style="fill:#808080;opacity:0.3;stroke:#ffffff;stroke-linejoin:miter;"/>
   </g>
   <g id="patch_75">
    <path clip-path="url(#pbdb5806992)" d="M 707.115789 504 
L 715.926316 504 
L 715.926316 503.447101 
L 707.115789 503.447101 
z
" style="fill:#808080;opacity:0.3;stroke:#ffffff;stroke-linejoin:miter;"/>
   </g>
   <g id="patch_76">
    <path clip-path="url(#pbdb5806992)" d="M 715.926316 504 
L 724.736842 504 
L 724.736842 503.447101 
L 715.926316 503.447101 
z
" style="fill:#808080;opacity:0.3;stroke:#ffffff;stroke-linejoin:miter;"/>
   </g>
   <g id="patch_77">
    <path clip-path="url(#pbdb5806992)" d="M 724.736842 504 
L 733.547368 504 
L 733.547368 503.723551 
L 724.736842 503.723551 
z
" style="fill:#808080;opacity:0.3;stroke:#ffffff;stroke-linejoin:miter;"/>
   </g>
   <g id="patch_78">
    <path clip-path="url(#pbdb5806992)" d="M 733.547368 504 
L 742.357895 504 
L 742.357895 502.894202 
L 733.547368 502.894202 
z
" style="fill:#808080;opacity:0.3;stroke:#ffffff;stroke-linejoin:miter;"/>
   </g>
   <g id="patch_79">
    <path clip-path="url(#pbdb5806992)" d="M 742.357895 504 
L 751.168421 504 
L 751.168421 503.170652 
L 742.357895 503.170652 
z
" style="fill:#808080;opacity:0.3;stroke:#ffffff;stroke-linejoin:miter;"/>
   </g>
   <g id="patch_80">
    <path clip-path="url(#pbdb5806992)" d="M 751.168421 504 
L 759.978947 504 
L 759.978947 504 
L 751.168421 504 
z
" style="fill:#808080;opacity:0.3;stroke:#ffffff;stroke-linejoin:miter;"/>
   </g>
   <g id="patch_81">
    <path clip-path="url(#pbdb5806992)" d="M 759.978947 504 
L 768.789474 504 
L 768.789474 503.447101 
L 759.978947 503.447101 
z
" style="fill:#808080;opacity:0.3;stroke:#ffffff;stroke-linejoin:miter;"/>
   </g>
   <g id="line2d_17">
    <path clip-path="url(#pbdb5806992)" d="M 116.810526 432.389872 
L 125.621053 436.468795 
L 134.431579 441.607365 
L 143.242105 420.597058 
L 152.052632 434.004214 
L 160.863158 412.210656 
L 169.673684 424.025722 
L 178.484211 434.453196 
L 187.294737 387.873646 
L 196.105263 411.094482 
L 204.915789 405.236044 
L 213.726316 388.46011 
L 222.536842 386.630681 
L 231.347368 373.693947 
L 240.157895 385.244685 
L 248.968421 385.25617 
L 257.778947 379.652364 
L 266.589474 376.770868 
L 275.4 356.145945 
L 284.210526 372.58022 
L 293.021053 382.780898 
L 301.831579 373.005527 
L 310.642105 351.806287 
L 319.452632 352.589116 
L 328.263158 348.864236 
L 337.073684 334.058231 
L 345.884211 366.999609 
L 354.694737 375.059838 
L 363.505263 323.75873 
L 372.315789 344.422185 
L 381.126316 315.97932 
L 389.936842 328.061324 
L 398.747368 343.92834 
L 407.557895 358.185735 
L 416.368421 335.782681 
L 425.178947 314.171429 
L 433.989474 295.651568 
L 442.8 344.144361 
L 451.610526 300.927575 
L 460.421053 333.154286 
L 469.231579 278.506667 
L 478.042105 380.198758 
L 486.852632 328.773626 
L 495.663158 364.420168 
L 504.473684 247.205664 
L 513.284211 300.325109 
L 522.094737 392.336134 
L 530.905263 299.569231 
L 539.715789 329.393531 
L 548.526316 295.560784 
L 557.336842 313.481143 
L 566.147368 253.155102 
L 574.957895 326.382623 
L 583.768421 307.625616 
L 592.578947 310.953995 
L 601.389474 346.296264 
L 610.2 220.190726 
L 619.010526 301.924424 
L 627.821053 354.203304 
L 636.631579 176.545714 
L 645.442105 249.921758 
L 654.252632 250.895238 
L 671.873684 189.107899 
L 680.684211 332.328944 
L 698.305263 167.121127 
L 707.115789 92.704762 
L 715.926316 363.578865 
L 724.736842 380.867954 
L 733.547368 185.088 
L 742.357895 344.144361 
L 768.789474 345.409042 
L 777.6 219.257143 
L 786.410526 250.895238 
L 830.463158 186.147508 
L 848.084211 89.828571 
L 856.894737 248.051364 
L 865 157.529878 
" style="fill:none;stroke:#e41a1c;stroke-linecap:round;stroke-width:1.5;"/>
   </g>
   <g id="line2d_18">
    <path clip-path="url(#pbdb5806992)" d="M 116.810526 426.17373 
L 125.621053 423.570583 
L 134.431579 420.967436 
L 143.242105 418.364289 
L 152.052632 415.761142 
L 160.863158 413.157995 
L 169.673684 410.554848 
L 178.484211 407.951701 
L 187.294737 405.348554 
L 196.105263 402.745407 
L 204.915789 400.14226 
L 213.726316 397.539113 
L 222.536842 394.935966 
L 231.347368 392.332819 
L 240.157895 389.729672 
L 248.968421 387.126524 
L 257.778947 384.523377 
L 266.589474 381.92023 
L 275.4 379.317083 
L 284.210526 376.713936 
L 293.021053 374.110789 
L 301.831579 371.507642 
L 310.642105 368.904495 
L 319.452632 366.301348 
L 328.263158 363.698201 
L 337.073684 361.095054 
L 345.884211 358.491907 
L 354.694737 355.88876 
L 363.505263 353.285613 
L 372.315789 350.682466 
L 381.126316 348.079319 
L 389.936842 345.476172 
L 398.747368 342.873025 
L 407.557895 340.269878 
L 416.368421 337.666731 
L 425.178947 335.063584 
L 433.989474 332.460437 
L 442.8 329.85729 
L 451.610526 327.254143 
L 460.421053 324.650996 
L 469.231579 322.047848 
L 478.042105 319.444701 
L 486.852632 316.841554 
L 495.663158 314.238407 
L 504.473684 311.63526 
L 513.284211 309.032113 
L 522.094737 306.428966 
L 530.905263 303.825819 
L 539.715789 301.222672 
L 548.526316 298.619525 
L 557.336842 296.016378 
L 566.147368 293.413231 
L 574.957895 290.810084 
L 583.768421 288.206937 
L 592.578947 285.60379 
L 601.389474 283.000643 
L 610.2 280.397496 
L 619.010526 277.794349 
L 627.821053 275.191202 
L 636.631579 272.588055 
L 645.442105 269.984908 
L 654.252632 267.381761 
L 671.873684 262.175467 
L 680.684211 259.57232 
L 698.305263 254.366025 
L 707.115789 251.762878 
L 715.926316 249.159731 
L 724.736842 246.556584 
L 733.547368 243.953437 
L 742.357895 241.35029 
L 768.789474 233.540849 
L 777.6 230.937702 
L 786.410526 228.334555 
L 830.463158 215.31882 
L 848.084211 210.112526 
L 856.894737 207.509379 
L 865 205.114608 
" style="fill:none;stroke:#e41a1c;stroke-dasharray:1.5,2.475;stroke-dashoffset:0;stroke-width:1.5;"/>
   </g>
   <g id="line2d_19">
    <path clip-path="url(#pbdb5806992)" d="M 116.810526 397.819466 
L 125.621053 384.585064 
L 134.431579 399.400583 
L 143.242105 377.592416 
L 152.052632 394.246608 
L 160.863158 364.636911 
L 169.673684 385.36266 
L 178.484211 384.858344 
L 187.294737 382.689434 
L 196.105263 378.452003 
L 204.915789 394.616264 
L 213.726316 371.485055 
L 222.536842 362.17874 
L 231.347368 370.476513 
L 240.157895 365.357431 
L 248.968421 379.197812 
L 257.778947 371.053858 
L 266.589474 370.003361 
L 275.4 351.901331 
L 284.210526 389.372747 
L 293.021053 372.204735 
L 301.831579 388.316569 
L 310.642105 348.497728 
L 319.452632 350.329252 
L 328.263158 357.701084 
L 337.073684 367.504218 
L 345.884211 373.2269 
L 354.694737 387.147978 
L 363.505263 345.489947 
L 372.315789 366.348908 
L 381.126316 324.416145 
L 389.936842 338.864576 
L 398.747368 375.395418 
L 407.557895 371.147003 
L 416.368421 359.146198 
L 425.178947 353.862857 
L 433.989474 349.226879 
L 442.8 329.871536 
L 451.610526 343.307907 
L 460.421053 348.685714 
L 469.231579 361.340952 
L 478.042105 383.293789 
L 486.852632 375.376385 
L 495.663158 350.462185 
L 504.473684 291.48055 
L 513.284211 361.963563 
L 522.094737 384.891877 
L 530.905263 353.110623 
L 539.715789 326.707278 
L 548.526316 325.337815 
L 557.336842 327.286857 
L 566.147368 388.746939 
L 574.957895 357.465664 
L 583.768421 331.190542 
L 592.578947 359.215496 
L 601.389474 349.216703 
L 610.2 339.689368 
L 619.010526 393.776959 
L 627.821053 312.880078 
L 636.631579 283.324286 
L 645.442105 328.773626 
L 654.252632 331.428571 
L 671.873684 316.404706 
L 680.684211 305.918012 
L 698.305263 343.581489 
L 707.115789 140.161905 
L 715.926316 379.181213 
L 724.736842 380.867954 
L 733.547368 215.460571 
L 742.357895 384.108271 
L 768.789474 388.661121 
L 777.6 276.205714 
L 786.410526 363.386243 
L 830.463158 437.780731 
L 848.084211 193.371429 
L 856.894737 350.430819 
L 865 305.431698 
" style="fill:none;stroke:#377eb8;stroke-linecap:round;stroke-width:1.5;"/>
   </g>
   <g id="line2d_20">
    <path clip-path="url(#pbdb5806992)" d="M 116.810526 386.808228 
L 125.621053 385.916276 
L 134.431579 385.024325 
L 143.242105 384.132374 
L 152.052632 383.240422 
L 160.863158 382.348471 
L 169.673684 381.456519 
L 178.484211 380.564568 
L 187.294737 379.672616 
L 196.105263 378.780665 
L 204.915789 377.888714 
L 213.726316 376.996762 
L 222.536842 376.104811 
L 231.347368 375.212859 
L 240.157895 374.320908 
L 248.968421 373.428956 
L 257.778947 372.537005 
L 266.589474 371.645054 
L 275.4 370.753102 
L 284.210526 369.861151 
L 293.021053 368.969199 
L 301.831579 368.077248 
L 310.642105 367.185296 
L 319.452632 366.293345 
L 328.263158 365.401394 
L 337.073684 364.509442 
L 345.884211 363.617491 
L 354.694737 362.725539 
L 363.505263 361.833588 
L 372.315789 360.941636 
L 381.126316 360.049685 
L 389.936842 359.157734 
L 398.747368 358.265782 
L 407.557895 357.373831 
L 416.368421 356.481879 
L 425.178947 355.589928 
L 433.989474 354.697976 
L 442.8 353.806025 
L 451.610526 352.914074 
L 460.421053 352.022122 
L 469.231579 351.130171 
L 478.042105 350.238219 
L 486.852632 349.346268 
L 495.663158 348.454316 
L 504.473684 347.562365 
L 513.284211 346.670414 
L 522.094737 345.778462 
L 530.905263 344.886511 
L 539.715789 343.994559 
L 548.526316 343.102608 
L 557.336842 342.210656 
L 566.147368 341.318705 
L 574.957895 340.426754 
L 583.768421 339.534802 
L 592.578947 338.642851 
L 601.389474 337.750899 
L 610.2 336.858948 
L 619.010526 335.966996 
L 627.821053 335.075045 
L 636.631579 334.183094 
L 645.442105 333.291142 
L 654.252632 332.399191 
L 671.873684 330.615288 
L 680.684211 329.723336 
L 698.305263 327.939434 
L 707.115789 327.047482 
L 715.926316 326.155531 
L 724.736842 325.263579 
L 733.547368 324.371628 
L 742.357895 323.479676 
L 768.789474 320.803822 
L 777.6 319.911871 
L 786.410526 319.019919 
L 830.463158 314.560162 
L 848.084211 312.776259 
L 856.894737 311.884308 
L 865 311.063755 
" style="fill:none;stroke:#377eb8;stroke-dasharray:1.5,2.475;stroke-dashoffset:0;stroke-width:1.5;"/>
   </g>
   <g id="line2d_21">
    <path clip-path="url(#pbdb5806992)" d="M 116.810526 390.411521 
L 125.621053 424.115525 
L 134.431579 429.373515 
L 143.242105 438.189866 
L 152.052632 432.884282 
L 160.863158 446.911506 
L 169.673684 443.622068 
L 178.484211 443.574088 
L 187.294737 446.973665 
L 196.105263 430.177778 
L 204.915789 439.75033 
L 213.726316 451.432088 
L 222.536842 450.205729 
L 231.347368 438.578854 
L 240.157895 432.974094 
L 248.968421 439.781398 
L 257.778947 435.87337 
L 266.589474 443.769188 
L 275.4 431.134126 
L 284.210526 447.781538 
L 293.021053 427.526204 
L 301.831579 443.606444 
L 310.642105 433.693122 
L 319.452632 433.19093 
L 328.263158 434.287094 
L 337.073684 429.876463 
L 345.884211 425.53614 
L 354.694737 442.216173 
L 363.505263 410.683598 
L 372.315789 435.783529 
L 381.126316 423.247528 
L 389.936842 448.440418 
L 398.747368 434.225174 
L 407.557895 437.573501 
L 416.368421 458.441143 
L 425.178947 440.148571 
L 433.989474 420.660627 
L 442.8 424.07218 
L 451.610526 421.005183 
L 460.421053 457.405714 
L 469.231579 476.388571 
L 478.042105 445.19441 
L 486.852632 444.348469 
L 495.663158 434.210084 
L 504.473684 426.51895 
L 513.284211 445.041479 
L 522.094737 451.890196 
L 530.905263 396.917216 
L 539.715789 431.471159 
L 548.526316 437.001681 
L 557.336842 429.449143 
L 566.147368 429.42449 
L 574.957895 419.631746 
L 583.768421 417.595271 
L 592.578947 397.824697 
L 601.389474 430.989011 
L 610.2 414.376019 
L 619.010526 476.44424 
L 627.821053 405.857337 
L 636.631579 404.34 
L 645.442105 468.954725 
L 654.252632 492.495238 
L 671.873684 470.50084 
L 680.684211 385.150807 
L 698.305263 439.832596 
L 707.115789 424.904762 
L 715.926316 441.590607 
L 724.736842 442.433977 
L 733.547368 359.730286 
L 742.357895 454.045113 
L 768.789474 475.16528 
L 777.6 333.154286 
L 786.410526 466.502998 
L 830.463158 305.342193 
L 848.084211 374.571429 
L 856.894737 478.405136 
L 865 408.813474 
" style="fill:none;stroke:#4daf4a;stroke-linecap:round;stroke-width:1.5;"/>
   </g>
   <g id="line2d_22">
    <path clip-path="url(#pbdb5806992)" d="M 116.810526 441.664948 
L 125.621053 441.410976 
L 134.431579 441.157004 
L 143.242105 440.903032 
L 152.052632 440.64906 
L 160.863158 440.395088 
L 169.673684 440.141116 
L 178.484211 439.887144 
L 187.294737 439.633172 
L 196.105263 439.3792 
L 204.915789 439.125228 
L 213.726316 438.871256 
L 222.536842 438.617285 
L 231.347368 438.363313 
L 240.157895 438.109341 
L 248.968421 437.855369 
L 257.778947 437.601397 
L 266.589474 437.347425 
L 275.4 437.093453 
L 284.210526 436.839481 
L 293.021053 436.585509 
L 301.831579 436.331537 
L 310.642105 436.077565 
L 319.452632 435.823593 
L 328.263158 435.569621 
L 337.073684 435.315649 
L 345.884211 435.061677 
L 354.694737 434.807705 
L 363.505263 434.553734 
L 372.315789 434.299762 
L 381.126316 434.04579 
L 389.936842 433.791818 
L 398.747368 433.537846 
L 407.557895 433.283874 
L 416.368421 433.029902 
L 425.178947 432.77593 
L 433.989474 432.521958 
L 442.8 432.267986 
L 451.610526 432.014014 
L 460.421053 431.760042 
L 469.231579 431.50607 
L 478.042105 431.252098 
L 486.852632 430.998126 
L 495.663158 430.744154 
L 504.473684 430.490183 
L 513.284211 430.236211 
L 522.094737 429.982239 
L 530.905263 429.728267 
L 539.715789 429.474295 
L 548.526316 429.220323 
L 557.336842 428.966351 
L 566.147368 428.712379 
L 574.957895 428.458407 
L 583.768421 428.204435 
L 592.578947 427.950463 
L 601.389474 427.696491 
L 610.2 427.442519 
L 619.010526 427.188547 
L 627.821053 426.934575 
L 636.631579 426.680603 
L 645.442105 426.426632 
L 654.252632 426.17266 
L 671.873684 425.664716 
L 680.684211 425.410744 
L 698.305263 424.9028 
L 707.115789 424.648828 
L 715.926316 424.394856 
L 724.736842 424.140884 
L 733.547368 423.886912 
L 742.357895 423.63294 
L 768.789474 422.871024 
L 777.6 422.617052 
L 786.410526 422.363081 
L 830.463158 421.093221 
L 848.084211 420.585277 
L 856.894737 420.331305 
L 865 420.097663 
" style="fill:none;stroke:#4daf4a;stroke-dasharray:1.5,2.475;stroke-dashoffset:0;stroke-width:1.5;"/>
   </g>
   <g id="patch_82">
    <path d="M 108 504 
L 108 69.12 
" style="fill:none;stroke:#ffffff;stroke-linecap:square;stroke-linejoin:miter;stroke-width:1.25;"/>
   </g>
   <g id="patch_83">
    <path d="M 777.6 504 
L 777.6 69.12 
" style="fill:none;stroke:#ffffff;stroke-linecap:square;stroke-linejoin:miter;stroke-width:1.25;"/>
   </g>
   <g id="patch_84">
    <path d="M 108 504 
L 777.6 504 
" style="fill:none;stroke:#ffffff;stroke-linecap:square;stroke-linejoin:miter;stroke-width:1.25;"/>
   </g>
   <g id="patch_85">
    <path d="M 108 69.12 
L 777.6 69.12 
" style="fill:none;stroke:#ffffff;stroke-linecap:square;stroke-linejoin:miter;stroke-width:1.25;"/>
   </g>
   <g id="text_19">
    <!-- performance de l'analyseur en fonction de la taille de la phrase -->
    <defs>
     <path d="M 37.109375 75.984375 
L 37.109375 68.5 
L 28.515625 68.5 
Q 23.6875 68.5 21.796875 66.546875 
Q 19.921875 64.59375 19.921875 59.515625 
L 19.921875 54.6875 
L 34.71875 54.6875 
L 34.71875 47.703125 
L 19.921875 47.703125 
L 19.921875 0 
L 10.890625 0 
L 10.890625 47.703125 
L 2.296875 47.703125 
L 2.296875 54.6875 
L 10.890625 54.6875 
L 10.890625 58.5 
Q 10.890625 67.625 15.140625 71.796875 
Q 19.390625 75.984375 28.609375 75.984375 
z
" id="DejaVuSans-102"/>
     <path d="M 52 44.1875 
Q 55.375 50.25 60.0625 53.125 
Q 64.75 56 71.09375 56 
Q 79.640625 56 84.28125 50.015625 
Q 88.921875 44.046875 88.921875 33.015625 
L 88.921875 0 
L 79.890625 0 
L 79.890625 32.71875 
Q 79.890625 40.578125 77.09375 44.375 
Q 74.3125 48.1875 68.609375 48.1875 
Q 61.625 48.1875 57.5625 43.546875 
Q 53.515625 38.921875 53.515625 30.90625 
L 53.515625 0 
L 44.484375 0 
L 44.484375 32.71875 
Q 44.484375 40.625 41.703125 44.40625 
Q 38.921875 48.1875 33.109375 48.1875 
Q 26.21875 48.1875 22.15625 43.53125 
Q 18.109375 38.875 18.109375 30.90625 
L 18.109375 0 
L 9.078125 0 
L 9.078125 54.6875 
L 18.109375 54.6875 
L 18.109375 46.1875 
Q 21.1875 51.21875 25.484375 53.609375 
Q 29.78125 56 35.6875 56 
Q 41.65625 56 45.828125 52.96875 
Q 50 49.953125 52 44.1875 
z
" id="DejaVuSans-109"/>
     <path d="M 48.78125 52.59375 
L 48.78125 44.1875 
Q 44.96875 46.296875 41.140625 47.34375 
Q 37.3125 48.390625 33.40625 48.390625 
Q 24.65625 48.390625 19.8125 42.84375 
Q 14.984375 37.3125 14.984375 27.296875 
Q 14.984375 17.28125 19.8125 11.734375 
Q 24.65625 6.203125 33.40625 6.203125 
Q 37.3125 6.203125 41.140625 7.25 
Q 44.96875 8.296875 48.78125 10.40625 
L 48.78125 2.09375 
Q 45.015625 0.34375 40.984375 -0.53125 
Q 36.96875 -1.421875 32.421875 -1.421875 
Q 20.0625 -1.421875 12.78125 6.34375 
Q 5.515625 14.109375 5.515625 27.296875 
Q 5.515625 40.671875 12.859375 48.328125 
Q 20.21875 56 33.015625 56 
Q 37.15625 56 41.109375 55.140625 
Q 45.0625 54.296875 48.78125 52.59375 
z
" id="DejaVuSans-99"/>
     <path d="M 32.171875 -5.078125 
Q 28.375 -14.84375 24.75 -17.8125 
Q 21.140625 -20.796875 15.09375 -20.796875 
L 7.90625 -20.796875 
L 7.90625 -13.28125 
L 13.1875 -13.28125 
Q 16.890625 -13.28125 18.9375 -11.515625 
Q 21 -9.765625 23.484375 -3.21875 
L 25.09375 0.875 
L 2.984375 54.6875 
L 12.5 54.6875 
L 29.59375 11.921875 
L 46.6875 54.6875 
L 56.203125 54.6875 
z
" id="DejaVuSans-121"/>
    </defs>
    <g style="fill:#262626;" transform="translate(252.170625 63.12)scale(0.12 -0.12)">
     <use xlink:href="#DejaVuSans-112"/>
     <use x="63.476562" xlink:href="#DejaVuSans-101"/>
     <use x="125" xlink:href="#DejaVuSans-114"/>
     <use x="166.113281" xlink:href="#DejaVuSans-102"/>
     <use x="201.318359" xlink:href="#DejaVuSans-111"/>
     <use x="262.5" xlink:href="#DejaVuSans-114"/>
     <use x="301.863281" xlink:href="#DejaVuSans-109"/>
     <use x="399.275391" xlink:href="#DejaVuSans-97"/>
     <use x="460.554688" xlink:href="#DejaVuSans-110"/>
     <use x="523.933594" xlink:href="#DejaVuSans-99"/>
     <use x="578.914062" xlink:href="#DejaVuSans-101"/>
     <use x="640.4375" xlink:href="#DejaVuSans-32"/>
     <use x="672.224609" xlink:href="#DejaVuSans-100"/>
     <use x="735.701172" xlink:href="#DejaVuSans-101"/>
     <use x="797.224609" xlink:href="#DejaVuSans-32"/>
     <use x="829.011719" xlink:href="#DejaVuSans-108"/>
     <use x="856.794922" xlink:href="#DejaVuSans-39"/>
     <use x="884.285156" xlink:href="#DejaVuSans-97"/>
     <use x="945.564453" xlink:href="#DejaVuSans-110"/>
     <use x="1008.943359" xlink:href="#DejaVuSans-97"/>
     <use x="1070.222656" xlink:href="#DejaVuSans-108"/>
     <use x="1098.005859" xlink:href="#DejaVuSans-121"/>
     <use x="1157.185547" xlink:href="#DejaVuSans-115"/>
     <use x="1209.285156" xlink:href="#DejaVuSans-101"/>
     <use x="1270.808594" xlink:href="#DejaVuSans-117"/>
     <use x="1334.1875" xlink:href="#DejaVuSans-114"/>
     <use x="1375.300781" xlink:href="#DejaVuSans-32"/>
     <use x="1407.087891" xlink:href="#DejaVuSans-101"/>
     <use x="1468.611328" xlink:href="#DejaVuSans-110"/>
     <use x="1531.990234" xlink:href="#DejaVuSans-32"/>
     <use x="1563.777344" xlink:href="#DejaVuSans-102"/>
     <use x="1598.982422" xlink:href="#DejaVuSans-111"/>
     <use x="1660.164062" xlink:href="#DejaVuSans-110"/>
     <use x="1723.542969" xlink:href="#DejaVuSans-99"/>
     <use x="1778.523438" xlink:href="#DejaVuSans-116"/>
     <use x="1817.732422" xlink:href="#DejaVuSans-105"/>
     <use x="1845.515625" xlink:href="#DejaVuSans-111"/>
     <use x="1906.697266" xlink:href="#DejaVuSans-110"/>
     <use x="1970.076172" xlink:href="#DejaVuSans-32"/>
     <use x="2001.863281" xlink:href="#DejaVuSans-100"/>
     <use x="2065.339844" xlink:href="#DejaVuSans-101"/>
     <use x="2126.863281" xlink:href="#DejaVuSans-32"/>
     <use x="2158.650391" xlink:href="#DejaVuSans-108"/>
     <use x="2186.433594" xlink:href="#DejaVuSans-97"/>
     <use x="2247.712891" xlink:href="#DejaVuSans-32"/>
     <use x="2279.5" xlink:href="#DejaVuSans-116"/>
     <use x="2318.708984" xlink:href="#DejaVuSans-97"/>
     <use x="2379.988281" xlink:href="#DejaVuSans-105"/>
     <use x="2407.771484" xlink:href="#DejaVuSans-108"/>
     <use x="2435.554688" xlink:href="#DejaVuSans-108"/>
     <use x="2463.337891" xlink:href="#DejaVuSans-101"/>
     <use x="2524.861328" xlink:href="#DejaVuSans-32"/>
     <use x="2556.648438" xlink:href="#DejaVuSans-100"/>
     <use x="2620.125" xlink:href="#DejaVuSans-101"/>
     <use x="2681.648438" xlink:href="#DejaVuSans-32"/>
     <use x="2713.435547" xlink:href="#DejaVuSans-108"/>
     <use x="2741.21875" xlink:href="#DejaVuSans-97"/>
     <use x="2802.498047" xlink:href="#DejaVuSans-32"/>
     <use x="2834.285156" xlink:href="#DejaVuSans-112"/>
     <use x="2897.761719" xlink:href="#DejaVuSans-104"/>
     <use x="2961.140625" xlink:href="#DejaVuSans-114"/>
     <use x="3002.253906" xlink:href="#DejaVuSans-97"/>
     <use x="3063.533203" xlink:href="#DejaVuSans-115"/>
     <use x="3115.632812" xlink:href="#DejaVuSans-101"/>
    </g>
   </g>
   <g id="legend_1">
    <g id="patch_86">
     <path d="M 115 137.0325 
L 288.214063 137.0325 
Q 290.214063 137.0325 290.214063 135.0325 
L 290.214063 76.12 
Q 290.214063 74.12 288.214063 74.12 
L 115 74.12 
Q 113 74.12 113 76.12 
L 113 135.0325 
Q 113 137.0325 115 137.0325 
z
" style="fill:#eaeaf2;opacity:0.8;stroke:#cccccc;stroke-linejoin:miter;"/>
    </g>
    <g id="line2d_23">
     <path d="M 117 82.618438 
L 137 82.618438 
" style="fill:none;stroke:#e41a1c;stroke-linecap:round;stroke-width:1.5;"/>
    </g>
    <g id="line2d_24"/>
    <g id="text_20">
     <!-- prédiction head -->
     <g style="fill:#262626;" transform="translate(145 86.118438)scale(0.1 -0.1)">
      <use xlink:href="#DejaVuSans-112"/>
      <use x="63.476562" xlink:href="#DejaVuSans-114"/>
      <use x="102.339844" xlink:href="#DejaVuSans-233"/>
      <use x="163.863281" xlink:href="#DejaVuSans-100"/>
      <use x="227.339844" xlink:href="#DejaVuSans-105"/>
      <use x="255.123047" xlink:href="#DejaVuSans-99"/>
      <use x="310.103516" xlink:href="#DejaVuSans-116"/>
      <use x="349.3125" xlink:href="#DejaVuSans-105"/>
      <use x="377.095703" xlink:href="#DejaVuSans-111"/>
      <use x="438.277344" xlink:href="#DejaVuSans-110"/>
      <use x="501.65625" xlink:href="#DejaVuSans-32"/>
      <use x="533.443359" xlink:href="#DejaVuSans-104"/>
      <use x="596.822266" xlink:href="#DejaVuSans-101"/>
      <use x="658.345703" xlink:href="#DejaVuSans-97"/>
      <use x="719.625" xlink:href="#DejaVuSans-100"/>
     </g>
    </g>
    <g id="line2d_25">
     <path d="M 117 97.696563 
L 137 97.696563 
" style="fill:none;stroke:#377eb8;stroke-linecap:round;stroke-width:1.5;"/>
    </g>
    <g id="line2d_26"/>
    <g id="text_21">
     <!-- prédiction deprel -->
     <g style="fill:#262626;" transform="translate(145 101.196563)scale(0.1 -0.1)">
      <use xlink:href="#DejaVuSans-112"/>
      <use x="63.476562" xlink:href="#DejaVuSans-114"/>
      <use x="102.339844" xlink:href="#DejaVuSans-233"/>
      <use x="163.863281" xlink:href="#DejaVuSans-100"/>
      <use x="227.339844" xlink:href="#DejaVuSans-105"/>
      <use x="255.123047" xlink:href="#DejaVuSans-99"/>
      <use x="310.103516" xlink:href="#DejaVuSans-116"/>
      <use x="349.3125" xlink:href="#DejaVuSans-105"/>
      <use x="377.095703" xlink:href="#DejaVuSans-111"/>
      <use x="438.277344" xlink:href="#DejaVuSans-110"/>
      <use x="501.65625" xlink:href="#DejaVuSans-32"/>
      <use x="533.443359" xlink:href="#DejaVuSans-100"/>
      <use x="596.919922" xlink:href="#DejaVuSans-101"/>
      <use x="658.443359" xlink:href="#DejaVuSans-112"/>
      <use x="721.919922" xlink:href="#DejaVuSans-114"/>
      <use x="760.783203" xlink:href="#DejaVuSans-101"/>
      <use x="822.306641" xlink:href="#DejaVuSans-108"/>
     </g>
    </g>
    <g id="line2d_27">
     <path d="M 117 112.774688 
L 137 112.774688 
" style="fill:none;stroke:#4daf4a;stroke-linecap:round;stroke-width:1.5;"/>
    </g>
    <g id="line2d_28"/>
    <g id="text_22">
     <!-- prédiction pos -->
     <g style="fill:#262626;" transform="translate(145 116.274688)scale(0.1 -0.1)">
      <use xlink:href="#DejaVuSans-112"/>
      <use x="63.476562" xlink:href="#DejaVuSans-114"/>
      <use x="102.339844" xlink:href="#DejaVuSans-233"/>
      <use x="163.863281" xlink:href="#DejaVuSans-100"/>
      <use x="227.339844" xlink:href="#DejaVuSans-105"/>
      <use x="255.123047" xlink:href="#DejaVuSans-99"/>
      <use x="310.103516" xlink:href="#DejaVuSans-116"/>
      <use x="349.3125" xlink:href="#DejaVuSans-105"/>
      <use x="377.095703" xlink:href="#DejaVuSans-111"/>
      <use x="438.277344" xlink:href="#DejaVuSans-110"/>
      <use x="501.65625" xlink:href="#DejaVuSans-32"/>
      <use x="533.443359" xlink:href="#DejaVuSans-112"/>
      <use x="596.919922" xlink:href="#DejaVuSans-111"/>
      <use x="658.101562" xlink:href="#DejaVuSans-115"/>
     </g>
    </g>
    <g id="patch_87">
     <path d="M 117 130.952813 
L 137 130.952813 
L 137 123.952813 
L 117 123.952813 
z
" style="fill:#808080;opacity:0.3;stroke:#ffffff;stroke-linejoin:miter;"/>
    </g>
    <g id="text_23">
     <!-- distribution /taille de phrase -->
     <defs>
      <path d="M 25.390625 72.90625 
L 33.6875 72.90625 
L 8.296875 -9.28125 
L 0 -9.28125 
z
" id="DejaVuSans-47"/>
     </defs>
     <g style="fill:#262626;" transform="translate(145 130.952813)scale(0.1 -0.1)">
      <use xlink:href="#DejaVuSans-100"/>
      <use x="63.476562" xlink:href="#DejaVuSans-105"/>
      <use x="91.259766" xlink:href="#DejaVuSans-115"/>
      <use x="143.359375" xlink:href="#DejaVuSans-116"/>
      <use x="182.568359" xlink:href="#DejaVuSans-114"/>
      <use x="223.681641" xlink:href="#DejaVuSans-105"/>
      <use x="251.464844" xlink:href="#DejaVuSans-98"/>
      <use x="314.941406" xlink:href="#DejaVuSans-117"/>
      <use x="378.320312" xlink:href="#DejaVuSans-116"/>
      <use x="417.529297" xlink:href="#DejaVuSans-105"/>
      <use x="445.3125" xlink:href="#DejaVuSans-111"/>
      <use x="506.494141" xlink:href="#DejaVuSans-110"/>
      <use x="569.873047" xlink:href="#DejaVuSans-32"/>
      <use x="601.660156" xlink:href="#DejaVuSans-47"/>
      <use x="635.351562" xlink:href="#DejaVuSans-116"/>
      <use x="674.560547" xlink:href="#DejaVuSans-97"/>
      <use x="735.839844" xlink:href="#DejaVuSans-105"/>
      <use x="763.623047" xlink:href="#DejaVuSans-108"/>
      <use x="791.40625" xlink:href="#DejaVuSans-108"/>
      <use x="819.189453" xlink:href="#DejaVuSans-101"/>
      <use x="880.712891" xlink:href="#DejaVuSans-32"/>
      <use x="912.5" xlink:href="#DejaVuSans-100"/>
      <use x="975.976562" xlink:href="#DejaVuSans-101"/>
      <use x="1037.5" xlink:href="#DejaVuSans-32"/>
      <use x="1069.287109" xlink:href="#DejaVuSans-112"/>
      <use x="1132.763672" xlink:href="#DejaVuSans-104"/>
      <use x="1196.142578" xlink:href="#DejaVuSans-114"/>
      <use x="1237.255859" xlink:href="#DejaVuSans-97"/>
      <use x="1298.535156" xlink:href="#DejaVuSans-115"/>
      <use x="1350.634766" xlink:href="#DejaVuSans-101"/>
     </g>
    </g>
   </g>
  </g>
 </g>
 <defs>
  <clipPath id="pbdb5806992">
   <rect height="434.88" width="669.6" x="108" y="69.12"/>
  </clipPath>
 </defs>
</svg>
