<?xml version="1.0" encoding="utf-8" standalone="no"?>
<!DOCTYPE svg PUBLIC "-//W3C//DTD SVG 1.1//EN"
  "http://www.w3.org/Graphics/SVG/1.1/DTD/svg11.dtd">
<!-- Created with matplotlib (https://matplotlib.org/) -->
<svg height="360pt" version="1.1" viewBox="0 0 720 360" width="720pt" xmlns="http://www.w3.org/2000/svg" xmlns:xlink="http://www.w3.org/1999/xlink">
 <defs>
  <style type="text/css">
*{stroke-linecap:butt;stroke-linejoin:round;}
  </style>
 </defs>
 <g id="figure_1">
  <g id="patch_1">
   <path d="M 0 360 
L 720 360 
L 720 0 
L 0 0 
z
" style="fill:#ffffff;"/>
  </g>
  <g id="axes_1">
   <g id="matplotlib.axis_1">
    <g id="xtick_1">
     <g id="line2d_1">
      <path clip-path="url(#p600bec7faf)" d="M 90 315 
L 90 43.2 
" style="fill:none;stroke:#e6e6e6;stroke-linecap:square;stroke-width:0.8;"/>
     </g>
     <g id="line2d_2">
      <defs>
       <path d="M 0 0 
L 0 3.5 
" id="m3b75e41f24" style="stroke:#000000;stroke-width:0.8;"/>
      </defs>
      <g>
       <use style="stroke:#000000;stroke-width:0.8;" x="90" xlink:href="#m3b75e41f24" y="315"/>
      </g>
     </g>
     <g id="text_1">
      <!-- 0 -->
      <defs>
       <path d="M 31.78125 66.40625 
Q 24.171875 66.40625 20.328125 58.90625 
Q 16.5 51.421875 16.5 36.375 
Q 16.5 21.390625 20.328125 13.890625 
Q 24.171875 6.390625 31.78125 6.390625 
Q 39.453125 6.390625 43.28125 13.890625 
Q 47.125 21.390625 47.125 36.375 
Q 47.125 51.421875 43.28125 58.90625 
Q 39.453125 66.40625 31.78125 66.40625 
z
M 31.78125 74.21875 
Q 44.046875 74.21875 50.515625 64.515625 
Q 56.984375 54.828125 56.984375 36.375 
Q 56.984375 17.96875 50.515625 8.265625 
Q 44.046875 -1.421875 31.78125 -1.421875 
Q 19.53125 -1.421875 13.0625 8.265625 
Q 6.59375 17.96875 6.59375 36.375 
Q 6.59375 54.828125 13.0625 64.515625 
Q 19.53125 74.21875 31.78125 74.21875 
z
" id="DejaVuSans-48"/>
      </defs>
      <g transform="translate(86.81875 329.598437)scale(0.1 -0.1)">
       <use xlink:href="#DejaVuSans-48"/>
      </g>
     </g>
    </g>
    <g id="xtick_2">
     <g id="line2d_3">
      <path clip-path="url(#p600bec7faf)" d="M 145.8 315 
L 145.8 43.2 
" style="fill:none;stroke:#e6e6e6;stroke-linecap:square;stroke-width:0.8;"/>
     </g>
     <g id="line2d_4">
      <g>
       <use style="stroke:#000000;stroke-width:0.8;" x="145.8" xlink:href="#m3b75e41f24" y="315"/>
      </g>
     </g>
     <g id="text_2">
      <!-- 7 -->
      <defs>
       <path d="M 8.203125 72.90625 
L 55.078125 72.90625 
L 55.078125 68.703125 
L 28.609375 0 
L 18.3125 0 
L 43.21875 64.59375 
L 8.203125 64.59375 
z
" id="DejaVuSans-55"/>
      </defs>
      <g transform="translate(142.61875 329.598437)scale(0.1 -0.1)">
       <use xlink:href="#DejaVuSans-55"/>
      </g>
     </g>
    </g>
    <g id="xtick_3">
     <g id="line2d_5">
      <path clip-path="url(#p600bec7faf)" d="M 201.6 315 
L 201.6 43.2 
" style="fill:none;stroke:#e6e6e6;stroke-linecap:square;stroke-width:0.8;"/>
     </g>
     <g id="line2d_6">
      <g>
       <use style="stroke:#000000;stroke-width:0.8;" x="201.6" xlink:href="#m3b75e41f24" y="315"/>
      </g>
     </g>
     <g id="text_3">
      <!-- 14 -->
      <defs>
       <path d="M 12.40625 8.296875 
L 28.515625 8.296875 
L 28.515625 63.921875 
L 10.984375 60.40625 
L 10.984375 69.390625 
L 28.421875 72.90625 
L 38.28125 72.90625 
L 38.28125 8.296875 
L 54.390625 8.296875 
L 54.390625 0 
L 12.40625 0 
z
" id="DejaVuSans-49"/>
       <path d="M 37.796875 64.3125 
L 12.890625 25.390625 
L 37.796875 25.390625 
z
M 35.203125 72.90625 
L 47.609375 72.90625 
L 47.609375 25.390625 
L 58.015625 25.390625 
L 58.015625 17.1875 
L 47.609375 17.1875 
L 47.609375 0 
L 37.796875 0 
L 37.796875 17.1875 
L 4.890625 17.1875 
L 4.890625 26.703125 
z
" id="DejaVuSans-52"/>
      </defs>
      <g transform="translate(195.2375 329.598437)scale(0.1 -0.1)">
       <use xlink:href="#DejaVuSans-49"/>
       <use x="63.623047" xlink:href="#DejaVuSans-52"/>
      </g>
     </g>
    </g>
    <g id="xtick_4">
     <g id="line2d_7">
      <path clip-path="url(#p600bec7faf)" d="M 257.4 315 
L 257.4 43.2 
" style="fill:none;stroke:#e6e6e6;stroke-linecap:square;stroke-width:0.8;"/>
     </g>
     <g id="line2d_8">
      <g>
       <use style="stroke:#000000;stroke-width:0.8;" x="257.4" xlink:href="#m3b75e41f24" y="315"/>
      </g>
     </g>
     <g id="text_4">
      <!-- 21 -->
      <defs>
       <path d="M 19.1875 8.296875 
L 53.609375 8.296875 
L 53.609375 0 
L 7.328125 0 
L 7.328125 8.296875 
Q 12.9375 14.109375 22.625 23.890625 
Q 32.328125 33.6875 34.8125 36.53125 
Q 39.546875 41.84375 41.421875 45.53125 
Q 43.3125 49.21875 43.3125 52.78125 
Q 43.3125 58.59375 39.234375 62.25 
Q 35.15625 65.921875 28.609375 65.921875 
Q 23.96875 65.921875 18.8125 64.3125 
Q 13.671875 62.703125 7.8125 59.421875 
L 7.8125 69.390625 
Q 13.765625 71.78125 18.9375 73 
Q 24.125 74.21875 28.421875 74.21875 
Q 39.75 74.21875 46.484375 68.546875 
Q 53.21875 62.890625 53.21875 53.421875 
Q 53.21875 48.921875 51.53125 44.890625 
Q 49.859375 40.875 45.40625 35.40625 
Q 44.1875 33.984375 37.640625 27.21875 
Q 31.109375 20.453125 19.1875 8.296875 
z
" id="DejaVuSans-50"/>
      </defs>
      <g transform="translate(251.0375 329.598437)scale(0.1 -0.1)">
       <use xlink:href="#DejaVuSans-50"/>
       <use x="63.623047" xlink:href="#DejaVuSans-49"/>
      </g>
     </g>
    </g>
    <g id="xtick_5">
     <g id="line2d_9">
      <path clip-path="url(#p600bec7faf)" d="M 313.2 315 
L 313.2 43.2 
" style="fill:none;stroke:#e6e6e6;stroke-linecap:square;stroke-width:0.8;"/>
     </g>
     <g id="line2d_10">
      <g>
       <use style="stroke:#000000;stroke-width:0.8;" x="313.2" xlink:href="#m3b75e41f24" y="315"/>
      </g>
     </g>
     <g id="text_5">
      <!-- 28 -->
      <defs>
       <path d="M 31.78125 34.625 
Q 24.75 34.625 20.71875 30.859375 
Q 16.703125 27.09375 16.703125 20.515625 
Q 16.703125 13.921875 20.71875 10.15625 
Q 24.75 6.390625 31.78125 6.390625 
Q 38.8125 6.390625 42.859375 10.171875 
Q 46.921875 13.96875 46.921875 20.515625 
Q 46.921875 27.09375 42.890625 30.859375 
Q 38.875 34.625 31.78125 34.625 
z
M 21.921875 38.8125 
Q 15.578125 40.375 12.03125 44.71875 
Q 8.5 49.078125 8.5 55.328125 
Q 8.5 64.0625 14.71875 69.140625 
Q 20.953125 74.21875 31.78125 74.21875 
Q 42.671875 74.21875 48.875 69.140625 
Q 55.078125 64.0625 55.078125 55.328125 
Q 55.078125 49.078125 51.53125 44.71875 
Q 48 40.375 41.703125 38.8125 
Q 48.828125 37.15625 52.796875 32.3125 
Q 56.78125 27.484375 56.78125 20.515625 
Q 56.78125 9.90625 50.3125 4.234375 
Q 43.84375 -1.421875 31.78125 -1.421875 
Q 19.734375 -1.421875 13.25 4.234375 
Q 6.78125 9.90625 6.78125 20.515625 
Q 6.78125 27.484375 10.78125 32.3125 
Q 14.796875 37.15625 21.921875 38.8125 
z
M 18.3125 54.390625 
Q 18.3125 48.734375 21.84375 45.5625 
Q 25.390625 42.390625 31.78125 42.390625 
Q 38.140625 42.390625 41.71875 45.5625 
Q 45.3125 48.734375 45.3125 54.390625 
Q 45.3125 60.0625 41.71875 63.234375 
Q 38.140625 66.40625 31.78125 66.40625 
Q 25.390625 66.40625 21.84375 63.234375 
Q 18.3125 60.0625 18.3125 54.390625 
z
" id="DejaVuSans-56"/>
      </defs>
      <g transform="translate(306.8375 329.598437)scale(0.1 -0.1)">
       <use xlink:href="#DejaVuSans-50"/>
       <use x="63.623047" xlink:href="#DejaVuSans-56"/>
      </g>
     </g>
    </g>
    <g id="xtick_6">
     <g id="line2d_11">
      <path clip-path="url(#p600bec7faf)" d="M 369 315 
L 369 43.2 
" style="fill:none;stroke:#e6e6e6;stroke-linecap:square;stroke-width:0.8;"/>
     </g>
     <g id="line2d_12">
      <g>
       <use style="stroke:#000000;stroke-width:0.8;" x="369" xlink:href="#m3b75e41f24" y="315"/>
      </g>
     </g>
     <g id="text_6">
      <!-- 35 -->
      <defs>
       <path d="M 40.578125 39.3125 
Q 47.65625 37.796875 51.625 33 
Q 55.609375 28.21875 55.609375 21.1875 
Q 55.609375 10.40625 48.1875 4.484375 
Q 40.765625 -1.421875 27.09375 -1.421875 
Q 22.515625 -1.421875 17.65625 -0.515625 
Q 12.796875 0.390625 7.625 2.203125 
L 7.625 11.71875 
Q 11.71875 9.328125 16.59375 8.109375 
Q 21.484375 6.890625 26.8125 6.890625 
Q 36.078125 6.890625 40.9375 10.546875 
Q 45.796875 14.203125 45.796875 21.1875 
Q 45.796875 27.640625 41.28125 31.265625 
Q 36.765625 34.90625 28.71875 34.90625 
L 20.21875 34.90625 
L 20.21875 43.015625 
L 29.109375 43.015625 
Q 36.375 43.015625 40.234375 45.921875 
Q 44.09375 48.828125 44.09375 54.296875 
Q 44.09375 59.90625 40.109375 62.90625 
Q 36.140625 65.921875 28.71875 65.921875 
Q 24.65625 65.921875 20.015625 65.03125 
Q 15.375 64.15625 9.8125 62.3125 
L 9.8125 71.09375 
Q 15.4375 72.65625 20.34375 73.4375 
Q 25.25 74.21875 29.59375 74.21875 
Q 40.828125 74.21875 47.359375 69.109375 
Q 53.90625 64.015625 53.90625 55.328125 
Q 53.90625 49.265625 50.4375 45.09375 
Q 46.96875 40.921875 40.578125 39.3125 
z
" id="DejaVuSans-51"/>
       <path d="M 10.796875 72.90625 
L 49.515625 72.90625 
L 49.515625 64.59375 
L 19.828125 64.59375 
L 19.828125 46.734375 
Q 21.96875 47.46875 24.109375 47.828125 
Q 26.265625 48.1875 28.421875 48.1875 
Q 40.625 48.1875 47.75 41.5 
Q 54.890625 34.8125 54.890625 23.390625 
Q 54.890625 11.625 47.5625 5.09375 
Q 40.234375 -1.421875 26.90625 -1.421875 
Q 22.3125 -1.421875 17.546875 -0.640625 
Q 12.796875 0.140625 7.71875 1.703125 
L 7.71875 11.625 
Q 12.109375 9.234375 16.796875 8.0625 
Q 21.484375 6.890625 26.703125 6.890625 
Q 35.15625 6.890625 40.078125 11.328125 
Q 45.015625 15.765625 45.015625 23.390625 
Q 45.015625 31 40.078125 35.4375 
Q 35.15625 39.890625 26.703125 39.890625 
Q 22.75 39.890625 18.8125 39.015625 
Q 14.890625 38.140625 10.796875 36.28125 
z
" id="DejaVuSans-53"/>
      </defs>
      <g transform="translate(362.6375 329.598437)scale(0.1 -0.1)">
       <use xlink:href="#DejaVuSans-51"/>
       <use x="63.623047" xlink:href="#DejaVuSans-53"/>
      </g>
     </g>
    </g>
    <g id="xtick_7">
     <g id="line2d_13">
      <path clip-path="url(#p600bec7faf)" d="M 424.8 315 
L 424.8 43.2 
" style="fill:none;stroke:#e6e6e6;stroke-linecap:square;stroke-width:0.8;"/>
     </g>
     <g id="line2d_14">
      <g>
       <use style="stroke:#000000;stroke-width:0.8;" x="424.8" xlink:href="#m3b75e41f24" y="315"/>
      </g>
     </g>
     <g id="text_7">
      <!-- 42 -->
      <g transform="translate(418.4375 329.598437)scale(0.1 -0.1)">
       <use xlink:href="#DejaVuSans-52"/>
       <use x="63.623047" xlink:href="#DejaVuSans-50"/>
      </g>
     </g>
    </g>
    <g id="xtick_8">
     <g id="line2d_15">
      <path clip-path="url(#p600bec7faf)" d="M 480.6 315 
L 480.6 43.2 
" style="fill:none;stroke:#e6e6e6;stroke-linecap:square;stroke-width:0.8;"/>
     </g>
     <g id="line2d_16">
      <g>
       <use style="stroke:#000000;stroke-width:0.8;" x="480.6" xlink:href="#m3b75e41f24" y="315"/>
      </g>
     </g>
     <g id="text_8">
      <!-- 49 -->
      <defs>
       <path d="M 10.984375 1.515625 
L 10.984375 10.5 
Q 14.703125 8.734375 18.5 7.8125 
Q 22.3125 6.890625 25.984375 6.890625 
Q 35.75 6.890625 40.890625 13.453125 
Q 46.046875 20.015625 46.78125 33.40625 
Q 43.953125 29.203125 39.59375 26.953125 
Q 35.25 24.703125 29.984375 24.703125 
Q 19.046875 24.703125 12.671875 31.3125 
Q 6.296875 37.9375 6.296875 49.421875 
Q 6.296875 60.640625 12.9375 67.421875 
Q 19.578125 74.21875 30.609375 74.21875 
Q 43.265625 74.21875 49.921875 64.515625 
Q 56.59375 54.828125 56.59375 36.375 
Q 56.59375 19.140625 48.40625 8.859375 
Q 40.234375 -1.421875 26.421875 -1.421875 
Q 22.703125 -1.421875 18.890625 -0.6875 
Q 15.09375 0.046875 10.984375 1.515625 
z
M 30.609375 32.421875 
Q 37.25 32.421875 41.125 36.953125 
Q 45.015625 41.5 45.015625 49.421875 
Q 45.015625 57.28125 41.125 61.84375 
Q 37.25 66.40625 30.609375 66.40625 
Q 23.96875 66.40625 20.09375 61.84375 
Q 16.21875 57.28125 16.21875 49.421875 
Q 16.21875 41.5 20.09375 36.953125 
Q 23.96875 32.421875 30.609375 32.421875 
z
" id="DejaVuSans-57"/>
      </defs>
      <g transform="translate(474.2375 329.598437)scale(0.1 -0.1)">
       <use xlink:href="#DejaVuSans-52"/>
       <use x="63.623047" xlink:href="#DejaVuSans-57"/>
      </g>
     </g>
    </g>
    <g id="xtick_9">
     <g id="line2d_17">
      <path clip-path="url(#p600bec7faf)" d="M 536.4 315 
L 536.4 43.2 
" style="fill:none;stroke:#e6e6e6;stroke-linecap:square;stroke-width:0.8;"/>
     </g>
     <g id="line2d_18">
      <g>
       <use style="stroke:#000000;stroke-width:0.8;" x="536.4" xlink:href="#m3b75e41f24" y="315"/>
      </g>
     </g>
     <g id="text_9">
      <!-- 56 -->
      <defs>
       <path d="M 33.015625 40.375 
Q 26.375 40.375 22.484375 35.828125 
Q 18.609375 31.296875 18.609375 23.390625 
Q 18.609375 15.53125 22.484375 10.953125 
Q 26.375 6.390625 33.015625 6.390625 
Q 39.65625 6.390625 43.53125 10.953125 
Q 47.40625 15.53125 47.40625 23.390625 
Q 47.40625 31.296875 43.53125 35.828125 
Q 39.65625 40.375 33.015625 40.375 
z
M 52.59375 71.296875 
L 52.59375 62.3125 
Q 48.875 64.0625 45.09375 64.984375 
Q 41.3125 65.921875 37.59375 65.921875 
Q 27.828125 65.921875 22.671875 59.328125 
Q 17.53125 52.734375 16.796875 39.40625 
Q 19.671875 43.65625 24.015625 45.921875 
Q 28.375 48.1875 33.59375 48.1875 
Q 44.578125 48.1875 50.953125 41.515625 
Q 57.328125 34.859375 57.328125 23.390625 
Q 57.328125 12.15625 50.6875 5.359375 
Q 44.046875 -1.421875 33.015625 -1.421875 
Q 20.359375 -1.421875 13.671875 8.265625 
Q 6.984375 17.96875 6.984375 36.375 
Q 6.984375 53.65625 15.1875 63.9375 
Q 23.390625 74.21875 37.203125 74.21875 
Q 40.921875 74.21875 44.703125 73.484375 
Q 48.484375 72.75 52.59375 71.296875 
z
" id="DejaVuSans-54"/>
      </defs>
      <g transform="translate(530.0375 329.598437)scale(0.1 -0.1)">
       <use xlink:href="#DejaVuSans-53"/>
       <use x="63.623047" xlink:href="#DejaVuSans-54"/>
      </g>
     </g>
    </g>
    <g id="xtick_10">
     <g id="line2d_19">
      <path clip-path="url(#p600bec7faf)" d="M 592.2 315 
L 592.2 43.2 
" style="fill:none;stroke:#e6e6e6;stroke-linecap:square;stroke-width:0.8;"/>
     </g>
     <g id="line2d_20">
      <g>
       <use style="stroke:#000000;stroke-width:0.8;" x="592.2" xlink:href="#m3b75e41f24" y="315"/>
      </g>
     </g>
     <g id="text_10">
      <!-- 63 -->
      <g transform="translate(585.8375 329.598437)scale(0.1 -0.1)">
       <use xlink:href="#DejaVuSans-54"/>
       <use x="63.623047" xlink:href="#DejaVuSans-51"/>
      </g>
     </g>
    </g>
    <g id="text_11">
     <!-- entrainement (epoch) -->
     <defs>
      <path d="M 56.203125 29.59375 
L 56.203125 25.203125 
L 14.890625 25.203125 
Q 15.484375 15.921875 20.484375 11.0625 
Q 25.484375 6.203125 34.421875 6.203125 
Q 39.59375 6.203125 44.453125 7.46875 
Q 49.3125 8.734375 54.109375 11.28125 
L 54.109375 2.78125 
Q 49.265625 0.734375 44.1875 -0.34375 
Q 39.109375 -1.421875 33.890625 -1.421875 
Q 20.796875 -1.421875 13.15625 6.1875 
Q 5.515625 13.8125 5.515625 26.8125 
Q 5.515625 40.234375 12.765625 48.109375 
Q 20.015625 56 32.328125 56 
Q 43.359375 56 49.78125 48.890625 
Q 56.203125 41.796875 56.203125 29.59375 
z
M 47.21875 32.234375 
Q 47.125 39.59375 43.09375 43.984375 
Q 39.0625 48.390625 32.421875 48.390625 
Q 24.90625 48.390625 20.390625 44.140625 
Q 15.875 39.890625 15.1875 32.171875 
z
" id="DejaVuSans-101"/>
      <path d="M 54.890625 33.015625 
L 54.890625 0 
L 45.90625 0 
L 45.90625 32.71875 
Q 45.90625 40.484375 42.875 44.328125 
Q 39.84375 48.1875 33.796875 48.1875 
Q 26.515625 48.1875 22.3125 43.546875 
Q 18.109375 38.921875 18.109375 30.90625 
L 18.109375 0 
L 9.078125 0 
L 9.078125 54.6875 
L 18.109375 54.6875 
L 18.109375 46.1875 
Q 21.34375 51.125 25.703125 53.5625 
Q 30.078125 56 35.796875 56 
Q 45.21875 56 50.046875 50.171875 
Q 54.890625 44.34375 54.890625 33.015625 
z
" id="DejaVuSans-110"/>
      <path d="M 18.3125 70.21875 
L 18.3125 54.6875 
L 36.8125 54.6875 
L 36.8125 47.703125 
L 18.3125 47.703125 
L 18.3125 18.015625 
Q 18.3125 11.328125 20.140625 9.421875 
Q 21.96875 7.515625 27.59375 7.515625 
L 36.8125 7.515625 
L 36.8125 0 
L 27.59375 0 
Q 17.1875 0 13.234375 3.875 
Q 9.28125 7.765625 9.28125 18.015625 
L 9.28125 47.703125 
L 2.6875 47.703125 
L 2.6875 54.6875 
L 9.28125 54.6875 
L 9.28125 70.21875 
z
" id="DejaVuSans-116"/>
      <path d="M 41.109375 46.296875 
Q 39.59375 47.171875 37.8125 47.578125 
Q 36.03125 48 33.890625 48 
Q 26.265625 48 22.1875 43.046875 
Q 18.109375 38.09375 18.109375 28.8125 
L 18.109375 0 
L 9.078125 0 
L 9.078125 54.6875 
L 18.109375 54.6875 
L 18.109375 46.1875 
Q 20.953125 51.171875 25.484375 53.578125 
Q 30.03125 56 36.53125 56 
Q 37.453125 56 38.578125 55.875 
Q 39.703125 55.765625 41.0625 55.515625 
z
" id="DejaVuSans-114"/>
      <path d="M 34.28125 27.484375 
Q 23.390625 27.484375 19.1875 25 
Q 14.984375 22.515625 14.984375 16.5 
Q 14.984375 11.71875 18.140625 8.90625 
Q 21.296875 6.109375 26.703125 6.109375 
Q 34.1875 6.109375 38.703125 11.40625 
Q 43.21875 16.703125 43.21875 25.484375 
L 43.21875 27.484375 
z
M 52.203125 31.203125 
L 52.203125 0 
L 43.21875 0 
L 43.21875 8.296875 
Q 40.140625 3.328125 35.546875 0.953125 
Q 30.953125 -1.421875 24.3125 -1.421875 
Q 15.921875 -1.421875 10.953125 3.296875 
Q 6 8.015625 6 15.921875 
Q 6 25.140625 12.171875 29.828125 
Q 18.359375 34.515625 30.609375 34.515625 
L 43.21875 34.515625 
L 43.21875 35.40625 
Q 43.21875 41.609375 39.140625 45 
Q 35.0625 48.390625 27.6875 48.390625 
Q 23 48.390625 18.546875 47.265625 
Q 14.109375 46.140625 10.015625 43.890625 
L 10.015625 52.203125 
Q 14.9375 54.109375 19.578125 55.046875 
Q 24.21875 56 28.609375 56 
Q 40.484375 56 46.34375 49.84375 
Q 52.203125 43.703125 52.203125 31.203125 
z
" id="DejaVuSans-97"/>
      <path d="M 9.421875 54.6875 
L 18.40625 54.6875 
L 18.40625 0 
L 9.421875 0 
z
M 9.421875 75.984375 
L 18.40625 75.984375 
L 18.40625 64.59375 
L 9.421875 64.59375 
z
" id="DejaVuSans-105"/>
      <path d="M 52 44.1875 
Q 55.375 50.25 60.0625 53.125 
Q 64.75 56 71.09375 56 
Q 79.640625 56 84.28125 50.015625 
Q 88.921875 44.046875 88.921875 33.015625 
L 88.921875 0 
L 79.890625 0 
L 79.890625 32.71875 
Q 79.890625 40.578125 77.09375 44.375 
Q 74.3125 48.1875 68.609375 48.1875 
Q 61.625 48.1875 57.5625 43.546875 
Q 53.515625 38.921875 53.515625 30.90625 
L 53.515625 0 
L 44.484375 0 
L 44.484375 32.71875 
Q 44.484375 40.625 41.703125 44.40625 
Q 38.921875 48.1875 33.109375 48.1875 
Q 26.21875 48.1875 22.15625 43.53125 
Q 18.109375 38.875 18.109375 30.90625 
L 18.109375 0 
L 9.078125 0 
L 9.078125 54.6875 
L 18.109375 54.6875 
L 18.109375 46.1875 
Q 21.1875 51.21875 25.484375 53.609375 
Q 29.78125 56 35.6875 56 
Q 41.65625 56 45.828125 52.96875 
Q 50 49.953125 52 44.1875 
z
" id="DejaVuSans-109"/>
      <path id="DejaVuSans-32"/>
      <path d="M 31 75.875 
Q 24.46875 64.65625 21.28125 53.65625 
Q 18.109375 42.671875 18.109375 31.390625 
Q 18.109375 20.125 21.3125 9.0625 
Q 24.515625 -2 31 -13.1875 
L 23.1875 -13.1875 
Q 15.875 -1.703125 12.234375 9.375 
Q 8.59375 20.453125 8.59375 31.390625 
Q 8.59375 42.28125 12.203125 53.3125 
Q 15.828125 64.359375 23.1875 75.875 
z
" id="DejaVuSans-40"/>
      <path d="M 18.109375 8.203125 
L 18.109375 -20.796875 
L 9.078125 -20.796875 
L 9.078125 54.6875 
L 18.109375 54.6875 
L 18.109375 46.390625 
Q 20.953125 51.265625 25.265625 53.625 
Q 29.59375 56 35.59375 56 
Q 45.5625 56 51.78125 48.09375 
Q 58.015625 40.1875 58.015625 27.296875 
Q 58.015625 14.40625 51.78125 6.484375 
Q 45.5625 -1.421875 35.59375 -1.421875 
Q 29.59375 -1.421875 25.265625 0.953125 
Q 20.953125 3.328125 18.109375 8.203125 
z
M 48.6875 27.296875 
Q 48.6875 37.203125 44.609375 42.84375 
Q 40.53125 48.484375 33.40625 48.484375 
Q 26.265625 48.484375 22.1875 42.84375 
Q 18.109375 37.203125 18.109375 27.296875 
Q 18.109375 17.390625 22.1875 11.75 
Q 26.265625 6.109375 33.40625 6.109375 
Q 40.53125 6.109375 44.609375 11.75 
Q 48.6875 17.390625 48.6875 27.296875 
z
" id="DejaVuSans-112"/>
      <path d="M 30.609375 48.390625 
Q 23.390625 48.390625 19.1875 42.75 
Q 14.984375 37.109375 14.984375 27.296875 
Q 14.984375 17.484375 19.15625 11.84375 
Q 23.34375 6.203125 30.609375 6.203125 
Q 37.796875 6.203125 41.984375 11.859375 
Q 46.1875 17.53125 46.1875 27.296875 
Q 46.1875 37.015625 41.984375 42.703125 
Q 37.796875 48.390625 30.609375 48.390625 
z
M 30.609375 56 
Q 42.328125 56 49.015625 48.375 
Q 55.71875 40.765625 55.71875 27.296875 
Q 55.71875 13.875 49.015625 6.21875 
Q 42.328125 -1.421875 30.609375 -1.421875 
Q 18.84375 -1.421875 12.171875 6.21875 
Q 5.515625 13.875 5.515625 27.296875 
Q 5.515625 40.765625 12.171875 48.375 
Q 18.84375 56 30.609375 56 
z
" id="DejaVuSans-111"/>
      <path d="M 48.78125 52.59375 
L 48.78125 44.1875 
Q 44.96875 46.296875 41.140625 47.34375 
Q 37.3125 48.390625 33.40625 48.390625 
Q 24.65625 48.390625 19.8125 42.84375 
Q 14.984375 37.3125 14.984375 27.296875 
Q 14.984375 17.28125 19.8125 11.734375 
Q 24.65625 6.203125 33.40625 6.203125 
Q 37.3125 6.203125 41.140625 7.25 
Q 44.96875 8.296875 48.78125 10.40625 
L 48.78125 2.09375 
Q 45.015625 0.34375 40.984375 -0.53125 
Q 36.96875 -1.421875 32.421875 -1.421875 
Q 20.0625 -1.421875 12.78125 6.34375 
Q 5.515625 14.109375 5.515625 27.296875 
Q 5.515625 40.671875 12.859375 48.328125 
Q 20.21875 56 33.015625 56 
Q 37.15625 56 41.109375 55.140625 
Q 45.0625 54.296875 48.78125 52.59375 
z
" id="DejaVuSans-99"/>
      <path d="M 54.890625 33.015625 
L 54.890625 0 
L 45.90625 0 
L 45.90625 32.71875 
Q 45.90625 40.484375 42.875 44.328125 
Q 39.84375 48.1875 33.796875 48.1875 
Q 26.515625 48.1875 22.3125 43.546875 
Q 18.109375 38.921875 18.109375 30.90625 
L 18.109375 0 
L 9.078125 0 
L 9.078125 75.984375 
L 18.109375 75.984375 
L 18.109375 46.1875 
Q 21.34375 51.125 25.703125 53.5625 
Q 30.078125 56 35.796875 56 
Q 45.21875 56 50.046875 50.171875 
Q 54.890625 44.34375 54.890625 33.015625 
z
" id="DejaVuSans-104"/>
      <path d="M 8.015625 75.875 
L 15.828125 75.875 
Q 23.140625 64.359375 26.78125 53.3125 
Q 30.421875 42.28125 30.421875 31.390625 
Q 30.421875 20.453125 26.78125 9.375 
Q 23.140625 -1.703125 15.828125 -13.1875 
L 8.015625 -13.1875 
Q 14.5 -2 17.703125 9.0625 
Q 20.90625 20.125 20.90625 31.390625 
Q 20.90625 42.671875 17.703125 53.65625 
Q 14.5 64.65625 8.015625 75.875 
z
" id="DejaVuSans-41"/>
     </defs>
     <g transform="translate(325.196875 341.756875)scale(0.08 -0.08)">
      <use xlink:href="#DejaVuSans-101"/>
      <use x="61.523438" xlink:href="#DejaVuSans-110"/>
      <use x="124.902344" xlink:href="#DejaVuSans-116"/>
      <use x="164.111328" xlink:href="#DejaVuSans-114"/>
      <use x="205.224609" xlink:href="#DejaVuSans-97"/>
      <use x="266.503906" xlink:href="#DejaVuSans-105"/>
      <use x="294.287109" xlink:href="#DejaVuSans-110"/>
      <use x="357.666016" xlink:href="#DejaVuSans-101"/>
      <use x="419.189453" xlink:href="#DejaVuSans-109"/>
      <use x="516.601562" xlink:href="#DejaVuSans-101"/>
      <use x="578.125" xlink:href="#DejaVuSans-110"/>
      <use x="641.503906" xlink:href="#DejaVuSans-116"/>
      <use x="680.712891" xlink:href="#DejaVuSans-32"/>
      <use x="712.5" xlink:href="#DejaVuSans-40"/>
      <use x="751.513672" xlink:href="#DejaVuSans-101"/>
      <use x="813.037109" xlink:href="#DejaVuSans-112"/>
      <use x="876.513672" xlink:href="#DejaVuSans-111"/>
      <use x="937.695312" xlink:href="#DejaVuSans-99"/>
      <use x="992.675781" xlink:href="#DejaVuSans-104"/>
      <use x="1056.054688" xlink:href="#DejaVuSans-41"/>
     </g>
    </g>
   </g>
   <g id="matplotlib.axis_2">
    <g id="ytick_1">
     <g id="line2d_21">
      <path clip-path="url(#p600bec7faf)" d="M 90 304.236504 
L 648 304.236504 
" style="fill:none;stroke:#e6e6e6;stroke-linecap:square;stroke-width:0.8;"/>
     </g>
     <g id="line2d_22">
      <defs>
       <path d="M 0 0 
L -3.5 0 
" id="m4e4daad90e" style="stroke:#000000;stroke-width:0.8;"/>
      </defs>
      <g>
       <use style="stroke:#000000;stroke-width:0.8;" x="90" xlink:href="#m4e4daad90e" y="304.236504"/>
      </g>
     </g>
     <g id="text_12">
      <!-- 0.0 -->
      <defs>
       <path d="M 10.6875 12.40625 
L 21 12.40625 
L 21 0 
L 10.6875 0 
z
" id="DejaVuSans-46"/>
      </defs>
      <g transform="translate(67.096875 308.035723)scale(0.1 -0.1)">
       <use xlink:href="#DejaVuSans-48"/>
       <use x="63.623047" xlink:href="#DejaVuSans-46"/>
       <use x="95.410156" xlink:href="#DejaVuSans-48"/>
      </g>
     </g>
    </g>
    <g id="ytick_2">
     <g id="line2d_23">
      <path clip-path="url(#p600bec7faf)" d="M 90 275.232448 
L 648 275.232448 
" style="fill:none;stroke:#e6e6e6;stroke-linecap:square;stroke-width:0.8;"/>
     </g>
     <g id="line2d_24">
      <g>
       <use style="stroke:#000000;stroke-width:0.8;" x="90" xlink:href="#m4e4daad90e" y="275.232448"/>
      </g>
     </g>
     <g id="text_13">
      <!-- 0.1 -->
      <g transform="translate(67.096875 279.031667)scale(0.1 -0.1)">
       <use xlink:href="#DejaVuSans-48"/>
       <use x="63.623047" xlink:href="#DejaVuSans-46"/>
       <use x="95.410156" xlink:href="#DejaVuSans-49"/>
      </g>
     </g>
    </g>
    <g id="ytick_3">
     <g id="line2d_25">
      <path clip-path="url(#p600bec7faf)" d="M 90 246.228392 
L 648 246.228392 
" style="fill:none;stroke:#e6e6e6;stroke-linecap:square;stroke-width:0.8;"/>
     </g>
     <g id="line2d_26">
      <g>
       <use style="stroke:#000000;stroke-width:0.8;" x="90" xlink:href="#m4e4daad90e" y="246.228392"/>
      </g>
     </g>
     <g id="text_14">
      <!-- 0.2 -->
      <g transform="translate(67.096875 250.027611)scale(0.1 -0.1)">
       <use xlink:href="#DejaVuSans-48"/>
       <use x="63.623047" xlink:href="#DejaVuSans-46"/>
       <use x="95.410156" xlink:href="#DejaVuSans-50"/>
      </g>
     </g>
    </g>
    <g id="ytick_4">
     <g id="line2d_27">
      <path clip-path="url(#p600bec7faf)" d="M 90 217.224336 
L 648 217.224336 
" style="fill:none;stroke:#e6e6e6;stroke-linecap:square;stroke-width:0.8;"/>
     </g>
     <g id="line2d_28">
      <g>
       <use style="stroke:#000000;stroke-width:0.8;" x="90" xlink:href="#m4e4daad90e" y="217.224336"/>
      </g>
     </g>
     <g id="text_15">
      <!-- 0.3 -->
      <g transform="translate(67.096875 221.023555)scale(0.1 -0.1)">
       <use xlink:href="#DejaVuSans-48"/>
       <use x="63.623047" xlink:href="#DejaVuSans-46"/>
       <use x="95.410156" xlink:href="#DejaVuSans-51"/>
      </g>
     </g>
    </g>
    <g id="ytick_5">
     <g id="line2d_29">
      <path clip-path="url(#p600bec7faf)" d="M 90 188.22028 
L 648 188.22028 
" style="fill:none;stroke:#e6e6e6;stroke-linecap:square;stroke-width:0.8;"/>
     </g>
     <g id="line2d_30">
      <g>
       <use style="stroke:#000000;stroke-width:0.8;" x="90" xlink:href="#m4e4daad90e" y="188.22028"/>
      </g>
     </g>
     <g id="text_16">
      <!-- 0.4 -->
      <g transform="translate(67.096875 192.019499)scale(0.1 -0.1)">
       <use xlink:href="#DejaVuSans-48"/>
       <use x="63.623047" xlink:href="#DejaVuSans-46"/>
       <use x="95.410156" xlink:href="#DejaVuSans-52"/>
      </g>
     </g>
    </g>
    <g id="ytick_6">
     <g id="line2d_31">
      <path clip-path="url(#p600bec7faf)" d="M 90 159.216224 
L 648 159.216224 
" style="fill:none;stroke:#e6e6e6;stroke-linecap:square;stroke-width:0.8;"/>
     </g>
     <g id="line2d_32">
      <g>
       <use style="stroke:#000000;stroke-width:0.8;" x="90" xlink:href="#m4e4daad90e" y="159.216224"/>
      </g>
     </g>
     <g id="text_17">
      <!-- 0.5 -->
      <g transform="translate(67.096875 163.015443)scale(0.1 -0.1)">
       <use xlink:href="#DejaVuSans-48"/>
       <use x="63.623047" xlink:href="#DejaVuSans-46"/>
       <use x="95.410156" xlink:href="#DejaVuSans-53"/>
      </g>
     </g>
    </g>
    <g id="ytick_7">
     <g id="line2d_33">
      <path clip-path="url(#p600bec7faf)" d="M 90 130.212168 
L 648 130.212168 
" style="fill:none;stroke:#e6e6e6;stroke-linecap:square;stroke-width:0.8;"/>
     </g>
     <g id="line2d_34">
      <g>
       <use style="stroke:#000000;stroke-width:0.8;" x="90" xlink:href="#m4e4daad90e" y="130.212168"/>
      </g>
     </g>
     <g id="text_18">
      <!-- 0.6 -->
      <g transform="translate(67.096875 134.011387)scale(0.1 -0.1)">
       <use xlink:href="#DejaVuSans-48"/>
       <use x="63.623047" xlink:href="#DejaVuSans-46"/>
       <use x="95.410156" xlink:href="#DejaVuSans-54"/>
      </g>
     </g>
    </g>
    <g id="ytick_8">
     <g id="line2d_35">
      <path clip-path="url(#p600bec7faf)" d="M 90 101.208112 
L 648 101.208112 
" style="fill:none;stroke:#e6e6e6;stroke-linecap:square;stroke-width:0.8;"/>
     </g>
     <g id="line2d_36">
      <g>
       <use style="stroke:#000000;stroke-width:0.8;" x="90" xlink:href="#m4e4daad90e" y="101.208112"/>
      </g>
     </g>
     <g id="text_19">
      <!-- 0.7 -->
      <g transform="translate(67.096875 105.007331)scale(0.1 -0.1)">
       <use xlink:href="#DejaVuSans-48"/>
       <use x="63.623047" xlink:href="#DejaVuSans-46"/>
       <use x="95.410156" xlink:href="#DejaVuSans-55"/>
      </g>
     </g>
    </g>
    <g id="ytick_9">
     <g id="line2d_37">
      <path clip-path="url(#p600bec7faf)" d="M 90 72.204056 
L 648 72.204056 
" style="fill:none;stroke:#e6e6e6;stroke-linecap:square;stroke-width:0.8;"/>
     </g>
     <g id="line2d_38">
      <g>
       <use style="stroke:#000000;stroke-width:0.8;" x="90" xlink:href="#m4e4daad90e" y="72.204056"/>
      </g>
     </g>
     <g id="text_20">
      <!-- 0.8 -->
      <g transform="translate(67.096875 76.003275)scale(0.1 -0.1)">
       <use xlink:href="#DejaVuSans-48"/>
       <use x="63.623047" xlink:href="#DejaVuSans-46"/>
       <use x="95.410156" xlink:href="#DejaVuSans-56"/>
      </g>
     </g>
    </g>
    <g id="ytick_10">
     <g id="line2d_39">
      <path clip-path="url(#p600bec7faf)" d="M 90 43.2 
L 648 43.2 
" style="fill:none;stroke:#e6e6e6;stroke-linecap:square;stroke-width:0.8;"/>
     </g>
     <g id="line2d_40">
      <g>
       <use style="stroke:#000000;stroke-width:0.8;" x="90" xlink:href="#m4e4daad90e" y="43.2"/>
      </g>
     </g>
     <g id="text_21">
      <!-- 0.9 -->
      <g transform="translate(67.096875 46.999219)scale(0.1 -0.1)">
       <use xlink:href="#DejaVuSans-48"/>
       <use x="63.623047" xlink:href="#DejaVuSans-46"/>
       <use x="95.410156" xlink:href="#DejaVuSans-57"/>
      </g>
     </g>
    </g>
    <g id="text_22">
     <!-- LAS score (ratio) -->
     <defs>
      <path d="M 9.8125 72.90625 
L 19.671875 72.90625 
L 19.671875 8.296875 
L 55.171875 8.296875 
L 55.171875 0 
L 9.8125 0 
z
" id="DejaVuSans-76"/>
      <path d="M 34.1875 63.1875 
L 20.796875 26.90625 
L 47.609375 26.90625 
z
M 28.609375 72.90625 
L 39.796875 72.90625 
L 67.578125 0 
L 57.328125 0 
L 50.6875 18.703125 
L 17.828125 18.703125 
L 11.1875 0 
L 0.78125 0 
z
" id="DejaVuSans-65"/>
      <path d="M 53.515625 70.515625 
L 53.515625 60.890625 
Q 47.90625 63.578125 42.921875 64.890625 
Q 37.9375 66.21875 33.296875 66.21875 
Q 25.25 66.21875 20.875 63.09375 
Q 16.5 59.96875 16.5 54.203125 
Q 16.5 49.359375 19.40625 46.890625 
Q 22.3125 44.4375 30.421875 42.921875 
L 36.375 41.703125 
Q 47.40625 39.59375 52.65625 34.296875 
Q 57.90625 29 57.90625 20.125 
Q 57.90625 9.515625 50.796875 4.046875 
Q 43.703125 -1.421875 29.984375 -1.421875 
Q 24.8125 -1.421875 18.96875 -0.25 
Q 13.140625 0.921875 6.890625 3.21875 
L 6.890625 13.375 
Q 12.890625 10.015625 18.65625 8.296875 
Q 24.421875 6.59375 29.984375 6.59375 
Q 38.421875 6.59375 43.015625 9.90625 
Q 47.609375 13.234375 47.609375 19.390625 
Q 47.609375 24.75 44.3125 27.78125 
Q 41.015625 30.8125 33.5 32.328125 
L 27.484375 33.5 
Q 16.453125 35.6875 11.515625 40.375 
Q 6.59375 45.0625 6.59375 53.421875 
Q 6.59375 63.09375 13.40625 68.65625 
Q 20.21875 74.21875 32.171875 74.21875 
Q 37.3125 74.21875 42.625 73.28125 
Q 47.953125 72.359375 53.515625 70.515625 
z
" id="DejaVuSans-83"/>
      <path d="M 44.28125 53.078125 
L 44.28125 44.578125 
Q 40.484375 46.53125 36.375 47.5 
Q 32.28125 48.484375 27.875 48.484375 
Q 21.1875 48.484375 17.84375 46.4375 
Q 14.5 44.390625 14.5 40.28125 
Q 14.5 37.15625 16.890625 35.375 
Q 19.28125 33.59375 26.515625 31.984375 
L 29.59375 31.296875 
Q 39.15625 29.25 43.1875 25.515625 
Q 47.21875 21.78125 47.21875 15.09375 
Q 47.21875 7.46875 41.1875 3.015625 
Q 35.15625 -1.421875 24.609375 -1.421875 
Q 20.21875 -1.421875 15.453125 -0.5625 
Q 10.6875 0.296875 5.421875 2 
L 5.421875 11.28125 
Q 10.40625 8.6875 15.234375 7.390625 
Q 20.0625 6.109375 24.8125 6.109375 
Q 31.15625 6.109375 34.5625 8.28125 
Q 37.984375 10.453125 37.984375 14.40625 
Q 37.984375 18.0625 35.515625 20.015625 
Q 33.0625 21.96875 24.703125 23.78125 
L 21.578125 24.515625 
Q 13.234375 26.265625 9.515625 29.90625 
Q 5.8125 33.546875 5.8125 39.890625 
Q 5.8125 47.609375 11.28125 51.796875 
Q 16.75 56 26.8125 56 
Q 31.78125 56 36.171875 55.265625 
Q 40.578125 54.546875 44.28125 53.078125 
z
" id="DejaVuSans-115"/>
     </defs>
     <g transform="translate(61.433125 212.326875)rotate(-90)scale(0.08 -0.08)">
      <use xlink:href="#DejaVuSans-76"/>
      <use x="57.962891" xlink:href="#DejaVuSans-65"/>
      <use x="126.371094" xlink:href="#DejaVuSans-83"/>
      <use x="189.847656" xlink:href="#DejaVuSans-32"/>
      <use x="221.634766" xlink:href="#DejaVuSans-115"/>
      <use x="273.734375" xlink:href="#DejaVuSans-99"/>
      <use x="328.714844" xlink:href="#DejaVuSans-111"/>
      <use x="389.896484" xlink:href="#DejaVuSans-114"/>
      <use x="428.759766" xlink:href="#DejaVuSans-101"/>
      <use x="490.283203" xlink:href="#DejaVuSans-32"/>
      <use x="522.070312" xlink:href="#DejaVuSans-40"/>
      <use x="561.083984" xlink:href="#DejaVuSans-114"/>
      <use x="602.197266" xlink:href="#DejaVuSans-97"/>
      <use x="663.476562" xlink:href="#DejaVuSans-116"/>
      <use x="702.685547" xlink:href="#DejaVuSans-105"/>
      <use x="730.46875" xlink:href="#DejaVuSans-111"/>
      <use x="791.650391" xlink:href="#DejaVuSans-41"/>
     </g>
    </g>
   </g>
   <g id="line2d_41">
    <path clip-path="url(#p600bec7faf)" d="M 90 304.097396 
L 97.971429 266.793219 
L 105.942857 239.458461 
L 113.914286 221.420766 
L 121.885714 210.987653 
L 129.857143 201.829697 
L 137.828571 194.294671 
L 145.8 187.640663 
L 153.771429 179.966528 
L 161.742857 174.49494 
L 169.714286 169.092905 
L 177.685714 164.896475 
L 185.657143 160.584121 
L 193.628571 156.689092 
L 201.6 152.770878 
L 209.571429 150.498778 
L 217.542857 147.809353 
L 225.514286 145.073559 
L 233.485714 142.66235 
L 241.457143 141.827701 
L 249.428571 138.558659 
L 257.4 136.286559 
L 265.371429 134.802738 
L 273.342857 133.226179 
L 281.314286 131.301849 
L 289.285714 130.536754 
L 297.257143 128.032807 
L 305.228571 127.661851 
L 313.2 126.27077 
L 321.171429 124.601471 
L 329.142857 124.068223 
L 337.114286 121.935231 
L 345.085714 120.613704 
L 353.057143 121.007843 
L 361.028571 118.828482 
L 369 118.086572 
L 376.971429 118.248864 
L 384.942857 116.625936 
L 392.914286 115.721732 
L 400.885714 114.72479 
L 408.857143 113.125046 
L 416.828571 112.522244 
L 424.8 111.873073 
L 432.771429 111.687595 
L 440.742857 110.621099 
L 448.714286 110.203775 
L 456.685714 110.157405 
L 464.657143 108.974986 
L 472.628571 108.418553 
L 480.6 108.233075 
L 488.571429 107.723012 
L 496.542857 106.981102 
L 504.514286 106.586962 
L 512.485714 106.633331 
L 520.457143 105.682759 
L 528.428571 104.430785 
L 536.4 104.639447 
L 544.371429 104.175753 
L 552.342857 104.083015 
L 560.314286 103.387474 
L 568.285714 103.062888 
L 576.257143 102.900595 
L 584.228571 102.622379 
L 592.2 102.019576 
L 600.171429 101.370405 
L 608.142857 101.509513 
L 616.114286 100.906711 
L 624.085714 100.558941 
L 632.057143 100.21117 
L 640.028571 99.376521 
" style="fill:none;stroke:#e41a1c;stroke-dasharray:7.4,3.2;stroke-dashoffset:0;stroke-width:2;"/>
   </g>
   <g id="line2d_42">
    <path clip-path="url(#p600bec7faf)" d="M 90 304.190135 
L 97.971429 258.748129 
L 105.942857 239.528015 
L 113.914286 218.986373 
L 121.885714 204.194536 
L 129.857143 194.34104 
L 137.828571 184.904869 
L 145.8 179.015955 
L 153.771429 173.822583 
L 161.742857 168.119148 
L 169.714286 163.041699 
L 177.685714 157.894696 
L 185.657143 153.350496 
L 193.628571 148.78311 
L 201.6 144.702604 
L 209.571429 141.224899 
L 217.542857 138.790506 
L 225.514286 135.359171 
L 233.485714 132.159683 
L 241.457143 130.444015 
L 249.428571 128.774717 
L 257.4 125.575229 
L 265.371429 123.859561 
L 273.342857 121.28606 
L 281.314286 119.639946 
L 289.285714 118.666189 
L 297.257143 117.275107 
L 305.228571 116.139057 
L 313.2 114.469759 
L 321.171429 113.24097 
L 329.142857 111.873073 
L 337.114286 111.571672 
L 345.085714 110.57473 
L 353.057143 109.971928 
L 361.028571 108.070782 
L 369 106.679701 
L 376.971429 106.702885 
L 384.942857 105.427727 
L 392.914286 104.01346 
L 400.885714 103.387474 
L 408.857143 102.645563 
L 416.828571 101.950022 
L 424.8 101.254481 
L 432.771429 100.396648 
L 440.742857 100.929896 
L 448.714286 99.585183 
L 456.685714 98.889642 
L 464.657143 98.217286 
L 472.628571 97.799962 
L 480.6 96.965313 
L 488.571429 96.455249 
L 496.542857 95.249645 
L 504.514286 95.597415 
L 512.485714 94.554104 
L 520.457143 94.83232 
L 528.428571 94.09041 
L 536.4 93.626716 
L 544.371429 93.047099 
L 552.342857 92.95436 
L 560.314286 92.235634 
L 568.285714 92.722513 
L 576.257143 91.632832 
L 584.228571 91.609647 
L 592.2 91.238692 
L 600.171429 90.496782 
L 608.142857 89.89398 
L 616.114286 90.033088 
L 624.085714 89.917165 
L 632.057143 88.595637 
L 640.028571 88.479713 
" style="fill:none;stroke:#377eb8;stroke-dasharray:7.4,3.2;stroke-dashoffset:0;stroke-width:2;"/>
   </g>
   <g id="line2d_43">
    <path clip-path="url(#p600bec7faf)" d="M 90 304.16695 
L 97.971429 253.253356 
L 105.942857 226.799616 
L 113.914286 211.149946 
L 121.885714 198.514286 
L 129.857143 186.574167 
L 137.828571 177.601689 
L 145.8 169.649338 
L 153.771429 164.224119 
L 161.742857 159.169855 
L 169.714286 154.324253 
L 177.685714 150.75381 
L 185.657143 147.925277 
L 193.628571 144.864897 
L 201.6 142.152287 
L 209.571429 139.949741 
L 217.542857 138.210889 
L 225.514286 136.054712 
L 233.485714 133.828981 
L 241.457143 131.440957 
L 249.428571 129.562997 
L 257.4 128.218284 
L 265.371429 126.2244 
L 273.342857 125.667968 
L 281.314286 124.045039 
L 289.285714 122.607587 
L 297.257143 121.448353 
L 305.228571 120.219564 
L 313.2 120.010901 
L 321.171429 117.460585 
L 329.142857 117.483769 
L 337.114286 115.814471 
L 345.085714 114.747975 
L 353.057143 113.890141 
L 361.028571 113.565556 
L 369 112.244028 
L 376.971429 111.873073 
L 384.942857 111.084793 
L 392.914286 109.879189 
L 400.885714 109.879189 
L 408.857143 109.067724 
L 416.828571 108.6504 
L 424.8 108.140337 
L 432.771429 107.352057 
L 440.742857 107.004286 
L 448.714286 105.960975 
L 456.685714 106.517408 
L 464.657143 105.636389 
L 472.628571 104.940848 
L 480.6 104.824925 
L 488.571429 103.619321 
L 496.542857 103.526582 
L 504.514286 102.668748 
L 512.485714 101.880468 
L 520.457143 102.089131 
L 528.428571 101.439959 
L 536.4 101.463144 
L 544.371429 100.744418 
L 552.342857 100.234355 
L 560.314286 100.234355 
L 568.285714 99.46926 
L 576.257143 99.585183 
L 584.228571 98.541872 
L 592.2 98.263656 
L 600.171429 97.707223 
L 608.142857 98.263656 
L 616.114286 97.707223 
L 624.085714 97.429006 
L 632.057143 97.243529 
L 640.028571 95.898816 
" style="fill:none;stroke:#4daf4a;stroke-dasharray:7.4,3.2;stroke-dashoffset:0;stroke-width:2;"/>
   </g>
   <g id="line2d_44">
    <path clip-path="url(#p600bec7faf)" d="M 90 304.074212 
L 97.971429 277.80595 
L 105.942857 271.68519 
L 113.914286 267.117804 
L 121.885714 260.950675 
L 129.857143 256.197812 
L 137.828571 249.86839 
L 145.8 245.393743 
L 153.771429 239.574384 
L 161.742857 234.728783 
L 169.714286 229.999104 
L 177.685714 226.776431 
L 185.657143 223.136434 
L 193.628571 219.635545 
L 201.6 215.81007 
L 209.571429 211.451347 
L 217.542857 206.513006 
L 225.514286 203.498996 
L 233.485714 200.206769 
L 241.457143 198.096961 
L 249.428571 194.711995 
L 257.4 191.976201 
L 265.371429 189.611362 
L 273.342857 186.504613 
L 281.314286 183.142832 
L 289.285714 180.940285 
L 297.257143 180.337483 
L 305.228571 177.462581 
L 313.2 175.63099 
L 321.171429 173.799399 
L 329.142857 173.034304 
L 337.114286 171.573668 
L 345.085714 169.324752 
L 353.057143 167.956855 
L 361.028571 166.171633 
L 369 166.05571 
L 376.971429 162.925776 
L 384.942857 162.856222 
L 392.914286 161.650617 
L 400.885714 160.097243 
L 408.857143 158.984377 
L 416.828571 157.593295 
L 424.8 157.199156 
L 432.771429 157.732404 
L 440.742857 155.761704 
L 448.714286 154.463361 
L 456.685714 153.072279 
L 464.657143 152.469477 
L 472.628571 151.310242 
L 480.6 151.240688 
L 488.571429 149.687314 
L 496.542857 149.293174 
L 504.514286 147.878907 
L 512.485714 148.018015 
L 520.457143 146.719672 
L 528.428571 146.650118 
L 536.4 145.004005 
L 544.371429 144.864897 
L 552.342857 144.215725 
L 560.314286 143.566554 
L 568.285714 142.685535 
L 576.257143 142.198657 
L 584.228571 141.224899 
L 592.2 140.575728 
L 600.171429 140.969868 
L 608.142857 141.039422 
L 616.114286 139.694709 
L 624.085714 138.442736 
L 632.057143 139.207831 
L 640.028571 137.793564 
" style="fill:none;stroke:#984ea3;stroke-dasharray:7.4,3.2;stroke-dashoffset:0;stroke-width:2;"/>
   </g>
   <g id="line2d_45">
    <path clip-path="url(#p600bec7faf)" d="M 90 304.21332 
L 97.971429 276.159836 
L 105.942857 264.683411 
L 113.914286 256.429659 
L 121.885714 251.305841 
L 129.857143 244.164954 
L 137.828571 238.183302 
L 145.8 232.920376 
L 153.771429 226.5214 
L 161.742857 221.977199 
L 169.714286 217.68803 
L 177.685714 215.253637 
L 185.657143 211.61364 
L 193.628571 208.947399 
L 201.6 205.84065 
L 209.571429 203.359887 
L 217.542857 202.293391 
L 225.514286 198.722948 
L 233.485714 197.05365 
L 241.457143 194.758365 
L 249.428571 192.184863 
L 257.4 190.793782 
L 265.371429 188.591235 
L 273.342857 186.017734 
L 281.314286 183.884742 
L 289.285714 180.244744 
L 297.257143 178.575446 
L 305.228571 176.859779 
L 313.2 174.49494 
L 321.171429 172.501056 
L 329.142857 170.831757 
L 337.114286 168.142333 
L 345.085714 166.751251 
L 353.057143 165.081953 
L 361.028571 162.578005 
L 369 162.717113 
L 376.971429 160.67686 
L 384.942857 160.074058 
L 392.914286 158.033805 
L 400.885714 157.129601 
L 408.857143 155.668966 
L 416.828571 154.579285 
L 424.8 153.280942 
L 432.771429 152.284 
L 440.742857 152.168076 
L 448.714286 150.75381 
L 456.685714 150.962472 
L 464.657143 149.432282 
L 472.628571 148.806295 
L 480.6 147.716614 
L 488.571429 147.392029 
L 496.542857 145.931393 
L 504.514286 146.070501 
L 512.485714 144.493942 
L 520.457143 144.818527 
L 528.428571 143.589738 
L 536.4 143.497 
L 544.371429 143.010121 
L 552.342857 142.31458 
L 560.314286 141.688593 
L 568.285714 141.085791 
L 576.257143 140.714836 
L 584.228571 140.343881 
L 592.2 139.880187 
L 600.171429 139.64834 
L 608.142857 138.280443 
L 616.114286 137.37624 
L 624.085714 137.260316 
L 632.057143 136.58796 
L 640.028571 136.634329 
" style="fill:none;stroke:#ff7f00;stroke-dasharray:7.4,3.2;stroke-dashoffset:0;stroke-width:2;"/>
   </g>
   <g id="text_23">
    <!-- Effet du gêle des coefficients de BERT (anglais/multilingue) -->
    <defs>
     <path d="M 9.8125 72.90625 
L 55.90625 72.90625 
L 55.90625 64.59375 
L 19.671875 64.59375 
L 19.671875 43.015625 
L 54.390625 43.015625 
L 54.390625 34.71875 
L 19.671875 34.71875 
L 19.671875 8.296875 
L 56.78125 8.296875 
L 56.78125 0 
L 9.8125 0 
z
" id="DejaVuSans-69"/>
     <path d="M 37.109375 75.984375 
L 37.109375 68.5 
L 28.515625 68.5 
Q 23.6875 68.5 21.796875 66.546875 
Q 19.921875 64.59375 19.921875 59.515625 
L 19.921875 54.6875 
L 34.71875 54.6875 
L 34.71875 47.703125 
L 19.921875 47.703125 
L 19.921875 0 
L 10.890625 0 
L 10.890625 47.703125 
L 2.296875 47.703125 
L 2.296875 54.6875 
L 10.890625 54.6875 
L 10.890625 58.5 
Q 10.890625 67.625 15.140625 71.796875 
Q 19.390625 75.984375 28.609375 75.984375 
z
" id="DejaVuSans-102"/>
     <path d="M 45.40625 46.390625 
L 45.40625 75.984375 
L 54.390625 75.984375 
L 54.390625 0 
L 45.40625 0 
L 45.40625 8.203125 
Q 42.578125 3.328125 38.25 0.953125 
Q 33.9375 -1.421875 27.875 -1.421875 
Q 17.96875 -1.421875 11.734375 6.484375 
Q 5.515625 14.40625 5.515625 27.296875 
Q 5.515625 40.1875 11.734375 48.09375 
Q 17.96875 56 27.875 56 
Q 33.9375 56 38.25 53.625 
Q 42.578125 51.265625 45.40625 46.390625 
z
M 14.796875 27.296875 
Q 14.796875 17.390625 18.875 11.75 
Q 22.953125 6.109375 30.078125 6.109375 
Q 37.203125 6.109375 41.296875 11.75 
Q 45.40625 17.390625 45.40625 27.296875 
Q 45.40625 37.203125 41.296875 42.84375 
Q 37.203125 48.484375 30.078125 48.484375 
Q 22.953125 48.484375 18.875 42.84375 
Q 14.796875 37.203125 14.796875 27.296875 
z
" id="DejaVuSans-100"/>
     <path d="M 8.5 21.578125 
L 8.5 54.6875 
L 17.484375 54.6875 
L 17.484375 21.921875 
Q 17.484375 14.15625 20.5 10.265625 
Q 23.53125 6.390625 29.59375 6.390625 
Q 36.859375 6.390625 41.078125 11.03125 
Q 45.3125 15.671875 45.3125 23.6875 
L 45.3125 54.6875 
L 54.296875 54.6875 
L 54.296875 0 
L 45.3125 0 
L 45.3125 8.40625 
Q 42.046875 3.421875 37.71875 1 
Q 33.40625 -1.421875 27.6875 -1.421875 
Q 18.265625 -1.421875 13.375 4.4375 
Q 8.5 10.296875 8.5 21.578125 
z
M 31.109375 56 
z
" id="DejaVuSans-117"/>
     <path d="M 45.40625 27.984375 
Q 45.40625 37.75 41.375 43.109375 
Q 37.359375 48.484375 30.078125 48.484375 
Q 22.859375 48.484375 18.828125 43.109375 
Q 14.796875 37.75 14.796875 27.984375 
Q 14.796875 18.265625 18.828125 12.890625 
Q 22.859375 7.515625 30.078125 7.515625 
Q 37.359375 7.515625 41.375 12.890625 
Q 45.40625 18.265625 45.40625 27.984375 
z
M 54.390625 6.78125 
Q 54.390625 -7.171875 48.1875 -13.984375 
Q 42 -20.796875 29.203125 -20.796875 
Q 24.46875 -20.796875 20.265625 -20.09375 
Q 16.0625 -19.390625 12.109375 -17.921875 
L 12.109375 -9.1875 
Q 16.0625 -11.328125 19.921875 -12.34375 
Q 23.78125 -13.375 27.78125 -13.375 
Q 36.625 -13.375 41.015625 -8.765625 
Q 45.40625 -4.15625 45.40625 5.171875 
L 45.40625 9.625 
Q 42.625 4.78125 38.28125 2.390625 
Q 33.9375 0 27.875 0 
Q 17.828125 0 11.671875 7.65625 
Q 5.515625 15.328125 5.515625 27.984375 
Q 5.515625 40.671875 11.671875 48.328125 
Q 17.828125 56 27.875 56 
Q 33.9375 56 38.28125 53.609375 
Q 42.625 51.21875 45.40625 46.390625 
L 45.40625 54.6875 
L 54.390625 54.6875 
z
" id="DejaVuSans-103"/>
     <path d="M 56.203125 29.59375 
L 56.203125 25.203125 
L 14.890625 25.203125 
Q 15.484375 15.921875 20.484375 11.0625 
Q 25.484375 6.203125 34.421875 6.203125 
Q 39.59375 6.203125 44.453125 7.46875 
Q 49.3125 8.734375 54.109375 11.28125 
L 54.109375 2.78125 
Q 49.265625 0.734375 44.1875 -0.34375 
Q 39.109375 -1.421875 33.890625 -1.421875 
Q 20.796875 -1.421875 13.15625 6.1875 
Q 5.515625 13.8125 5.515625 26.8125 
Q 5.515625 40.234375 12.765625 48.109375 
Q 20.015625 56 32.328125 56 
Q 43.359375 56 49.78125 48.890625 
Q 56.203125 41.796875 56.203125 29.59375 
z
M 47.21875 32.234375 
Q 47.125 39.59375 43.09375 43.984375 
Q 39.0625 48.390625 32.421875 48.390625 
Q 24.90625 48.390625 20.390625 44.140625 
Q 15.875 39.890625 15.1875 32.171875 
z
M 28.140625 79.984375 
L 35.359375 79.984375 
L 47.328125 61.625 
L 40.546875 61.625 
L 31.75 73.578125 
L 22.96875 61.625 
L 16.171875 61.625 
z
" id="DejaVuSans-234"/>
     <path d="M 9.421875 75.984375 
L 18.40625 75.984375 
L 18.40625 0 
L 9.421875 0 
z
" id="DejaVuSans-108"/>
     <path d="M 19.671875 34.8125 
L 19.671875 8.109375 
L 35.5 8.109375 
Q 43.453125 8.109375 47.28125 11.40625 
Q 51.125 14.703125 51.125 21.484375 
Q 51.125 28.328125 47.28125 31.5625 
Q 43.453125 34.8125 35.5 34.8125 
z
M 19.671875 64.796875 
L 19.671875 42.828125 
L 34.28125 42.828125 
Q 41.5 42.828125 45.03125 45.53125 
Q 48.578125 48.25 48.578125 53.8125 
Q 48.578125 59.328125 45.03125 62.0625 
Q 41.5 64.796875 34.28125 64.796875 
z
M 9.8125 72.90625 
L 35.015625 72.90625 
Q 46.296875 72.90625 52.390625 68.21875 
Q 58.5 63.53125 58.5 54.890625 
Q 58.5 48.1875 55.375 44.234375 
Q 52.25 40.28125 46.1875 39.3125 
Q 53.46875 37.75 57.5 32.78125 
Q 61.53125 27.828125 61.53125 20.40625 
Q 61.53125 10.640625 54.890625 5.3125 
Q 48.25 0 35.984375 0 
L 9.8125 0 
z
" id="DejaVuSans-66"/>
     <path d="M 44.390625 34.1875 
Q 47.5625 33.109375 50.5625 29.59375 
Q 53.5625 26.078125 56.59375 19.921875 
L 66.609375 0 
L 56 0 
L 46.6875 18.703125 
Q 43.0625 26.03125 39.671875 28.421875 
Q 36.28125 30.8125 30.421875 30.8125 
L 19.671875 30.8125 
L 19.671875 0 
L 9.8125 0 
L 9.8125 72.90625 
L 32.078125 72.90625 
Q 44.578125 72.90625 50.734375 67.671875 
Q 56.890625 62.453125 56.890625 51.90625 
Q 56.890625 45.015625 53.6875 40.46875 
Q 50.484375 35.9375 44.390625 34.1875 
z
M 19.671875 64.796875 
L 19.671875 38.921875 
L 32.078125 38.921875 
Q 39.203125 38.921875 42.84375 42.21875 
Q 46.484375 45.515625 46.484375 51.90625 
Q 46.484375 58.296875 42.84375 61.546875 
Q 39.203125 64.796875 32.078125 64.796875 
z
" id="DejaVuSans-82"/>
     <path d="M -0.296875 72.90625 
L 61.375 72.90625 
L 61.375 64.59375 
L 35.5 64.59375 
L 35.5 0 
L 25.59375 0 
L 25.59375 64.59375 
L -0.296875 64.59375 
z
" id="DejaVuSans-84"/>
     <path d="M 25.390625 72.90625 
L 33.6875 72.90625 
L 8.296875 -9.28125 
L 0 -9.28125 
z
" id="DejaVuSans-47"/>
    </defs>
    <g transform="translate(191.295 37.2)scale(0.12 -0.12)">
     <use xlink:href="#DejaVuSans-69"/>
     <use x="63.183594" xlink:href="#DejaVuSans-102"/>
     <use x="98.388672" xlink:href="#DejaVuSans-102"/>
     <use x="133.59375" xlink:href="#DejaVuSans-101"/>
     <use x="195.117188" xlink:href="#DejaVuSans-116"/>
     <use x="234.326172" xlink:href="#DejaVuSans-32"/>
     <use x="266.113281" xlink:href="#DejaVuSans-100"/>
     <use x="329.589844" xlink:href="#DejaVuSans-117"/>
     <use x="392.96875" xlink:href="#DejaVuSans-32"/>
     <use x="424.755859" xlink:href="#DejaVuSans-103"/>
     <use x="488.232422" xlink:href="#DejaVuSans-234"/>
     <use x="549.755859" xlink:href="#DejaVuSans-108"/>
     <use x="577.539062" xlink:href="#DejaVuSans-101"/>
     <use x="639.0625" xlink:href="#DejaVuSans-32"/>
     <use x="670.849609" xlink:href="#DejaVuSans-100"/>
     <use x="734.326172" xlink:href="#DejaVuSans-101"/>
     <use x="795.849609" xlink:href="#DejaVuSans-115"/>
     <use x="847.949219" xlink:href="#DejaVuSans-32"/>
     <use x="879.736328" xlink:href="#DejaVuSans-99"/>
     <use x="934.716797" xlink:href="#DejaVuSans-111"/>
     <use x="995.898438" xlink:href="#DejaVuSans-101"/>
     <use x="1057.421875" xlink:href="#DejaVuSans-102"/>
     <use x="1092.626953" xlink:href="#DejaVuSans-102"/>
     <use x="1127.832031" xlink:href="#DejaVuSans-105"/>
     <use x="1155.615234" xlink:href="#DejaVuSans-99"/>
     <use x="1210.595703" xlink:href="#DejaVuSans-105"/>
     <use x="1238.378906" xlink:href="#DejaVuSans-101"/>
     <use x="1299.902344" xlink:href="#DejaVuSans-110"/>
     <use x="1363.28125" xlink:href="#DejaVuSans-116"/>
     <use x="1402.490234" xlink:href="#DejaVuSans-115"/>
     <use x="1454.589844" xlink:href="#DejaVuSans-32"/>
     <use x="1486.376953" xlink:href="#DejaVuSans-100"/>
     <use x="1549.853516" xlink:href="#DejaVuSans-101"/>
     <use x="1611.376953" xlink:href="#DejaVuSans-32"/>
     <use x="1643.164062" xlink:href="#DejaVuSans-66"/>
     <use x="1711.767578" xlink:href="#DejaVuSans-69"/>
     <use x="1774.951172" xlink:href="#DejaVuSans-82"/>
     <use x="1837.183594" xlink:href="#DejaVuSans-84"/>
     <use x="1898.267578" xlink:href="#DejaVuSans-32"/>
     <use x="1930.054688" xlink:href="#DejaVuSans-40"/>
     <use x="1969.068359" xlink:href="#DejaVuSans-97"/>
     <use x="2030.347656" xlink:href="#DejaVuSans-110"/>
     <use x="2093.726562" xlink:href="#DejaVuSans-103"/>
     <use x="2157.203125" xlink:href="#DejaVuSans-108"/>
     <use x="2184.986328" xlink:href="#DejaVuSans-97"/>
     <use x="2246.265625" xlink:href="#DejaVuSans-105"/>
     <use x="2274.048828" xlink:href="#DejaVuSans-115"/>
     <use x="2326.148438" xlink:href="#DejaVuSans-47"/>
     <use x="2359.839844" xlink:href="#DejaVuSans-109"/>
     <use x="2457.251953" xlink:href="#DejaVuSans-117"/>
     <use x="2520.630859" xlink:href="#DejaVuSans-108"/>
     <use x="2548.414062" xlink:href="#DejaVuSans-116"/>
     <use x="2587.623047" xlink:href="#DejaVuSans-105"/>
     <use x="2615.40625" xlink:href="#DejaVuSans-108"/>
     <use x="2643.189453" xlink:href="#DejaVuSans-105"/>
     <use x="2670.972656" xlink:href="#DejaVuSans-110"/>
     <use x="2734.351562" xlink:href="#DejaVuSans-103"/>
     <use x="2797.828125" xlink:href="#DejaVuSans-117"/>
     <use x="2861.207031" xlink:href="#DejaVuSans-101"/>
     <use x="2922.730469" xlink:href="#DejaVuSans-41"/>
    </g>
   </g>
   <g id="legend_1">
    <g id="patch_2">
     <path d="M 453.410937 310 
L 641 310 
Q 643 310 643 308 
L 643 235.609375 
Q 643 233.609375 641 233.609375 
L 453.410937 233.609375 
Q 451.410937 233.609375 451.410937 235.609375 
L 451.410937 308 
Q 451.410937 310 453.410937 310 
z
" style="fill:#e6e6e6;opacity:0.8;stroke:#e6e6e6;stroke-linejoin:miter;"/>
    </g>
    <g id="line2d_46">
     <path d="M 455.410937 241.707812 
L 475.410937 241.707812 
" style="fill:none;stroke:#e41a1c;stroke-dasharray:7.4,3.2;stroke-dashoffset:0;stroke-width:2;"/>
    </g>
    <g id="line2d_47"/>
    <g id="text_24">
     <!-- BERT multilingue (freezed) -->
     <defs>
      <path d="M 5.515625 54.6875 
L 48.1875 54.6875 
L 48.1875 46.484375 
L 14.40625 7.171875 
L 48.1875 7.171875 
L 48.1875 0 
L 4.296875 0 
L 4.296875 8.203125 
L 38.09375 47.515625 
L 5.515625 47.515625 
z
" id="DejaVuSans-122"/>
     </defs>
     <g transform="translate(483.410937 245.207812)scale(0.1 -0.1)">
      <use xlink:href="#DejaVuSans-66"/>
      <use x="68.603516" xlink:href="#DejaVuSans-69"/>
      <use x="131.787109" xlink:href="#DejaVuSans-82"/>
      <use x="194.019531" xlink:href="#DejaVuSans-84"/>
      <use x="255.103516" xlink:href="#DejaVuSans-32"/>
      <use x="286.890625" xlink:href="#DejaVuSans-109"/>
      <use x="384.302734" xlink:href="#DejaVuSans-117"/>
      <use x="447.681641" xlink:href="#DejaVuSans-108"/>
      <use x="475.464844" xlink:href="#DejaVuSans-116"/>
      <use x="514.673828" xlink:href="#DejaVuSans-105"/>
      <use x="542.457031" xlink:href="#DejaVuSans-108"/>
      <use x="570.240234" xlink:href="#DejaVuSans-105"/>
      <use x="598.023438" xlink:href="#DejaVuSans-110"/>
      <use x="661.402344" xlink:href="#DejaVuSans-103"/>
      <use x="724.878906" xlink:href="#DejaVuSans-117"/>
      <use x="788.257812" xlink:href="#DejaVuSans-101"/>
      <use x="849.78125" xlink:href="#DejaVuSans-32"/>
      <use x="881.568359" xlink:href="#DejaVuSans-40"/>
      <use x="920.582031" xlink:href="#DejaVuSans-102"/>
      <use x="955.787109" xlink:href="#DejaVuSans-114"/>
      <use x="994.650391" xlink:href="#DejaVuSans-101"/>
      <use x="1056.173828" xlink:href="#DejaVuSans-101"/>
      <use x="1117.697266" xlink:href="#DejaVuSans-122"/>
      <use x="1170.1875" xlink:href="#DejaVuSans-101"/>
      <use x="1231.710938" xlink:href="#DejaVuSans-100"/>
      <use x="1295.1875" xlink:href="#DejaVuSans-41"/>
     </g>
    </g>
    <g id="line2d_48">
     <path d="M 455.410937 256.385938 
L 475.410937 256.385938 
" style="fill:none;stroke:#377eb8;stroke-dasharray:7.4,3.2;stroke-dashoffset:0;stroke-width:2;"/>
    </g>
    <g id="line2d_49"/>
    <g id="text_25">
     <!-- BERT anglais (freezed) -->
     <g transform="translate(483.410937 259.885938)scale(0.1 -0.1)">
      <use xlink:href="#DejaVuSans-66"/>
      <use x="68.603516" xlink:href="#DejaVuSans-69"/>
      <use x="131.787109" xlink:href="#DejaVuSans-82"/>
      <use x="194.019531" xlink:href="#DejaVuSans-84"/>
      <use x="255.103516" xlink:href="#DejaVuSans-32"/>
      <use x="286.890625" xlink:href="#DejaVuSans-97"/>
      <use x="348.169922" xlink:href="#DejaVuSans-110"/>
      <use x="411.548828" xlink:href="#DejaVuSans-103"/>
      <use x="475.025391" xlink:href="#DejaVuSans-108"/>
      <use x="502.808594" xlink:href="#DejaVuSans-97"/>
      <use x="564.087891" xlink:href="#DejaVuSans-105"/>
      <use x="591.871094" xlink:href="#DejaVuSans-115"/>
      <use x="643.970703" xlink:href="#DejaVuSans-32"/>
      <use x="675.757812" xlink:href="#DejaVuSans-40"/>
      <use x="714.771484" xlink:href="#DejaVuSans-102"/>
      <use x="749.976562" xlink:href="#DejaVuSans-114"/>
      <use x="788.839844" xlink:href="#DejaVuSans-101"/>
      <use x="850.363281" xlink:href="#DejaVuSans-101"/>
      <use x="911.886719" xlink:href="#DejaVuSans-122"/>
      <use x="964.376953" xlink:href="#DejaVuSans-101"/>
      <use x="1025.900391" xlink:href="#DejaVuSans-100"/>
      <use x="1089.376953" xlink:href="#DejaVuSans-41"/>
     </g>
    </g>
    <g id="line2d_50">
     <path d="M 455.410937 271.064062 
L 475.410937 271.064062 
" style="fill:none;stroke:#4daf4a;stroke-dasharray:7.4,3.2;stroke-dashoffset:0;stroke-width:2;"/>
    </g>
    <g id="line2d_51"/>
    <g id="text_26">
     <!-- BERT chinese (freezed) -->
     <g transform="translate(483.410937 274.564062)scale(0.1 -0.1)">
      <use xlink:href="#DejaVuSans-66"/>
      <use x="68.603516" xlink:href="#DejaVuSans-69"/>
      <use x="131.787109" xlink:href="#DejaVuSans-82"/>
      <use x="194.019531" xlink:href="#DejaVuSans-84"/>
      <use x="255.103516" xlink:href="#DejaVuSans-32"/>
      <use x="286.890625" xlink:href="#DejaVuSans-99"/>
      <use x="341.871094" xlink:href="#DejaVuSans-104"/>
      <use x="405.25" xlink:href="#DejaVuSans-105"/>
      <use x="433.033203" xlink:href="#DejaVuSans-110"/>
      <use x="496.412109" xlink:href="#DejaVuSans-101"/>
      <use x="557.935547" xlink:href="#DejaVuSans-115"/>
      <use x="610.035156" xlink:href="#DejaVuSans-101"/>
      <use x="671.558594" xlink:href="#DejaVuSans-32"/>
      <use x="703.345703" xlink:href="#DejaVuSans-40"/>
      <use x="742.359375" xlink:href="#DejaVuSans-102"/>
      <use x="777.564453" xlink:href="#DejaVuSans-114"/>
      <use x="816.427734" xlink:href="#DejaVuSans-101"/>
      <use x="877.951172" xlink:href="#DejaVuSans-101"/>
      <use x="939.474609" xlink:href="#DejaVuSans-122"/>
      <use x="991.964844" xlink:href="#DejaVuSans-101"/>
      <use x="1053.488281" xlink:href="#DejaVuSans-100"/>
      <use x="1116.964844" xlink:href="#DejaVuSans-41"/>
     </g>
    </g>
    <g id="line2d_52">
     <path d="M 455.410937 285.742188 
L 475.410937 285.742188 
" style="fill:none;stroke:#984ea3;stroke-dasharray:7.4,3.2;stroke-dashoffset:0;stroke-width:2;"/>
    </g>
    <g id="line2d_53"/>
    <g id="text_27">
     <!-- RoBERTa anglais (freezed) -->
     <g transform="translate(483.410937 289.242188)scale(0.1 -0.1)">
      <use xlink:href="#DejaVuSans-82"/>
      <use x="64.982422" xlink:href="#DejaVuSans-111"/>
      <use x="126.164062" xlink:href="#DejaVuSans-66"/>
      <use x="194.767578" xlink:href="#DejaVuSans-69"/>
      <use x="257.951172" xlink:href="#DejaVuSans-82"/>
      <use x="320.183594" xlink:href="#DejaVuSans-84"/>
      <use x="364.767578" xlink:href="#DejaVuSans-97"/>
      <use x="426.046875" xlink:href="#DejaVuSans-32"/>
      <use x="457.833984" xlink:href="#DejaVuSans-97"/>
      <use x="519.113281" xlink:href="#DejaVuSans-110"/>
      <use x="582.492188" xlink:href="#DejaVuSans-103"/>
      <use x="645.96875" xlink:href="#DejaVuSans-108"/>
      <use x="673.751953" xlink:href="#DejaVuSans-97"/>
      <use x="735.03125" xlink:href="#DejaVuSans-105"/>
      <use x="762.814453" xlink:href="#DejaVuSans-115"/>
      <use x="814.914062" xlink:href="#DejaVuSans-32"/>
      <use x="846.701172" xlink:href="#DejaVuSans-40"/>
      <use x="885.714844" xlink:href="#DejaVuSans-102"/>
      <use x="920.919922" xlink:href="#DejaVuSans-114"/>
      <use x="959.783203" xlink:href="#DejaVuSans-101"/>
      <use x="1021.306641" xlink:href="#DejaVuSans-101"/>
      <use x="1082.830078" xlink:href="#DejaVuSans-122"/>
      <use x="1135.320312" xlink:href="#DejaVuSans-101"/>
      <use x="1196.84375" xlink:href="#DejaVuSans-100"/>
      <use x="1260.320312" xlink:href="#DejaVuSans-41"/>
     </g>
    </g>
    <g id="line2d_54">
     <path d="M 455.410937 300.420313 
L 475.410937 300.420313 
" style="fill:none;stroke:#ff7f00;stroke-dasharray:7.4,3.2;stroke-dashoffset:0;stroke-width:2;"/>
    </g>
    <g id="line2d_55"/>
    <g id="text_28">
     <!-- CamemBERT français (freezed) -->
     <defs>
      <path d="M 64.40625 67.28125 
L 64.40625 56.890625 
Q 59.421875 61.53125 53.78125 63.8125 
Q 48.140625 66.109375 41.796875 66.109375 
Q 29.296875 66.109375 22.65625 58.46875 
Q 16.015625 50.828125 16.015625 36.375 
Q 16.015625 21.96875 22.65625 14.328125 
Q 29.296875 6.6875 41.796875 6.6875 
Q 48.140625 6.6875 53.78125 8.984375 
Q 59.421875 11.28125 64.40625 15.921875 
L 64.40625 5.609375 
Q 59.234375 2.09375 53.4375 0.328125 
Q 47.65625 -1.421875 41.21875 -1.421875 
Q 24.65625 -1.421875 15.125 8.703125 
Q 5.609375 18.84375 5.609375 36.375 
Q 5.609375 53.953125 15.125 64.078125 
Q 24.65625 74.21875 41.21875 74.21875 
Q 47.75 74.21875 53.53125 72.484375 
Q 59.328125 70.75 64.40625 67.28125 
z
" id="DejaVuSans-67"/>
      <path d="M 48.78125 52.59375 
L 48.78125 44.1875 
Q 44.96875 46.296875 41.140625 47.34375 
Q 37.3125 48.390625 33.40625 48.390625 
Q 24.65625 48.390625 19.8125 42.84375 
Q 14.984375 37.3125 14.984375 27.296875 
Q 14.984375 17.28125 19.8125 11.734375 
Q 24.65625 6.203125 33.40625 6.203125 
Q 37.3125 6.203125 41.140625 7.25 
Q 44.96875 8.296875 48.78125 10.40625 
L 48.78125 2.09375 
Q 45.015625 0.34375 40.984375 -0.53125 
Q 36.96875 -1.421875 32.421875 -1.421875 
Q 20.0625 -1.421875 12.78125 6.34375 
Q 5.515625 14.109375 5.515625 27.296875 
Q 5.515625 40.671875 12.859375 48.328125 
Q 20.21875 56 33.015625 56 
Q 37.15625 56 41.109375 55.140625 
Q 45.0625 54.296875 48.78125 52.59375 
z
M 36.109375 0 
Q 38.78125 -3.03125 40.09375 -5.59375 
Q 41.421875 -8.15625 41.421875 -10.5 
Q 41.421875 -14.84375 38.484375 -17.0625 
Q 35.5625 -19.28125 29.796875 -19.28125 
Q 27.5625 -19.28125 25.4375 -18.984375 
Q 23.3125 -18.703125 21.203125 -18.109375 
L 21.203125 -11.71875 
Q 22.875 -12.546875 24.671875 -12.90625 
Q 26.484375 -13.28125 28.78125 -13.28125 
Q 31.65625 -13.28125 33.125 -12.109375 
Q 34.59375 -10.9375 34.59375 -8.6875 
Q 34.59375 -7.234375 33.53125 -5.109375 
Q 32.484375 -2.984375 30.296875 0 
z
" id="DejaVuSans-231"/>
     </defs>
     <g transform="translate(483.410937 303.920313)scale(0.1 -0.1)">
      <use xlink:href="#DejaVuSans-67"/>
      <use x="69.824219" xlink:href="#DejaVuSans-97"/>
      <use x="131.103516" xlink:href="#DejaVuSans-109"/>
      <use x="228.515625" xlink:href="#DejaVuSans-101"/>
      <use x="290.039062" xlink:href="#DejaVuSans-109"/>
      <use x="387.451172" xlink:href="#DejaVuSans-66"/>
      <use x="456.054688" xlink:href="#DejaVuSans-69"/>
      <use x="519.238281" xlink:href="#DejaVuSans-82"/>
      <use x="581.470703" xlink:href="#DejaVuSans-84"/>
      <use x="642.554688" xlink:href="#DejaVuSans-32"/>
      <use x="674.341797" xlink:href="#DejaVuSans-102"/>
      <use x="709.546875" xlink:href="#DejaVuSans-114"/>
      <use x="750.660156" xlink:href="#DejaVuSans-97"/>
      <use x="811.939453" xlink:href="#DejaVuSans-110"/>
      <use x="875.318359" xlink:href="#DejaVuSans-231"/>
      <use x="930.298828" xlink:href="#DejaVuSans-97"/>
      <use x="991.578125" xlink:href="#DejaVuSans-105"/>
      <use x="1019.361328" xlink:href="#DejaVuSans-115"/>
      <use x="1071.460938" xlink:href="#DejaVuSans-32"/>
      <use x="1103.248047" xlink:href="#DejaVuSans-40"/>
      <use x="1142.261719" xlink:href="#DejaVuSans-102"/>
      <use x="1177.466797" xlink:href="#DejaVuSans-114"/>
      <use x="1216.330078" xlink:href="#DejaVuSans-101"/>
      <use x="1277.853516" xlink:href="#DejaVuSans-101"/>
      <use x="1339.376953" xlink:href="#DejaVuSans-122"/>
      <use x="1391.867188" xlink:href="#DejaVuSans-101"/>
      <use x="1453.390625" xlink:href="#DejaVuSans-100"/>
      <use x="1516.867188" xlink:href="#DejaVuSans-41"/>
     </g>
    </g>
   </g>
  </g>
 </g>
 <defs>
  <clipPath id="p600bec7faf">
   <rect height="271.8" width="558" x="90" y="43.2"/>
  </clipPath>
 </defs>
</svg>
